<svg width="13021" height="3546" viewBox="0 0 13021 3546" fill="none" xmlns="http://www.w3.org/2000/svg">
<path fill-rule="evenodd" clip-rule="evenodd" d="M2069.6 3340.94L2086.35 3353.08C2076.56 3362.7 1866.89 3275.51 1839.29 3265.34C1841.55 3262.09 1837.31 3258.53 1853.14 3259.66L1900.65 3271.03C1965.66 3289.9 2011.96 3316.23 2069.6 3340.94ZM1013.97 3356.56C1030.2 3329.74 1227.29 3254.51 1255.47 3259.84C1268.14 3262.23 1259.26 3260.11 1262.71 3264.66L1013.97 3356.56ZM2169.55 3037.77C2243.05 3028.23 2316.06 3020.68 2389.9 3023.34C2402.99 3023.82 2413.38 3024.51 2425.94 3025.99C2460.82 3030.08 2450.93 3027.88 2453.86 3036.25C2378.11 3035.26 2309.25 3044.6 2236.95 3045.08C2224.87 3045.17 2212.87 3044.53 2200.8 3044.16C2194.98 3043.98 2186.79 3044.4 2181.31 3043.76C2171.93 3042.67 2173.33 3041.6 2169.55 3037.77ZM644.727 3033.43C666.743 3016.41 904.36 3023.09 923.059 3040.89C911.154 3048.19 655.523 3039.36 644.727 3033.43ZM1808.14 3191.24C1811.8 3168.45 1827.07 3124.13 1834.28 3101.22C1842.4 3075.43 1852.82 3042.76 1862.52 3015.94C1872.48 2988.42 1881 2959.41 1891.28 2931.63L1918.38 2852.95C1919.42 2879.1 1882.02 3007.07 1872.93 3033.42L1827.19 3155.05C1820.82 3171.48 1816.87 3183.51 1808.14 3191.24ZM1198.36 2895.16C1201.79 2910.53 1214.91 2947.51 1220.65 2964.04C1229.64 2989.96 1234.9 3008.59 1243.6 3034.32C1250.91 3055.95 1300.37 3184.66 1294.29 3201.32C1286.91 3192.62 1285.47 3188.59 1282.46 3173.71C1276.52 3155.63 1265.05 3132.39 1256.57 3109.92C1238.8 3062.8 1200.85 2952.49 1191.18 2902.35L1184 2875.48C1182.08 2864.47 1180.08 2860.37 1184.28 2851.25L1198.36 2895.16ZM2172.7 2593.89L2174.32 2642.13C2172.42 2671.52 2173.52 2703.32 2171.91 2731.94C2169.48 2775.34 2153.72 2955.07 2142.41 2973.43C2136.95 2961.81 2143.4 2908.97 2144.35 2895.41C2146.22 2868.75 2148.73 2839.63 2150.33 2813.29C2152.14 2783.76 2162.71 2611.9 2172.7 2593.89ZM960.053 2969.01C945.737 2958.17 915.088 2636.01 933.144 2599.58C937.633 2640.26 963.685 2949.06 960.053 2969.01ZM2456.78 2704.73C2465.94 2697.91 2500.52 2685.64 2515.51 2679.56C2561.33 2660.98 2666.2 2629.56 2709.69 2634.51C2699.94 2644.56 2607.12 2669.13 2586.87 2674.02C2545.43 2684.02 2499.8 2708.02 2456.78 2704.73ZM613.022 2691.17C624.928 2693.12 639.401 2697.8 646.826 2705.24C643.376 2708.16 651.49 2707.8 638.077 2709.34C636.591 2709.51 629.347 2708.58 627.472 2708.29C624.631 2707.86 620.971 2707.33 618.279 2706.11C613.871 2704.1 613.567 2702.71 611.639 2700.92C597.272 2701.26 455.723 2657.77 419.891 2646.5C409.312 2643.17 403.052 2642.49 395.425 2633.93C451.94 2631.21 563.343 2668.43 613.022 2691.17ZM679.133 2661.39C673.676 2634.54 682.154 2333.49 699.979 2304.36C700.27 2375.53 694.643 2507.72 689.51 2582.67C688.214 2601.61 690.255 2656.18 679.133 2661.39ZM2420.48 2658.25C2416.79 2650.47 2391.86 2320.3 2401.02 2303C2420.25 2367.51 2430.14 2629.54 2420.48 2658.25ZM423.68 2309.16C404.948 2305.48 337.155 2255.63 313.732 2241.38C294.427 2229.64 281.292 2218.64 259.746 2205.92C248.315 2199.17 242.759 2195.44 231.518 2187.42C226.39 2183.76 222.792 2181.55 218.312 2178.77L206.134 2167.53C245.712 2172.15 415.527 2281.3 423.68 2309.16ZM2727.86 2263.61C2775.51 2227.52 2857.15 2171.35 2908.95 2161.71L2732.37 2276.74C2720.42 2283.88 2683.8 2315.02 2674.91 2306.17L2727.86 2263.61ZM2605.2 2140.95C2609.41 2159.65 2631.35 2270.97 2629.03 2278.91C2619.88 2266.42 2566.34 2047.14 2563.93 2014.2C2572.71 2020.04 2573.54 2019.46 2580.37 2039.49C2593.78 2078.77 2596.34 2101.56 2605.2 2140.95ZM472.544 2278.08C468.624 2234.8 524.213 2006.48 554.261 1937.86C552.399 1963.07 542.178 2002.69 536.055 2027.68C519.591 2094.88 494.61 2228.68 472.544 2278.08ZM2728.88 1780.6C2738.68 1792.69 2753.28 1820.2 2757.96 1841.65C2746.05 1835.75 2745.96 1829.64 2738.7 1815.9C2719.62 1779.72 2697.16 1743.75 2677.02 1708.36C2670.62 1697.1 2666.29 1691.45 2662.27 1678.07C2677.56 1685.61 2711.97 1759.76 2728.88 1780.6ZM2986.84 1650.94L2906.71 1753.67C2898.87 1763.29 2895.69 1770.12 2887 1779.47C2868.24 1799.65 2841.83 1846.62 2822.6 1853.18C2826.4 1835.34 2852.68 1804.15 2860.38 1792.24C2872.8 1773.05 2880.44 1762.51 2898.6 1739.08C2924.08 1706.2 2962.72 1662.36 2990.68 1638.53C2993.96 1635.74 2995 1636.09 2999.11 1634.53C2992.99 1651.75 2997.41 1645.52 2986.84 1650.94ZM267.916 1831.16C276.737 1838.6 290.951 1862.01 293.951 1874.09C284.847 1869.2 275.962 1858.51 269.594 1849.42C265.252 1843.22 265.603 1843.15 263 1837.93C255.133 1835.71 256.704 1835.76 250.561 1826.36C245.449 1818.54 246.5 1820.17 240.64 1813.56L99.2466 1631.28C122.437 1639.36 174.204 1703.39 190.239 1724.48C204.309 1742.99 217.033 1759.55 231.266 1777.65C238.118 1786.36 262.559 1818.76 267.916 1831.16ZM345.037 1844.32C347.218 1815.46 399.094 1717.14 411.863 1693.29C436.94 1646.45 464.404 1597.74 492.796 1565.19C489.679 1574.6 480.929 1591.87 476.522 1601.01C459.88 1635.54 350.91 1839.64 345.037 1844.32ZM2789.52 1354.1C2775.81 1352.84 2748.65 1321.19 2737.43 1310.48C2715.11 1289.18 2595.42 1164.6 2592.27 1156.3C2631.37 1169.42 2784.32 1333.11 2789.52 1354.1ZM314.905 1352.33C326.251 1317.29 484.232 1161.71 510.443 1153.38C504.775 1166.02 495.871 1173.79 486.864 1182.18C452.332 1214.34 333.567 1349.31 314.905 1352.33ZM161.619 1116.78C163.97 1124.4 171.239 1133.35 176.035 1143.26C201.097 1195.06 216.594 1243.86 237.774 1298.85C242.331 1310.68 259.526 1348.09 254.294 1361.34C238.152 1324.1 217.926 1285.9 202.939 1244.99C197.661 1230.58 198.414 1222.22 194.043 1208.27C188.606 1190.92 162.124 1141.51 157.293 1122.01L151.529 1112.21C151.21 1111.41 150.942 1110.43 150.668 1109.62C148.877 1104.34 148.823 1102.21 147.675 1097.23C156.572 1102.92 151.387 1097.74 161.619 1116.78ZM2847.07 1364.13C2841.54 1372.41 2847.68 1365.62 2840.72 1369.64C2843.85 1326.46 2919.62 1158.41 2939.42 1115.04C2950.77 1090.19 2963.52 1071.09 2975.36 1047.43C2975.18 1062.39 2899.19 1244.74 2884.98 1276.91C2875.52 1298.33 2857.47 1348.54 2847.07 1364.13ZM2478.01 799.625C2481.56 796.72 2474.46 795.891 2486.75 795.799C2501.68 795.691 2595.65 840.722 2607.88 846.707C2632.38 858.695 2701.73 899.761 2721.7 918.79C2712.51 924.844 2617.4 871.625 2601.54 862.443L2478.01 799.625ZM406.678 909.167C400.926 917.706 385.88 925.443 377.276 918.79C383.341 910.094 391.563 907.141 401.508 903.811C411.611 892.798 599.117 781.966 621.846 799.787C591.045 813.251 417.695 908.339 406.678 909.167ZM2770.85 902.743C2762.67 880.4 2811.66 591.154 2832.03 558.008C2833.08 560.979 2833.87 559.593 2833.43 567.444C2833.33 569.256 2831.52 577.427 2831.2 578.767C2815.28 644.787 2788.78 864.699 2770.85 902.743ZM326.663 864.345L330.736 876.868C332.454 886.526 332.763 898.661 329.374 906.245C323.056 896.831 321.873 879.028 320.33 865.134C317.981 838.57 310.372 817.193 305.703 790.253L267.967 556.642C273.488 565.076 275.58 576.79 279.216 590.225C296.991 655.89 330.054 805.206 326.663 864.345ZM2363.65 508.54C2383.61 492.13 2535.06 525.399 2560.6 532.992C2574.37 537.083 2576.65 533.018 2581.56 545.836C2569.5 553.574 2492.65 534.113 2473.23 530.556L2373.74 514.767C2371.07 514.1 2370.29 513.628 2367.37 512.022C2366.9 511.762 2365.85 511.573 2365.52 510.365C2365.18 509.115 2364.28 509.132 2363.65 508.54ZM519.252 545.048C538.147 516.37 721.664 503.111 763.266 505.162C754.773 512.082 540.602 548.984 519.252 545.048ZM2631.82 499.051C2626.42 479.438 2625.74 431.156 2625.55 407.843C2625.42 391.672 2625.56 375.521 2625.43 359.359L2626 322.086C2626.97 315.981 2628.04 315.646 2629.03 313.471C2632.45 321.754 2632.72 324.426 2633.55 333.739C2636.11 362.671 2631.52 364.018 2632.73 389.824C2636.62 416.835 2633.51 401.112 2631.82 499.051ZM467.89 290.192C467.881 264.27 463.593 175.655 474.818 163.888L480.809 239.131C477.702 309.528 483.394 459.456 469.449 515.314C467.189 475.851 465.556 440.843 466.165 400.377C466.67 366.841 470.551 322.484 467.89 290.192ZM2479.78 274.358C2464.3 269.307 2286.85 109.219 2280.1 93.5957C2315.18 103.376 2402.74 189.187 2435.85 223.143C2446.32 233.883 2475.31 260.869 2479.78 274.358ZM621.099 273.754C632.752 245.632 790.514 101.929 824.71 91.0655C818.285 102.854 740.87 172.974 725.716 186.064C704.425 204.457 635.545 272.701 621.099 273.754ZM1151.76 3195.96C1159.02 3203.43 1158.71 3202.3 1146.69 3202.95C1105.59 3200.24 1029.96 3246.5 998.828 3274.78C956.424 3313.31 923.366 3357.75 894.556 3410.12C901.392 3417.67 1001.43 3446.93 1019.04 3451.28C1121.99 3476.73 1185.15 3482.95 1273.46 3404.49C1327.72 3356.29 1333.57 3319.06 1352.68 3299.27L1450.86 3342.99C1444.89 3348.3 1442.8 3348.25 1435.99 3350.65C1398.37 3363.87 1361.93 3382.88 1326.93 3405.43C1301.32 3421.93 1239.89 3473.74 1229.87 3503.36C1235.92 3518.81 1254.32 3538.58 1263.7 3543.84C1283.17 3528.3 1306.97 3480.77 1391.34 3439.31C1417.12 3426.64 1528.73 3375.89 1550.13 3375.88C1567.04 3375.88 1687.75 3429.03 1708.87 3439.31C1757.95 3463.21 1800.1 3501.95 1836.53 3544.51C1848.71 3538.65 1868.16 3513.19 1874.26 3500.74C1833.7 3459.59 1842.51 3453.02 1775.2 3406.37C1734.97 3378.49 1693.4 3364.44 1649.19 3344.38C1665.04 3330.78 1682.18 3327.96 1700.14 3320.04C1714.38 3313.77 1737.18 3302.3 1750.33 3299.51C1756.21 3307.51 1759.34 3317.15 1765.19 3326.79C1771 3336.37 1776.99 3345.31 1783.28 3354.71C1820.12 3409.83 1877.39 3455.54 1935.45 3464.3C2018.67 3476.86 2096.1 3447.91 2174.42 3422.94L2204.78 3410.12C2196.86 3388.48 2168.81 3348.46 2157.43 3334.03C2061.4 3212.3 1954.91 3204.53 1948.84 3197.53C1961.31 3183.52 2001.78 3162.06 2019.62 3148.39C2032.31 3138.65 2081.95 3098.9 2092.36 3096.37C2101.36 3115.64 2100.12 3115.03 2113.11 3128.7C2182.22 3201.4 2268.63 3230.23 2355.37 3203.38C2432.03 3179.65 2501.58 3122.73 2562.3 3059.54C2571.46 3050 2580.8 3040.64 2588.15 3029.71L2558.37 3001.24C2545.25 2991.53 2536.56 2985.12 2526 2977.5C2439.46 2915.01 2360.18 2924.19 2266.35 2937.71C2270.99 2926.82 2344.39 2845.77 2361.42 2827.41C2373.03 2814.9 2380.59 2802.41 2392.67 2788.01C2417.32 2792.7 2512.74 2900.31 2660.14 2806.46C2715.93 2770.94 2758.81 2714.79 2805.92 2662.82C2814.32 2653.56 2845.96 2618.73 2850.62 2608.27C2834.63 2582.91 2737.38 2551.03 2701.35 2547.9C2655.9 2543.96 2614.16 2553.71 2571.57 2568.94C2559.93 2573.1 2546.84 2582.39 2534.51 2585.89C2541.39 2566.51 2572.13 2518.99 2583.55 2498.78C2598.81 2471.78 2618.27 2438.45 2628.69 2406.64C2647.78 2407.55 2675.31 2418.65 2698.53 2422C2830.22 2441.03 2922.85 2294.3 2989.46 2163.02C2997.76 2146.65 3018.75 2115.49 3021.24 2097.35C2934.63 2068.83 2831.78 2080.87 2755.2 2147.24C2746.79 2154.52 2735.15 2168.12 2726.99 2171.47L2756.33 2074.22C2764.12 2050.13 2774.36 1990.44 2784.76 1975.19C2800.65 1965.13 2913.97 1991.3 3002.14 1840.62C3029.03 1794.68 3092.06 1602.63 3092.94 1534.26C3044.3 1501.66 2944.69 1576.69 2905.56 1614.14C2885.34 1633.5 2869.01 1658.83 2851.34 1683.15C2845.1 1691.72 2835.2 1715.51 2827.01 1720.57C2827.16 1657.5 2837.12 1540.51 2841.48 1472.03L2894.9 1443.39C2941.06 1413.87 2991.81 1354.76 3012.63 1288C3048.29 1173.68 3045.61 1034.71 3043.77 913.061C3005.54 920.368 2933.77 995.54 2909.86 1030.62C2840.19 1132.86 2841.32 1198.6 2829.25 1219.61C2822.45 1205.4 2816.87 1134.78 2813.31 1111.01C2808.6 1079.6 2795.82 1034.24 2794.91 1003.24C2828.74 977.715 2852.84 944.981 2874.75 901.515C2927.87 796.184 2930.31 691.648 2905.56 566.355C2895.09 513.376 2884.32 449.143 2870.14 401.637C2831.64 413.218 2759.83 553.626 2743.71 628.97C2737.74 656.906 2727.29 708.976 2727.03 737.892C2724.88 750.499 2729.05 742.29 2722.42 749.228L2717.54 734.473C2708.06 689.53 2678.33 642.456 2670.53 605.509C2676.12 593.98 2682.26 588.797 2690.23 579.4C2700.71 567.034 2698.38 564.478 2705.64 547.941C2768.96 403.735 2752.41 279.368 2693.82 138.19C2686.53 120.637 2639.46 8.05203 2634.6 2.32468C2614.04 23.5594 2579.51 118.066 2570.02 164.633C2547.01 277.46 2561.9 290.353 2563.15 389.586C2553.75 383.083 2550.52 372.044 2542.91 359.287C2504.71 295.305 2538.47 327.535 2504.1 239.643C2473.95 162.541 2431.99 108.701 2378.36 65.2228C2313.67 12.7706 2246.13 -1.13725 2167.77 2.66652C2170.22 39.2925 2255.94 230.947 2275.91 262.371C2369.52 409.673 2473.75 370.53 2492.49 382.512C2500.52 394 2527.9 435.603 2530.99 451.561C2489.05 443.407 2464.1 406.608 2362.05 422.613C2319.73 429.25 2247.55 466.825 2216.25 495.414C2262.19 547.391 2334.8 620.387 2389.25 651.266C2448.17 684.679 2505.23 699.677 2572.94 668.406C2587.89 661.504 2614.64 641.3 2629.03 642.9C2640.24 662.695 2689.34 797.489 2690.19 813.66L2622.96 762.461C2605.51 750.014 2566.57 733.214 2544.1 726.659C2515.95 718.447 2476.66 715.217 2445.92 719.24C2431.13 721.176 2414.9 723.745 2400.98 728.306C2394.07 730.572 2389.07 733.471 2381.72 736.251C2374.42 739.01 2367.53 740.55 2362.39 747.23C2375.67 778.426 2442.66 879.034 2467.28 911.96C2507.98 966.381 2545.85 1013.25 2610.34 1030.06C2685.89 1049.75 2683.3 1031.79 2745.75 1023.73C2758.89 1072.5 2774.88 1175.42 2777.23 1232.49C2748.95 1212.2 2690.05 1055.45 2482.93 1055.64C2492.16 1114.44 2563.19 1293.65 2586.49 1333.9C2611.25 1376.7 2629.63 1400.09 2669.31 1427.88C2711.47 1457.4 2749.24 1456.54 2792.03 1472.06C2793.9 1549.97 2784.75 1637.67 2778.16 1712.37C2759.59 1705.98 2726.4 1558.98 2611.17 1479.73C2591.27 1466.04 2553.17 1441.55 2529.22 1437.84C2530.3 1464.47 2533.97 1498.29 2536.9 1523.68C2540.27 1552.96 2541.56 1583.09 2544.93 1613.75C2564.3 1789.71 2605.16 1878.64 2734.55 1951.94C2734.49 1966.21 2710.17 2052.97 2704.91 2068.59C2698.73 2086.93 2693.77 2107.07 2688.15 2124.22C2682.98 2140 2678.01 2163.39 2667.97 2174.33C2663.31 2153.8 2664.45 2103.82 2650.72 2045.7C2632.62 1969.1 2603.13 1908.27 2564.05 1852.55C2554.17 1838.46 2513.16 1790.2 2498.65 1784.2C2495.38 1842.16 2481.97 1892.24 2475.82 1948.09C2469 2010.11 2465.32 2066.56 2470.31 2130.85C2474.53 2185.29 2494.63 2237.07 2514.03 2270.24C2570.88 2360.07 2553.28 2322.32 2588.47 2369.58C2586.02 2379.67 2580.51 2388.35 2576.6 2396.22C2562.69 2424.24 2493.2 2558.31 2478.76 2567.09C2479.78 2519.6 2487.18 2503.46 2485.56 2429.12C2483.82 2349.18 2461.69 2266.94 2430.79 2202.77C2421.59 2183.67 2393.12 2126.62 2381.55 2118.55C2379.6 2121.44 2379.38 2120.72 2377.39 2125.41C2376.16 2128.29 2375.2 2132.17 2374.22 2135.7C2362.28 2178.6 2344.39 2220.08 2330.94 2260.79C2282.21 2408.32 2266.42 2526.57 2326.44 2670.97C2337.51 2697.59 2349.45 2711.07 2359.33 2735.07C2352.31 2754.76 2306.68 2802.51 2292.44 2820.65C2285.36 2829.68 2224.92 2896.49 2218.07 2898.69C2221.27 2863.99 2235.76 2818.58 2240 2776.13C2251.27 2663.21 2233.89 2534.17 2188.68 2438.04L2175.78 2414.09C2162.88 2428.22 2119.19 2517.78 2107.03 2542.2C2042.72 2671.35 1994.39 2802.96 2038.41 2960.51C2043.15 2977.48 2061.26 3027.41 2062.35 3042.05C2027.68 3061.16 1911.51 3158.09 1885.06 3159.18C1898.83 3128.68 1916.52 3104.99 1929.83 3072.73C1978.02 2955.95 1988.45 2827.01 1962.99 2696.14C1940.07 2704.92 1871.52 2785.24 1846.74 2812.17C1767.63 2898.13 1722.72 2990.17 1724.91 3137.89C1725.34 3167.17 1734.74 3214.2 1733.18 3234.83C1716.84 3245.37 1566.67 3304.93 1549.92 3305.12C1534.44 3305.29 1380.39 3244.07 1364.77 3233.91C1369.14 3167.47 1388.44 3155.59 1371.27 3042.59C1346.76 2881.31 1246.71 2810.83 1161.3 2715.75C1154.79 2708.5 1144.28 2696.39 1137.77 2696.47C1113.05 2864.98 1122.79 2972.83 1190.3 3113.27C1199.25 3131.9 1209.08 3139.72 1213.73 3157.1C1200.23 3155.49 1134.9 3111.23 1123.1 3102.85C1095.65 3083.36 1065.52 3056.21 1037.71 3041.71C1040.19 3020.62 1056.44 2985.97 1061.85 2964.29C1111.05 2767.08 1042.83 2628.2 960.464 2477.92L924.45 2413.05C923.88 2413.68 922.982 2413.63 922.757 2414.99L913.222 2436.57C861.083 2572.86 843.317 2687.95 871.207 2843.6C874.365 2861.22 884.475 2890.22 884.522 2901.26C874.85 2895.82 747.899 2758.47 740.863 2735.07C758.8 2691.5 774.16 2691.71 798.259 2603.03C841.598 2443.56 791.273 2332.85 745.735 2191.63C741.573 2178.73 738.199 2167.8 733.444 2155.56C728.798 2143.61 725.2 2127.83 718.676 2119.87C688.862 2149.38 652.656 2241.48 638.827 2288.76C627.418 2327.78 622.059 2353.25 618.269 2399.39L619.119 2527.75C619.693 2535.48 620.266 2543.21 620.84 2550.94L623.505 2570.14L612.46 2554.47C590.262 2518.18 524.003 2412.91 513.668 2369.58C538.155 2332.6 553.848 2330.94 586.864 2271.07C641.591 2171.81 637.731 2068.2 624.185 1948.21C620.759 1917.86 606.881 1804.69 599.104 1784.74C564.359 1802.63 505.377 1896.76 485.118 1940.73C472.893 1967.26 456.507 2013.04 449.735 2045.56C442.307 2081.22 438.359 2123.38 434.31 2160.49L429.48 2175.48C421.391 2160.95 367.552 1974.89 367.691 1951.87C380.205 1940.6 401.778 1934.99 417.552 1920.98C462.067 1881.47 503.849 1839.71 524.436 1769.58C553.676 1669.98 566.222 1549.13 571.94 1438.73C521.972 1444.44 455.712 1502.33 420.867 1544.93C355.223 1625.18 357.477 1658.55 330.499 1718.35C328.466 1722.86 328.237 1722.47 326.593 1724.86C315.841 1697.69 308.559 1512.76 308.876 1469.17C392.633 1467.95 468.435 1417.86 515.901 1332.99C547.723 1276.1 574.465 1199.94 595.58 1130.36C601.541 1110.72 617.207 1074.07 618.703 1056.87C520.874 1046.19 415.735 1102.98 351.631 1194.76C344.794 1204.54 330.491 1227.85 323.35 1232.54C323.031 1196.96 346.359 1053.84 354.767 1023.81C371.352 1024.47 397.25 1035.85 418.25 1037.74C552.524 1049.79 630.697 925.133 706.571 801.831C716.85 785.126 734.312 763.304 740.496 744.252C653.683 710.539 562.256 703.793 477.233 762.778C466.562 770.181 453.468 778.726 442.736 787.408C430.773 797.086 421.66 811.085 411.009 816.629C411.412 796.246 461.841 663.81 473.971 642.23C489.149 642.857 511.323 660.145 527.533 668.036C649.135 727.231 752.546 627.151 843.794 538.355C855.104 527.349 881.387 507.127 886.145 492.849C836.772 470.278 818.64 439.527 743.604 423.486C716.54 417.7 679.396 418.29 652.013 422.929C620.614 428.245 596.205 445.868 570.112 449.96C575.926 429.067 597.979 398.678 609.426 381.619C666.061 378.324 684.285 378.604 738.117 351.655C757.06 342.173 770.949 328.734 785.28 314.446C804.767 295.018 809.977 284.35 824.368 262.374C847.734 226.69 931.467 37.4097 935.473 2.02712C876.001 1.68438 834.957 4.29611 782.478 26.9478C745.957 42.7111 695.079 85.5258 674.009 112.932C648.167 146.544 615.072 187.651 596.514 240.408C591.842 253.683 588.122 263.906 583.728 279.13C577.698 300.013 579.008 306.819 575.177 327.892C573.338 338.006 542.57 387.5 538.726 392.167C539.615 298.832 556.965 287.468 532.758 172.67C525.569 138.576 517.048 110.627 506.118 81.2722L468.41 3.91704C455.451 18.661 416.015 118.578 408.289 137.042C388.429 184.502 374.906 228.076 361.466 286.66C338.427 387.086 365.047 496.607 410.319 575.286C417.167 587.185 423.44 592.989 429.731 605.509C427.789 615.202 381.352 738.212 376.646 746.148C370.44 733.919 371.938 707.52 369.557 688.847C358.75 604.063 326.369 524.117 285.425 463.075C276.642 449.982 242.869 403.703 232.048 396.687C224.71 408.234 199.21 549.365 196.974 562.623C186.856 622.578 176.19 681.702 180.937 749.164C192.328 911.001 304.836 1001.85 306.108 1008.3C303.826 1034.22 294.323 1080.65 289.597 1107.62C282.789 1146.47 279.614 1170.59 275.566 1212.36C261.545 1188.46 252.724 1142.3 237.597 1116.44C187.91 1031.49 204.338 1034.18 130.171 962.231C118.271 950.686 73.0051 916.285 56.9477 912.163C55.0053 943.018 55.5687 1088.71 58.7033 1118.23C65.5593 1182.81 69.6816 1232.46 88.1549 1287.21C105.056 1337.28 131.409 1371.73 158.42 1401.65C203.714 1451.83 231.858 1448.73 259.876 1474.49L265.072 1597.61C267.502 1638.59 272.577 1677.04 274.226 1717.67C264.056 1710.87 226.955 1636.57 163.108 1585.54C128.978 1558.25 51.1327 1518.28 2 1519.87L41.4039 1685.27C72.9619 1792.24 103.007 1882.03 183.732 1934.53C229.728 1964.44 260.225 1972.8 318.251 1974.89L358.553 2121.52C363.794 2136.57 371.28 2153.36 373.415 2167.84C361.231 2164.92 355.944 2155.53 345.304 2146.75C267.609 2082.66 164.271 2065.46 77.1293 2098.27C83.5941 2116.49 133.812 2205.41 143.823 2223.1C195.178 2313.85 239.622 2388.28 330.731 2412.84C421.722 2437.36 408.785 2412.97 471.686 2406.72C489.243 2451.72 516.999 2497.98 539.99 2538.38C543.92 2545.28 547.783 2553.16 551.747 2559.98C558.037 2570.79 560.885 2569.58 565.767 2582.86C530.422 2577.39 491.155 2539.84 398.791 2547.87C322.767 2554.48 301.903 2583.01 248.491 2604.5C255.152 2625.03 368.728 2745.99 384.829 2761.45C480.346 2853.21 566.761 2868.12 677.691 2806.54C689.875 2799.77 698.158 2789.63 707.553 2787.19L837.531 2939.25C812.592 2938.61 781.326 2925.97 743.702 2925.74C666.808 2925.29 599.011 2955.87 535.092 3007.26C529.549 3011.72 506.493 3031.9 502.691 3037.16C523.394 3065.56 638.964 3149.39 675.406 3170.08C800.509 3241.08 877.748 3223.19 987.381 3129.01C998.644 3119.34 1001.14 3111.23 1010.65 3097.7C1047.77 3110.7 1113.41 3185.18 1151.76 3195.96Z" fill="#55665E" stroke="#94A384" stroke-width="1.88976" stroke-miterlimit="22.9256"/>
<path fill-rule="evenodd" clip-rule="evenodd" d="M914.861 840.847C913.813 962.743 920.14 1071.51 922.664 1189.03C927.333 1406.27 948.899 1541.5 995.599 1741.52C1045.84 1956.71 1165.72 2195.62 1274.09 2338.19C1294.66 2365.24 1314.34 2387.25 1337.22 2413.93C1360.7 2441.31 1381 2464.57 1403.9 2488.56C1439.06 2525.4 1443.51 2524.09 1475.66 2552.63C1495.62 2570.35 1534.85 2607.18 1558.8 2592.06C1629.93 2547.18 1649.19 2525.74 1705.4 2468.24C1800.96 2370.48 1873.54 2268.44 1943.02 2137.91C2050.9 1935.27 2119.89 1709.61 2152.29 1448.34C2163.79 1355.66 2168.31 1246.7 2172.08 1151.6C2174.14 1099.64 2183.49 878.119 2178.98 841.144C2121.86 820.256 2060.71 816.781 2003.96 799.177C1867.41 756.818 1821.41 745.112 1690.4 668.367C1515.56 565.947 1575.57 559.123 1476.11 624.128C1416.36 663.181 1318.44 720.159 1257.27 744.314C1202.43 765.971 1151.1 784.648 1092.42 799.109C1033.53 813.618 970.852 823.057 914.861 840.847ZM995.623 942.893C1007.46 931.768 1053.74 924.845 1069.93 921.162C1094.91 915.48 1123.34 908.894 1147.03 902.561C1261.13 872.054 1318.36 851.104 1423.49 788.342C1445.42 775.248 1464.44 766.671 1485.69 752.142C1574.9 691.146 1522.34 700.7 1672.04 785.755C1760.59 836.071 1849.13 880.862 1946.79 902.38C1972.64 908.076 1998.9 912.641 2026.62 919.281C2042.72 923.136 2090.55 932.781 2102.45 939.164C2113.12 1023.79 2088.3 1374.33 2078.61 1472.47C2050 1762.18 1938.12 2042.67 1797.23 2237.05C1754.96 2295.37 1608.43 2463.12 1551.48 2477.55C1530.1 2482.96 1434.45 2397.05 1416.2 2378.84C1235.92 2198.96 1142 1995.98 1061.54 1713.87C1019.43 1566.2 1009.1 1384.78 1000.84 1222.87C997.379 1155.05 992.234 1005.77 995.623 942.893Z" fill="#3E4943" stroke="#94A384" stroke-width="1.88976" stroke-miterlimit="22.9256"/>
<path fill-rule="evenodd" clip-rule="evenodd" d="M991.422 930.753C1003.36 919.533 1050.04 912.551 1066.36 908.836C1091.55 903.105 1120.23 896.464 1144.12 890.077C1259.19 859.309 1316.91 838.181 1422.94 774.884C1445.05 761.68 1464.24 753.029 1485.67 738.375C1575.64 676.859 1522.63 686.495 1673.61 772.275C1762.91 823.02 1852.2 868.193 1950.7 889.895C1976.76 895.639 2003.26 900.243 2031.21 906.939C2047.45 910.827 2095.68 920.555 2107.68 926.993C2118.44 1012.34 2093.41 1365.87 2083.64 1464.84C2054.79 1757.02 1941.95 2039.91 1799.86 2235.94C1757.23 2294.75 1609.45 2463.94 1552.02 2478.49C1530.46 2483.95 1433.99 2397.31 1415.58 2378.95C1233.76 2197.52 1139.05 1992.81 1057.91 1708.3C1015.43 1559.38 1005.02 1376.41 996.684 1213.12C993.194 1144.72 988.004 994.162 991.422 930.753Z" fill="#2E2E2D" stroke="#94A384" stroke-width="1.88976" stroke-miterlimit="22.9256"/>
<path d="M1308.89 1739.14C1308.89 1782.53 1301.52 1792.43 1266.33 1796.99L1260.65 1831.25C1260.65 1831.25 1297.54 1830.49 1325.92 1830.49C1350.89 1830.49 1395.73 1832.77 1395.73 1832.77L1400.83 1797.75L1399.7 1794.71C1399.7 1794.71 1385.51 1796.99 1374.16 1796.99C1354.3 1796.99 1348.05 1786.34 1349.19 1745.23L1356 1418.69C1356.57 1389.76 1365.08 1379.1 1393.46 1373.01L1395.73 1338.76C1395.73 1338.76 1359.4 1345.61 1335 1345.61C1313.44 1345.61 1272 1343.33 1272 1343.33L1268.03 1376.82L1269.17 1379.87C1269.17 1379.87 1281.65 1378.34 1288.46 1378.34C1305.49 1378.34 1309.46 1386.72 1309.46 1419.45L1308.89 1739.14ZM1365.65 1590.71L1464.97 1775.68C1487.1 1816.78 1509.8 1841.14 1528.53 1841.14C1534.77 1841.14 1575.64 1832.01 1575.64 1832.01L1579.04 1806.13L1576.77 1803.08C1550.1 1803.08 1531.37 1785.58 1504.13 1738.38L1408.78 1571.68L1500.15 1443.04C1534.21 1395.85 1545.56 1384.43 1565.42 1379.1L1569.39 1347.9L1567.12 1342.57C1567.12 1342.57 1537.04 1345.61 1514.91 1345.61C1493.91 1345.61 1452.48 1340.28 1452.48 1340.28L1448.51 1373.01L1449.64 1376.06C1474.05 1378.34 1485.4 1385.95 1485.4 1398.9C1485.4 1409.55 1479.72 1422.49 1467.8 1438.48L1366.22 1580.06L1365.65 1590.71ZM1694.1 1839.62C1776.4 1839.62 1834.28 1777.96 1834.28 1691.19C1834.28 1621.92 1778.67 1586.91 1729.29 1552.65C1689 1524.49 1652.11 1496.33 1652.11 1450.66C1652.11 1408.79 1682.19 1377.58 1723.61 1377.58C1774.69 1377.58 1791.15 1395.09 1791.15 1448.37C1791.15 1471.97 1789.45 1487.95 1789.45 1487.95L1792.85 1491.76L1814.99 1488.72C1818.39 1418.69 1827.47 1360.08 1827.47 1360.08L1825.77 1355.51C1825.77 1355.51 1789.45 1336.48 1738.94 1336.48C1665.16 1336.48 1608.41 1398.13 1608.41 1478.06C1608.41 1544.28 1655.51 1579.3 1700.91 1611.27C1744.61 1641.71 1787.18 1669.11 1787.18 1718.59C1787.18 1770.35 1755.4 1802.32 1708.29 1802.32C1647 1802.32 1634.51 1779.49 1634.51 1669.88L1608.97 1673.68C1608.97 1747.52 1602.16 1806.13 1602.16 1806.13L1605 1813.74C1605 1813.74 1640.75 1839.62 1694.1 1839.62Z" fill="#55665E" stroke="#94A384" stroke-width="1.88976" stroke-miterlimit="22.9256"/>
<path d="M3656.51 2650.69C3758.31 2650.69 3946.26 2681.53 4042.84 2684.96C4455.27 2684.96 4724.13 2414.26 4724.13 1999.66C4724.13 1722.11 4564.9 1561.07 4356.08 1489.11C4520.53 1376.04 4635.38 1204.71 4635.38 964.86C4635.38 618.786 4442.22 433.755 4081.99 433.755C4081.99 433.755 3773.97 450.887 3682.61 450.887C3591.25 450.887 3319.78 444.034 3319.78 444.034L3296.29 653.051L3311.95 680.463C3311.95 680.463 3369.37 673.61 3400.7 673.61C3465.96 673.61 3486.84 718.154 3486.84 844.933L3484.23 2181.26C3484.23 2359.44 3442.46 2417.69 3293.68 2451.95L3272.79 2684.96C3272.79 2684.96 3507.72 2650.69 3656.51 2650.69ZM4074.16 1687.85C4246.44 1739.25 4337.8 1866.03 4337.8 2047.63C4337.8 2263.5 4238.61 2390.28 4068.94 2390.28C3891.44 2390.28 3823.57 2332.03 3823.57 2188.12L3834.01 1691.28L4074.16 1687.85ZM3839.23 1386.32C3841.84 1238.98 3849.67 968.287 3860.12 779.83C3862.73 731.86 3873.17 718.154 3907.1 718.154C4152.47 718.154 4267.33 824.374 4267.33 1053.95C4267.33 1334.92 4087.21 1417.16 4087.21 1417.16C4037.62 1417.16 3839.23 1386.32 3839.23 1386.32ZM5319.7 1842.04L5337.97 844.933C5343.2 725.007 5374.52 680.463 5484.15 663.33L5502.42 430.329C5502.42 430.329 5298.82 450.887 5191.8 450.887C5043.01 450.887 4818.52 440.608 4818.52 440.608L4795.03 666.757L4800.25 680.463C4800.25 680.463 4855.07 673.61 4883.78 673.61C4951.65 673.61 4967.31 707.875 4967.31 858.639V1951.69C4967.31 2445.1 5170.91 2691.81 5572.9 2691.81C6008.83 2691.81 6246.37 2410.84 6246.37 1896.86V831.227C6246.37 721.581 6267.25 697.595 6397.77 659.904L6413.43 430.329C6413.43 430.329 6235.92 450.887 6102.8 450.887C6003.61 450.887 5797.39 440.608 5797.39 440.608L5776.51 666.757L5781.73 680.463C5781.73 680.463 5839.16 673.61 5867.87 673.61C5933.13 673.61 5948.79 707.875 5951.4 858.639C5951.4 858.639 5961.84 1708.41 5961.84 1934.56C5961.84 2232.66 5854.82 2380 5643.38 2380C5434.56 2380 5319.7 2184.69 5319.7 1842.04ZM7742.5 1845.47C7742.5 1845.47 7384.88 1163.6 7045.54 437.182C7045.54 437.182 6907.2 450.887 6794.95 450.887C6667.05 450.887 6492.15 433.755 6492.15 433.755L6473.88 632.492L6494.76 666.757C6664.44 690.742 6706.2 731.86 6706.2 879.198L6672.27 2232.66C6669.66 2369.72 6622.67 2431.4 6518.26 2448.53L6497.38 2678.1C6497.38 2678.1 6677.49 2650.69 6818.44 2650.69C6930.69 2650.69 7155.18 2664.4 7155.18 2664.4L7181.28 2445.1L7165.62 2421.12C7165.62 2421.12 7082.09 2431.4 7053.37 2431.4C6988.12 2431.4 6964.62 2390.28 6964.62 2277.2L6967.23 1221.85H6993.34C6993.34 1221.85 7348.34 1893.44 7752.94 2743.21L8029.63 2698.66L8063.57 879.198C8066.18 742.138 8113.16 683.889 8228.02 663.33L8241.07 433.755C8241.07 433.755 8060.96 450.887 7933.05 450.887C7818.2 450.887 7596.32 437.182 7596.32 437.182L7578.05 649.624L7588.49 677.036C7598.93 677.036 7640.7 673.61 7677.24 673.61C7737.28 673.61 7760.77 714.728 7763.38 820.948L7768.6 1845.47H7742.5ZM8518.18 2170.98C8518.18 2362.87 8486.86 2410.84 8335.46 2441.68L8311.97 2660.97C8311.97 2660.97 8528.62 2650.69 8674.8 2650.69C8787.04 2650.69 9050.69 2660.97 9050.69 2660.97L9074.18 2441.68L9063.74 2417.69C9063.74 2417.69 9014.14 2427.97 8961.94 2427.97C8881.02 2427.97 8857.52 2383.43 8862.74 2194.97L8886.24 855.213C8888.85 728.433 8922.78 690.742 9050.69 656.477L9066.35 426.902C9066.35 426.902 8818.37 450.887 8706.12 450.887C8630.43 450.887 8353.73 444.034 8353.73 444.034L8332.85 649.624L8345.9 677.036C8345.9 677.036 8395.5 673.61 8426.82 673.61C8502.52 673.61 8520.79 707.874 8520.79 851.786L8518.18 2170.98ZM8912.34 1567.92L9306.5 2414.26C9400.47 2613 9486.61 2702.09 9596.24 2702.09C9643.23 2702.09 9901.65 2660.97 9901.65 2660.97L9922.53 2479.37L9906.87 2448.53C9789.41 2438.25 9711.1 2356.01 9609.3 2150.42L9264.73 1458.27L9533.6 1060.8C9682.38 827.801 9765.92 728.433 9875.55 670.183L9896.43 474.873L9878.16 437.182C9878.16 437.182 9671.94 450.887 9572.75 450.887C9465.73 450.887 9246.46 433.755 9246.46 433.755L9225.58 646.198L9233.41 670.183C9332.6 677.036 9371.76 707.874 9371.76 776.403C9371.76 824.374 9348.26 886.051 9303.89 944.302L8920.17 1492.54L8912.34 1567.92ZM10507.7 2174.41C10507.7 2081.89 10510.3 1944.84 10515.5 1694.7C10559.9 1687.85 10635.6 1674.14 10713.9 1674.14C10844.4 1674.14 11053.2 1684.42 11053.2 1684.42L11089.8 1389.74L11068.9 1358.91C11068.9 1358.91 10852.2 1386.32 10766.1 1386.32C10690.4 1386.32 10578.1 1382.89 10523.3 1382.89L10541.6 851.786C10544.2 748.991 10557.3 738.713 10679.9 738.713C10972.3 738.713 11008.8 766.124 11008.8 954.581C11008.8 1002.55 11003.6 1091.64 11003.6 1091.64L11243.8 1071.08C11256.8 752.418 11303.8 447.461 11303.8 447.461L11282.9 409.77C11123.7 437.181 10860.1 450.887 10489.4 450.887C10293.6 450.887 10006.5 440.608 10006.5 440.608L9985.6 649.624L10003.9 680.463C10003.9 680.463 10053.5 673.61 10082.2 673.61C10152.7 673.61 10168.3 711.301 10168.3 858.639L10165.7 2157.28C10165.7 2356.01 10121.3 2424.54 9977.77 2451.95L9956.89 2684.96C9956.89 2684.96 10178.8 2650.69 10411.1 2650.69C10734.8 2650.69 11225.5 2674.68 11225.5 2674.68L11249 2636.99C11275.1 2308.04 11322.1 1999.66 11322.1 1999.66L11303.8 1965.39L11081.9 1989.38C11045.4 2332.03 10998.4 2380 10674.7 2380C10525.9 2380 10507.7 2356.01 10507.7 2174.41ZM12181.3 1790.64L12405.8 2386.85C12481.5 2599.29 12575.5 2705.52 12690.3 2705.52L13000.9 2667.82L13019.2 2486.22L13000.9 2455.38C12891.3 2455.38 12807.8 2362.87 12711.2 2157.28L12484.1 1677.57C12708.6 1523.38 12833.9 1293.8 12833.9 1023.11C12833.9 642.771 12614.6 433.755 12215.2 433.755C12215.2 433.755 11922.9 450.887 11815.9 450.887C11714 450.887 11487 444.034 11487 444.034L11466.1 653.051L11479.1 680.463C11479.1 680.463 11533.9 673.61 11570.5 673.61C11635.7 673.61 11654 710.73 11654 840.936L11651.4 2157.85C11651.4 2353.16 11612.2 2410.84 11466.1 2438.25L11442.6 2667.82C11442.6 2667.82 11656.6 2647.26 11815.9 2650.69C11933.3 2650.69 12165.6 2657.54 12165.6 2660.97L12191.7 2448.53L12181.3 2427.97C12014.2 2421.12 11996 2393.71 11996 2164.7L11998.6 1788.36L12181.3 1790.64ZM12006.4 1480.55C12009 1272.1 12014.2 1066.51 12027.3 792.966C12029.9 731.86 12037.7 718.154 12074.3 718.154C12337.9 718.154 12463.2 838.08 12463.2 1088.21C12463.2 1393.17 12296.2 1485.69 12241.3 1516.52L12006.4 1480.55Z" fill="#55665E" stroke="#94A384" stroke-width="2.83464" stroke-miterlimit="22.9256"/>
<path d="M3578.44 3125.23V3397.99H3619.49C3634.7 3397.99 3645.42 3401.24 3651.75 3407.61C3657.98 3413.99 3661.15 3422.34 3661.15 3432.78C3661.15 3443.22 3657.98 3451.57 3651.75 3457.94C3645.42 3464.32 3634.7 3467.57 3619.49 3467.57H3476.12C3460.9 3467.57 3450.18 3464.32 3443.85 3457.83C3437.62 3451.33 3434.46 3442.87 3434.46 3432.43C3434.46 3421.99 3437.62 3413.64 3443.85 3407.38C3450.18 3401.12 3460.9 3397.99 3476.12 3397.99H3517.17V3125.23H3450.39V3191.33C3450.39 3208.61 3447.53 3220.79 3441.91 3227.98C3436.3 3235.05 3428.94 3238.65 3419.75 3238.65C3410.56 3238.65 3403.21 3235.05 3397.59 3227.98C3391.98 3220.79 3389.12 3208.61 3389.12 3191.33V3055.65H3707.1V3191.33C3707.1 3208.61 3704.24 3220.79 3698.62 3227.98C3693.01 3235.05 3685.65 3238.65 3676.46 3238.65C3667.27 3238.65 3659.92 3235.05 3654.31 3227.98C3648.69 3220.79 3645.83 3208.61 3645.83 3191.33V3125.23H3578.44ZM4125.05 3261.72C4125.05 3323.65 4107.7 3375.14 4073.08 3416.31C4038.36 3457.48 3998.33 3478.01 3952.79 3478.01C3911.74 3478.01 3874.88 3460.84 3841.9 3426.63C3801.15 3384.3 3780.73 3329.33 3780.73 3261.72C3780.73 3194.23 3801.15 3139.15 3841.9 3096.59C3874.88 3062.38 3911.74 3045.21 3952.79 3045.21C3998.33 3045.21 4038.36 3065.74 4073.08 3106.91C4107.7 3148.08 4125.05 3199.68 4125.05 3261.72ZM4063.79 3261.72C4063.79 3219.4 4052.45 3184.26 4029.89 3156.43C4007.22 3128.71 3981.59 3114.79 3952.79 3114.79C3924.1 3114.79 3898.57 3128.71 3875.9 3156.66C3853.33 3184.49 3842 3219.63 3842 3261.72C3842 3303.94 3853.33 3338.96 3875.9 3366.79C3898.57 3394.51 3924.1 3408.42 3952.79 3408.42C3981.59 3408.42 4007.22 3394.62 4029.89 3366.91C4052.45 3339.19 4063.79 3304.17 4063.79 3261.72ZM4424.77 3297.1H4293.65V3397.99H4303.46C4316.63 3397.99 4326.33 3401.24 4332.66 3407.61C4338.89 3413.99 4342.05 3422.34 4342.05 3432.78C4342.05 3443.22 4338.89 3451.57 4332.66 3457.94C4326.33 3464.32 4316.63 3467.57 4303.46 3467.57H4232.39C4219.21 3467.57 4209.51 3464.32 4203.18 3457.83C4196.95 3451.33 4193.79 3442.87 4193.79 3432.43C4193.79 3421.99 4197.97 3412.72 4206.45 3404.37C4210.53 3400.07 4219.21 3397.99 4232.39 3397.99V3125.23C4219.21 3125.23 4209.51 3121.98 4203.18 3115.61C4196.95 3109.23 4193.79 3100.88 4193.79 3090.44C4193.79 3080 4196.95 3071.65 4203.18 3065.27C4209.51 3058.9 4219.21 3055.65 4232.39 3055.65H4303.46C4316.63 3055.65 4326.33 3058.78 4332.66 3065.04C4338.89 3071.31 4342.05 3079.65 4342.05 3090.09C4342.05 3100.53 4338.89 3108.99 4332.66 3115.49C4326.33 3121.98 4316.63 3125.23 4303.46 3125.23H4293.65V3227.51H4424.77V3125.23H4414.96C4401.79 3125.23 4392.09 3121.98 4385.76 3115.61C4379.53 3109.23 4376.36 3100.88 4376.36 3090.44C4376.36 3080 4379.53 3071.65 4385.76 3065.27C4392.09 3058.9 4401.79 3055.65 4414.96 3055.65H4486.03C4499.21 3055.65 4508.91 3058.78 4515.24 3065.04C4521.47 3071.31 4524.63 3079.65 4524.63 3090.09C4524.63 3100.53 4521.47 3108.99 4515.24 3115.49C4508.91 3121.98 4499.21 3125.23 4486.03 3125.23V3397.99C4499.21 3397.99 4507.78 3400.07 4511.77 3404.25C4520.34 3412.83 4524.63 3422.34 4524.63 3432.78C4524.63 3443.22 4521.47 3451.57 4515.24 3457.94C4508.91 3464.32 4499.21 3467.57 4486.03 3467.57H4414.96C4401.79 3467.57 4392.09 3464.32 4385.76 3457.83C4379.53 3451.33 4376.36 3442.87 4376.36 3432.43C4376.36 3421.99 4379.53 3413.64 4385.76 3407.38C4392.09 3401.12 4401.79 3397.99 4414.96 3397.99H4424.77V3297.1ZM4617.26 3397.99V3125.23C4591.93 3125.23 4579.27 3113.52 4579.27 3090.21C4579.27 3067.13 4592.96 3055.65 4620.32 3055.65H4700.58C4727.95 3055.65 4741.63 3067.13 4741.63 3090.21C4741.63 3113.52 4727.95 3125.23 4700.58 3125.23H4678.53V3335.13L4835.37 3055.65H4906.44C4933.81 3055.65 4947.49 3067.13 4947.49 3090.21C4947.49 3113.52 4933.81 3125.23 4906.44 3125.23H4896.64V3397.99C4912.67 3397.99 4924.21 3400.66 4931.36 3405.99C4938.4 3411.32 4941.98 3420.14 4941.98 3432.55C4941.98 3455.86 4928.29 3467.57 4900.93 3467.57H4820.67C4793.3 3467.57 4779.62 3455.86 4779.62 3432.55C4779.62 3409.47 4793.3 3397.99 4820.67 3397.99H4835.37V3188.08L4678.53 3467.57H4617.26C4589.89 3467.57 4576.21 3455.86 4576.21 3432.55C4576.21 3409.47 4589.89 3397.99 4617.26 3397.99ZM5130.79 3326.32V3397.99H5192.67C5207.89 3397.99 5218.61 3401.24 5224.94 3407.61C5231.17 3413.99 5234.33 3422.34 5234.33 3432.78C5234.33 3443.22 5231.17 3451.57 5224.94 3457.94C5218.61 3464.32 5207.89 3467.57 5192.67 3467.57H5059.72C5044.51 3467.57 5033.79 3464.32 5027.46 3457.83C5021.23 3451.33 5018.06 3442.87 5018.06 3432.43C5018.06 3421.99 5021.23 3413.64 5027.46 3407.38C5033.79 3401.12 5044.51 3397.99 5059.72 3397.99H5069.53V3125.23H5059.72C5044.51 3125.23 5033.79 3121.98 5027.46 3115.61C5021.23 3109.23 5018.06 3100.88 5018.06 3090.44C5018.06 3080 5021.23 3071.65 5027.46 3065.27C5033.79 3058.9 5044.51 3055.65 5059.72 3055.65H5201.05C5242.5 3055.65 5275.38 3068.52 5299.69 3094.27C5323.89 3120.01 5336.04 3151.32 5336.04 3188.2C5336.04 3208.61 5331.95 3227.98 5323.79 3246.07C5317.56 3259.64 5307.24 3273.09 5292.85 3286.31C5278.35 3299.65 5263.64 3309.62 5248.53 3316.23C5233.52 3322.96 5213.61 3326.32 5188.89 3326.32H5130.79ZM5130.79 3256.74H5187.67C5214.42 3256.74 5235.56 3249.9 5251.29 3236.1C5266.91 3222.41 5274.77 3205.83 5274.77 3186.58C5274.77 3170.23 5268.44 3155.85 5255.78 3143.67C5243.12 3131.38 5224.94 3125.23 5201.45 3125.23H5130.79V3256.74ZM5742.97 3261.72C5742.97 3323.65 5725.61 3375.14 5690.99 3416.31C5656.27 3457.48 5616.25 3478.01 5570.7 3478.01C5529.65 3478.01 5492.79 3460.84 5459.81 3426.63C5419.07 3384.3 5398.64 3329.33 5398.64 3261.72C5398.64 3194.23 5419.07 3139.15 5459.81 3096.59C5492.79 3062.38 5529.65 3045.21 5570.7 3045.21C5616.25 3045.21 5656.27 3065.74 5690.99 3106.91C5725.61 3148.08 5742.97 3199.68 5742.97 3261.72ZM5681.7 3261.72C5681.7 3219.4 5670.37 3184.26 5647.8 3156.43C5625.13 3128.71 5599.5 3114.79 5570.7 3114.79C5542.01 3114.79 5516.48 3128.71 5493.81 3156.66C5471.25 3184.49 5459.91 3219.63 5459.91 3261.72C5459.91 3303.94 5471.25 3338.96 5493.81 3366.79C5516.48 3394.51 5542.01 3408.42 5570.7 3408.42C5599.5 3408.42 5625.13 3394.62 5647.8 3366.91C5670.37 3339.19 5681.7 3304.17 5681.7 3261.72ZM5850.3 3397.99V3125.23H5840.5C5825.28 3125.23 5814.56 3121.98 5808.23 3115.61C5802 3109.23 5798.83 3100.88 5798.83 3090.44C5798.83 3080 5802 3071.65 5808.23 3065.27C5814.56 3058.9 5825.28 3055.65 5840.5 3055.65H5994.58C6031.34 3055.65 6060.85 3067.25 6083.22 3090.44C6105.58 3113.63 6116.81 3141.23 6116.81 3173.12C6116.81 3188.32 6114.16 3202.58 6108.95 3215.92C6103.64 3229.25 6095.67 3241.66 6084.95 3252.91C6104.35 3266.13 6118.96 3281.44 6128.66 3298.95C6138.36 3316.46 6143.16 3336.41 6143.16 3358.56C6143.16 3376.19 6139.69 3392.65 6132.64 3407.84C6127.53 3419.33 6121.1 3428.49 6113.54 3435.33C6103.33 3444.84 6090.88 3452.61 6076.07 3458.52C6061.37 3464.55 6042.88 3467.57 6020.72 3467.57H5840.5C5825.28 3467.57 5814.56 3464.32 5808.23 3457.83C5802 3451.33 5798.83 3442.87 5798.83 3432.43C5798.83 3421.99 5802 3413.64 5808.23 3407.38C5814.56 3401.12 5825.28 3397.99 5840.5 3397.99H5850.3ZM5911.57 3226.82H5979.06C6003.26 3226.82 6023.38 3219.86 6039.31 3206.06C6050.13 3196.67 6055.54 3185.07 6055.54 3171.27C6055.54 3158.98 6050.44 3148.19 6040.23 3139.03C6030.02 3129.87 6013.88 3125.23 5991.62 3125.23H5911.57V3226.82ZM5911.57 3397.99H6017.56C6042.47 3397.99 6060.04 3393.81 6070.25 3385.46C6078.01 3379.08 6081.89 3370.04 6081.89 3358.21C6081.89 3344.18 6074.23 3330.38 6058.81 3316.81C6043.5 3303.24 6021.44 3296.4 5992.64 3296.4H5911.57V3397.99ZM6454.2 3355.54H6305.83L6290.72 3397.99H6305.42C6320.74 3397.99 6331.57 3401.24 6337.9 3407.61C6344.13 3413.99 6347.29 3422.34 6347.29 3432.78C6347.29 3443.22 6344.13 3451.57 6337.9 3457.94C6331.57 3464.32 6320.74 3467.57 6305.42 3467.57H6224.76C6209.54 3467.57 6198.82 3464.32 6192.49 3457.83C6186.26 3451.33 6183.09 3442.87 6183.09 3432.43C6183.09 3421.99 6186.26 3413.64 6192.49 3407.38C6198.82 3401.12 6209.54 3397.99 6224.76 3397.99L6321.56 3125.23H6281.73C6266.52 3125.23 6255.8 3121.98 6249.47 3115.61C6243.24 3109.23 6240.07 3100.88 6240.07 3090.44C6240.07 3080 6243.24 3071.65 6249.47 3065.27C6255.8 3058.9 6266.52 3055.65 6281.73 3055.65H6413.26L6535.38 3397.99C6550.6 3397.99 6560.3 3400.07 6564.48 3404.25C6572.86 3412.83 6577.04 3422.34 6577.04 3432.78C6577.04 3443.22 6573.88 3451.57 6567.65 3457.94C6561.32 3464.32 6550.6 3467.57 6535.38 3467.57H6454.61C6439.29 3467.57 6428.57 3464.32 6422.24 3457.83C6416.01 3451.33 6412.85 3442.87 6412.85 3432.43C6412.85 3421.99 6416.01 3413.64 6422.24 3407.38C6428.57 3401.12 6439.29 3397.99 6454.61 3397.99H6469.32L6454.2 3355.54ZM6429.39 3285.96L6380.07 3147.73L6330.75 3285.96H6429.39ZM6851.64 3297.1H6720.52V3397.99H6730.33C6743.5 3397.99 6753.2 3401.24 6759.53 3407.61C6765.76 3413.99 6768.92 3422.34 6768.92 3432.78C6768.92 3443.22 6765.76 3451.57 6759.53 3457.94C6753.2 3464.32 6743.5 3467.57 6730.33 3467.57H6659.25C6646.08 3467.57 6636.38 3464.32 6630.05 3457.83C6623.82 3451.33 6620.66 3442.87 6620.66 3432.43C6620.66 3421.99 6624.84 3412.72 6633.32 3404.37C6637.4 3400.07 6646.08 3397.99 6659.25 3397.99V3125.23C6646.08 3125.23 6636.38 3121.98 6630.05 3115.61C6623.82 3109.23 6620.66 3100.88 6620.66 3090.44C6620.66 3080 6623.82 3071.65 6630.05 3065.27C6636.38 3058.9 6646.08 3055.65 6659.25 3055.65H6730.33C6743.5 3055.65 6753.2 3058.78 6759.53 3065.04C6765.76 3071.31 6768.92 3079.65 6768.92 3090.09C6768.92 3100.53 6765.76 3108.99 6759.53 3115.49C6753.2 3121.98 6743.5 3125.23 6730.33 3125.23H6720.52V3227.51H6851.64V3125.23H6841.83C6828.66 3125.23 6818.96 3121.98 6812.63 3115.61C6806.4 3109.23 6803.23 3100.88 6803.23 3090.44C6803.23 3080 6806.4 3071.65 6812.63 3065.27C6818.96 3058.9 6828.66 3055.65 6841.83 3055.65H6912.9C6926.08 3055.65 6935.78 3058.78 6942.11 3065.04C6948.34 3071.31 6951.5 3079.65 6951.5 3090.09C6951.5 3100.53 6948.34 3108.99 6942.11 3115.49C6935.78 3121.98 6926.08 3125.23 6912.9 3125.23V3397.99C6926.08 3397.99 6934.65 3400.07 6938.64 3404.25C6947.21 3412.83 6951.5 3422.34 6951.5 3432.78C6951.5 3443.22 6948.34 3451.57 6942.11 3457.94C6935.78 3464.32 6926.08 3467.57 6912.9 3467.57H6841.83C6828.66 3467.57 6818.96 3464.32 6812.63 3457.83C6806.4 3451.33 6803.23 3442.87 6803.23 3432.43C6803.23 3421.99 6806.4 3413.64 6812.63 3407.38C6818.96 3401.12 6828.66 3397.99 6841.83 3397.99H6851.64V3297.1ZM7044.13 3397.99V3125.23C7018.8 3125.23 7006.14 3113.52 7006.14 3090.21C7006.14 3067.13 7019.82 3055.65 7047.19 3055.65H7127.45C7154.82 3055.65 7168.5 3067.13 7168.5 3090.21C7168.5 3113.52 7154.82 3125.23 7127.45 3125.23H7105.4V3335.13L7262.24 3055.65H7333.31C7360.68 3055.65 7374.36 3067.13 7374.36 3090.21C7374.36 3113.52 7360.68 3125.23 7333.31 3125.23H7323.51V3397.99C7339.54 3397.99 7351.08 3400.66 7358.23 3405.99C7365.27 3411.32 7368.85 3420.14 7368.85 3432.55C7368.85 3455.86 7355.16 3467.57 7327.8 3467.57H7247.54C7220.17 3467.57 7206.49 3455.86 7206.49 3432.55C7206.49 3409.47 7220.17 3397.99 7247.54 3397.99H7262.24V3188.08L7105.4 3467.57H7044.13C7016.76 3467.57 7003.08 3455.86 7003.08 3432.55C7003.08 3409.47 7016.76 3397.99 7044.13 3397.99ZM7530.09 3295.7V3397.99H7686.32V3360.41C7686.32 3343.13 7689.18 3330.96 7694.9 3323.77C7700.62 3316.69 7708.07 3313.1 7717.26 3313.1C7726.45 3313.1 7733.81 3316.69 7739.32 3323.77C7744.83 3330.96 7747.59 3343.13 7747.59 3360.41V3467.57H7459.02C7443.81 3467.57 7433.08 3464.32 7426.75 3457.83C7420.52 3451.33 7417.36 3442.87 7417.36 3432.43C7417.36 3421.99 7420.52 3413.64 7426.75 3407.38C7433.08 3401.12 7443.81 3397.99 7459.02 3397.99H7468.82V3125.23H7459.02C7443.81 3125.23 7433.08 3121.98 7426.75 3115.61C7420.52 3109.23 7417.36 3100.88 7417.36 3090.44C7417.36 3080 7420.52 3071.65 7426.75 3065.27C7433.08 3058.9 7443.81 3055.65 7459.02 3055.65L7734.73 3056V3161.41C7734.73 3178.69 7731.97 3190.87 7726.45 3198.06C7720.94 3205.13 7713.59 3208.73 7704.4 3208.73C7695.21 3208.73 7687.75 3205.13 7682.03 3198.06C7676.32 3190.87 7673.46 3178.69 7673.46 3161.41V3125.23H7530.09V3226.12H7584.01C7584.01 3208.84 7585.84 3197.94 7589.62 3193.42C7597.28 3183.68 7605.76 3178.81 7614.95 3178.81C7624.14 3178.81 7631.49 3182.4 7637 3189.48C7642.52 3196.67 7645.27 3208.84 7645.27 3226.12V3295.7C7645.27 3312.98 7643.44 3324 7639.76 3328.64C7632.41 3338.26 7624.14 3343.02 7614.95 3343.02C7605.76 3343.02 7597.28 3338.15 7589.62 3328.41C7585.84 3323.88 7584.01 3312.98 7584.01 3295.7H7530.09ZM8452.98 3055.65V3141.93C8452.98 3173.01 8442.87 3188.55 8422.55 3188.55C8402.02 3188.55 8391.71 3173.01 8391.71 3141.93V3125.23H8235.48V3226.82H8313.9C8365.77 3226.82 8404.27 3238.07 8429.39 3260.45C8454.51 3282.83 8467.07 3314.37 8467.07 3355.2C8467.07 3430.11 8423.57 3467.57 8336.57 3467.57H8164.41C8137.04 3467.57 8123.36 3455.86 8123.36 3432.43C8123.36 3409.47 8137.04 3397.99 8164.41 3397.99H8174.21V3125.23H8164.41C8137.04 3125.23 8123.36 3113.63 8123.36 3090.44C8123.36 3067.25 8137.04 3055.65 8164.41 3055.65H8452.98ZM8235.48 3397.99H8341.47C8384.36 3397.99 8405.8 3382.68 8405.8 3352.06C8405.8 3314.95 8376.09 3296.4 8316.55 3296.4H8235.48V3397.99ZM8668.14 3326.32V3397.99H8730.02C8745.23 3397.99 8755.96 3401.24 8762.29 3407.61C8768.52 3413.99 8771.68 3422.34 8771.68 3432.78C8771.68 3443.22 8768.52 3451.57 8762.29 3457.94C8755.96 3464.32 8745.23 3467.57 8730.02 3467.57H8597.07C8581.85 3467.57 8571.13 3464.32 8564.8 3457.83C8558.57 3451.33 8555.41 3442.87 8555.41 3432.43C8555.41 3421.99 8558.57 3413.64 8564.8 3407.38C8571.13 3401.12 8581.85 3397.99 8597.07 3397.99H8606.87V3125.23H8597.07C8581.85 3125.23 8571.13 3121.98 8564.8 3115.61C8558.57 3109.23 8555.41 3100.88 8555.41 3090.44C8555.41 3080 8558.57 3071.65 8564.8 3065.27C8571.13 3058.9 8581.85 3055.65 8597.07 3055.65H8738.39C8779.85 3055.65 8812.73 3068.52 8837.03 3094.27C8861.23 3120.01 8873.38 3151.32 8873.38 3188.2C8873.38 3208.61 8869.3 3227.98 8861.13 3246.07C8854.9 3259.64 8844.59 3273.09 8830.19 3286.31C8815.69 3299.65 8800.99 3309.62 8785.87 3316.23C8770.86 3322.96 8750.95 3326.32 8726.24 3326.32H8668.14ZM8668.14 3256.74H8725.02C8751.77 3256.74 8772.91 3249.9 8788.63 3236.1C8804.26 3222.41 8812.12 3205.83 8812.12 3186.58C8812.12 3170.23 8805.79 3155.85 8793.12 3143.67C8780.46 3131.38 8762.29 3125.23 8738.8 3125.23H8668.14V3256.74ZM9280.31 3261.72C9280.31 3323.65 9262.95 3375.14 9228.34 3416.31C9193.62 3457.48 9153.59 3478.01 9108.05 3478.01C9067 3478.01 9030.14 3460.84 8997.16 3426.63C8956.41 3384.3 8935.99 3329.33 8935.99 3261.72C8935.99 3194.23 8956.41 3139.15 8997.16 3096.59C9030.14 3062.38 9067 3045.21 9108.05 3045.21C9153.59 3045.21 9193.62 3065.74 9228.34 3106.91C9262.95 3148.08 9280.31 3199.68 9280.31 3261.72ZM9219.05 3261.72C9219.05 3219.4 9207.71 3184.26 9185.15 3156.43C9162.48 3128.71 9136.85 3114.79 9108.05 3114.79C9079.36 3114.79 9053.83 3128.71 9031.16 3156.66C9008.59 3184.49 8997.26 3219.63 8997.26 3261.72C8997.26 3303.94 9008.59 3338.96 9031.16 3366.79C9053.83 3394.51 9079.36 3408.42 9108.05 3408.42C9136.85 3408.42 9162.48 3394.62 9185.15 3366.91C9207.71 3339.19 9219.05 3304.17 9219.05 3261.72ZM9580.03 3297.1H9448.91V3397.99H9458.71C9471.89 3397.99 9481.59 3401.24 9487.92 3407.61C9494.15 3413.99 9497.31 3422.34 9497.31 3432.78C9497.31 3443.22 9494.15 3451.57 9487.92 3457.94C9481.59 3464.32 9471.89 3467.57 9458.71 3467.57H9387.64C9374.47 3467.57 9364.77 3464.32 9358.44 3457.83C9352.21 3451.33 9349.05 3442.87 9349.05 3432.43C9349.05 3421.99 9353.23 3412.72 9361.71 3404.37C9365.79 3400.07 9374.47 3397.99 9387.64 3397.99V3125.23C9374.47 3125.23 9364.77 3121.98 9358.44 3115.61C9352.21 3109.23 9349.05 3100.88 9349.05 3090.44C9349.05 3080 9352.21 3071.65 9358.44 3065.27C9364.77 3058.9 9374.47 3055.65 9387.64 3055.65H9458.71C9471.89 3055.65 9481.59 3058.78 9487.92 3065.04C9494.15 3071.31 9497.31 3079.65 9497.31 3090.09C9497.31 3100.53 9494.15 3108.99 9487.92 3115.49C9481.59 3121.98 9471.89 3125.23 9458.71 3125.23H9448.91V3227.51H9580.03V3125.23H9570.22C9557.05 3125.23 9547.35 3121.98 9541.02 3115.61C9534.79 3109.23 9531.62 3100.88 9531.62 3090.44C9531.62 3080 9534.79 3071.65 9541.02 3065.27C9547.35 3058.9 9557.05 3055.65 9570.22 3055.65H9641.29C9654.47 3055.65 9664.17 3058.78 9670.5 3065.04C9676.73 3071.31 9679.89 3079.65 9679.89 3090.09C9679.89 3100.53 9676.73 3108.99 9670.5 3115.49C9664.17 3121.98 9654.47 3125.23 9641.29 3125.23V3397.99C9654.47 3397.99 9663.04 3400.07 9667.02 3404.25C9675.6 3412.83 9679.89 3422.34 9679.89 3432.78C9679.89 3443.22 9676.73 3451.57 9670.5 3457.94C9664.17 3464.32 9654.47 3467.57 9641.29 3467.57H9570.22C9557.05 3467.57 9547.35 3464.32 9541.02 3457.83C9534.79 3451.33 9531.62 3442.87 9531.62 3432.43C9531.62 3421.99 9534.79 3413.64 9541.02 3407.38C9547.35 3401.12 9557.05 3397.99 9570.22 3397.99H9580.03V3297.1ZM9772.52 3397.99V3125.23C9747.19 3125.23 9734.53 3113.52 9734.53 3090.21C9734.53 3067.13 9748.21 3055.65 9775.58 3055.65H9855.84C9883.21 3055.65 9896.89 3067.13 9896.89 3090.21C9896.89 3113.52 9883.21 3125.23 9855.84 3125.23H9833.78V3335.13L9990.63 3055.65H10061.7C10089.1 3055.65 10102.7 3067.13 10102.7 3090.21C10102.7 3113.52 10089.1 3125.23 10061.7 3125.23H10051.9V3397.99C10067.9 3397.99 10079.5 3400.66 10086.6 3405.99C10093.7 3411.32 10097.2 3420.14 10097.2 3432.55C10097.2 3455.86 10083.6 3467.57 10056.2 3467.57H9975.93C9948.56 3467.57 9934.88 3455.86 9934.88 3432.55C9934.88 3409.47 9948.56 3397.99 9975.93 3397.99H9990.63V3188.08L9833.78 3467.57H9772.52C9745.15 3467.57 9731.47 3455.86 9731.47 3432.55C9731.47 3409.47 9745.15 3397.99 9772.52 3397.99ZM10286.1 3326.32V3397.99H10347.9C10363.1 3397.99 10373.9 3401.24 10380.2 3407.61C10386.4 3413.99 10389.6 3422.34 10389.6 3432.78C10389.6 3443.22 10386.4 3451.57 10380.2 3457.94C10373.9 3464.32 10363.1 3467.57 10347.9 3467.57H10215C10199.8 3467.57 10189 3464.32 10182.7 3457.83C10176.5 3451.33 10173.3 3442.87 10173.3 3432.43C10173.3 3421.99 10176.5 3413.64 10182.7 3407.38C10189 3401.12 10199.8 3397.99 10215 3397.99H10224.8V3125.23H10215C10199.8 3125.23 10189 3121.98 10182.7 3115.61C10176.5 3109.23 10173.3 3100.88 10173.3 3090.44C10173.3 3080 10176.5 3071.65 10182.7 3065.27C10189 3058.9 10199.8 3055.65 10215 3055.65H10356.3C10397.8 3055.65 10430.6 3068.52 10454.9 3094.27C10479.1 3120.01 10491.3 3151.32 10491.3 3188.2C10491.3 3208.61 10487.2 3227.98 10479 3246.07C10472.8 3259.64 10462.5 3273.09 10448.1 3286.31C10433.6 3299.65 10418.9 3309.62 10403.8 3316.23C10388.8 3322.96 10368.9 3326.32 10344.2 3326.32H10286.1ZM10286.1 3256.74H10342.9C10369.7 3256.74 10390.8 3249.9 10406.5 3236.1C10422.2 3222.41 10430 3205.83 10430 3186.58C10430 3170.23 10423.7 3155.85 10411 3143.67C10398.4 3131.38 10380.2 3125.23 10356.7 3125.23H10286.1V3256.74ZM10898.2 3261.72C10898.2 3323.65 10880.9 3375.14 10846.3 3416.31C10811.5 3457.48 10771.5 3478.01 10726 3478.01C10684.9 3478.01 10648.1 3460.84 10615.1 3426.63C10574.3 3384.3 10553.9 3329.33 10553.9 3261.72C10553.9 3194.23 10574.3 3139.15 10615.1 3096.59C10648.1 3062.38 10684.9 3045.21 10726 3045.21C10771.5 3045.21 10811.5 3065.74 10846.3 3106.91C10880.9 3148.08 10898.2 3199.68 10898.2 3261.72ZM10837 3261.72C10837 3219.4 10825.6 3184.26 10803.1 3156.43C10780.4 3128.71 10754.8 3114.79 10726 3114.79C10697.3 3114.79 10671.7 3128.71 10649.1 3156.66C10626.5 3184.49 10615.2 3219.63 10615.2 3261.72C10615.2 3303.94 10626.5 3338.96 10649.1 3366.79C10671.7 3394.51 10697.3 3408.42 10726 3408.42C10754.8 3408.42 10780.4 3394.62 10803.1 3366.91C10825.6 3339.19 10837 3304.17 10837 3261.72ZM11005.6 3397.99V3125.23H10995.8C10980.5 3125.23 10969.8 3121.98 10963.5 3115.61C10957.3 3109.23 10954.1 3100.88 10954.1 3090.44C10954.1 3080 10957.3 3071.65 10963.5 3065.27C10969.8 3058.9 10980.5 3055.65 10995.8 3055.65H11149.8C11186.6 3055.65 11216.1 3067.25 11238.5 3090.44C11260.8 3113.63 11272.1 3141.23 11272.1 3173.12C11272.1 3188.32 11269.4 3202.58 11264.2 3215.92C11258.9 3229.25 11250.9 3241.66 11240.2 3252.91C11259.6 3266.13 11274.2 3281.44 11283.9 3298.95C11293.6 3316.46 11298.4 3336.41 11298.4 3358.56C11298.4 3376.19 11294.9 3392.65 11287.9 3407.84C11282.8 3419.33 11276.4 3428.49 11268.8 3435.33C11258.6 3444.84 11246.1 3452.61 11231.3 3458.52C11216.6 3464.55 11198.1 3467.57 11176 3467.57H10995.8C10980.5 3467.57 10969.8 3464.32 10963.5 3457.83C10957.3 3451.33 10954.1 3442.87 10954.1 3432.43C10954.1 3421.99 10957.3 3413.64 10963.5 3407.38C10969.8 3401.12 10980.5 3397.99 10995.8 3397.99H11005.6ZM11066.8 3226.82H11134.3C11158.5 3226.82 11178.6 3219.86 11194.6 3206.06C11205.4 3196.67 11210.8 3185.07 11210.8 3171.27C11210.8 3158.98 11205.7 3148.19 11195.5 3139.03C11185.3 3129.87 11169.1 3125.23 11146.9 3125.23H11066.8V3226.82ZM11066.8 3397.99H11172.8C11197.7 3397.99 11215.3 3393.81 11225.5 3385.46C11233.3 3379.08 11237.1 3370.04 11237.1 3358.21C11237.1 3344.18 11229.5 3330.38 11214.1 3316.81C11198.8 3303.24 11176.7 3296.4 11147.9 3296.4H11066.8V3397.99ZM11609.5 3355.54H11461.1L11446 3397.99H11460.7C11476 3397.99 11486.8 3401.24 11493.2 3407.61C11499.4 3413.99 11502.5 3422.34 11502.5 3432.78C11502.5 3443.22 11499.4 3451.57 11493.2 3457.94C11486.8 3464.32 11476 3467.57 11460.7 3467.57H11380C11364.8 3467.57 11354.1 3464.32 11347.7 3457.83C11341.5 3451.33 11338.4 3442.87 11338.4 3432.43C11338.4 3421.99 11341.5 3413.64 11347.7 3407.38C11354.1 3401.12 11364.8 3397.99 11380 3397.99L11476.8 3125.23H11437C11421.8 3125.23 11411.1 3121.98 11404.7 3115.61C11398.5 3109.23 11395.3 3100.88 11395.3 3090.44C11395.3 3080 11398.5 3071.65 11404.7 3065.27C11411.1 3058.9 11421.8 3055.65 11437 3055.65H11568.5L11690.6 3397.99C11705.9 3397.99 11715.6 3400.07 11719.7 3404.25C11728.1 3412.83 11732.3 3422.34 11732.3 3432.78C11732.3 3443.22 11729.1 3451.57 11722.9 3457.94C11716.6 3464.32 11705.9 3467.57 11690.6 3467.57H11609.9C11594.6 3467.57 11583.8 3464.32 11577.5 3457.83C11571.3 3451.33 11568.1 3442.87 11568.1 3432.43C11568.1 3421.99 11571.3 3413.64 11577.5 3407.38C11583.8 3401.12 11594.6 3397.99 11609.9 3397.99H11624.6L11609.5 3355.54ZM11584.6 3285.96L11535.3 3147.73L11486 3285.96H11584.6ZM12006.9 3297.1H11875.8V3397.99H11885.6C11898.8 3397.99 11908.5 3401.24 11914.8 3407.61C11921 3413.99 11924.2 3422.34 11924.2 3432.78C11924.2 3443.22 11921 3451.57 11914.8 3457.94C11908.5 3464.32 11898.8 3467.57 11885.6 3467.57H11814.5C11801.3 3467.57 11791.6 3464.32 11785.3 3457.83C11779.1 3451.33 11775.9 3442.87 11775.9 3432.43C11775.9 3421.99 11780.1 3412.72 11788.6 3404.37C11792.7 3400.07 11801.3 3397.99 11814.5 3397.99V3125.23C11801.3 3125.23 11791.6 3121.98 11785.3 3115.61C11779.1 3109.23 11775.9 3100.88 11775.9 3090.44C11775.9 3080 11779.1 3071.65 11785.3 3065.27C11791.6 3058.9 11801.3 3055.65 11814.5 3055.65H11885.6C11898.8 3055.65 11908.5 3058.78 11914.8 3065.04C11921 3071.31 11924.2 3079.65 11924.2 3090.09C11924.2 3100.53 11921 3108.99 11914.8 3115.49C11908.5 3121.98 11898.8 3125.23 11885.6 3125.23H11875.8V3227.51H12006.9V3125.23H11997.1C11983.9 3125.23 11974.2 3121.98 11967.9 3115.61C11961.7 3109.23 11958.5 3100.88 11958.5 3090.44C11958.5 3080 11961.7 3071.65 11967.9 3065.27C11974.2 3058.9 11983.9 3055.65 11997.1 3055.65H12068.2C12081.3 3055.65 12091 3058.78 12097.4 3065.04C12103.6 3071.31 12106.8 3079.65 12106.8 3090.09C12106.8 3100.53 12103.6 3108.99 12097.4 3115.49C12091 3121.98 12081.3 3125.23 12068.2 3125.23V3397.99C12081.3 3397.99 12089.9 3400.07 12093.9 3404.25C12102.5 3412.83 12106.8 3422.34 12106.8 3432.78C12106.8 3443.22 12103.6 3451.57 12097.4 3457.94C12091 3464.32 12081.3 3467.57 12068.2 3467.57H11997.1C11983.9 3467.57 11974.2 3464.32 11967.9 3457.83C11961.7 3451.33 11958.5 3442.87 11958.5 3432.43C11958.5 3421.99 11961.7 3413.64 11967.9 3407.38C11974.2 3401.12 11983.9 3397.99 11997.1 3397.99H12006.9V3297.1ZM12199.4 3397.99V3125.23C12174.1 3125.23 12161.4 3113.52 12161.4 3090.21C12161.4 3067.13 12175.1 3055.65 12202.4 3055.65H12282.7C12310.1 3055.65 12323.8 3067.13 12323.8 3090.21C12323.8 3113.52 12310.1 3125.23 12282.7 3125.23H12260.7V3335.13L12417.5 3055.65H12488.6C12515.9 3055.65 12529.6 3067.13 12529.6 3090.21C12529.6 3113.52 12515.9 3125.23 12488.6 3125.23H12478.8V3397.99C12494.8 3397.99 12506.3 3400.66 12513.5 3405.99C12520.5 3411.32 12524.1 3420.14 12524.1 3432.55C12524.1 3455.86 12510.4 3467.57 12483.1 3467.57H12402.8C12375.4 3467.57 12361.7 3455.86 12361.7 3432.55C12361.7 3409.47 12375.4 3397.99 12402.8 3397.99H12417.5V3188.08L12260.7 3467.57H12199.4C12172 3467.57 12158.3 3455.86 12158.3 3432.55C12158.3 3409.47 12172 3397.99 12199.4 3397.99ZM12685.4 3295.7V3397.99H12841.6V3360.41C12841.6 3343.13 12844.4 3330.96 12850.2 3323.77C12855.9 3316.69 12863.3 3313.1 12872.5 3313.1C12881.7 3313.1 12889.1 3316.69 12894.6 3323.77C12900.1 3330.96 12902.9 3343.13 12902.9 3360.41V3467.57H12614.3C12599.1 3467.57 12588.3 3464.32 12582 3457.83C12575.8 3451.33 12572.6 3442.87 12572.6 3432.43C12572.6 3421.99 12575.8 3413.64 12582 3407.38C12588.3 3401.12 12599.1 3397.99 12614.3 3397.99H12624.1V3125.23H12614.3C12599.1 3125.23 12588.3 3121.98 12582 3115.61C12575.8 3109.23 12572.6 3100.88 12572.6 3090.44C12572.6 3080 12575.8 3071.65 12582 3065.27C12588.3 3058.9 12599.1 3055.65 12614.3 3055.65L12890 3056V3161.41C12890 3178.69 12887.2 3190.87 12881.7 3198.06C12876.2 3205.13 12868.8 3208.73 12859.7 3208.73C12850.5 3208.73 12843 3205.13 12837.3 3198.06C12831.6 3190.87 12828.7 3178.69 12828.7 3161.41V3125.23H12685.4V3226.12H12739.3C12739.3 3208.84 12741.1 3197.94 12744.9 3193.42C12752.5 3183.68 12761 3178.81 12770.2 3178.81C12779.4 3178.81 12786.7 3182.4 12792.3 3189.48C12797.8 3196.67 12800.5 3208.84 12800.5 3226.12V3295.7C12800.5 3312.98 12798.7 3324 12795 3328.64C12787.7 3338.26 12779.4 3343.02 12770.2 3343.02C12761 3343.02 12752.5 3338.15 12744.9 3328.41C12741.1 3323.88 12739.3 3312.98 12739.3 3295.7H12685.4Z" fill="#3E4943" stroke="#55665E" stroke-width="2.83464" stroke-miterlimit="22.9256"/>
</svg>
