<svg width="510" height="159" viewBox="0 0 510 159" fill="none" xmlns="http://www.w3.org/2000/svg">
<path fill-rule="evenodd" clip-rule="evenodd" d="M82.3211 148.53L82.9721 149.063C82.5916 149.485 74.4465 145.659 73.3742 145.212C73.4619 145.069 73.2972 144.914 73.9121 144.963L75.758 145.462C78.2833 146.29 80.0819 147.445 82.3211 148.53ZM41.3124 149.216C41.9431 148.039 49.5994 144.737 50.6944 144.971C51.1864 145.076 50.8415 144.983 50.9755 145.183L41.3124 149.216ZM86.204 135.225C89.0594 134.807 91.8956 134.475 94.764 134.592C95.2724 134.613 95.6762 134.643 96.1643 134.708C97.5192 134.888 97.1351 134.791 97.2489 135.159C94.3061 135.115 91.6312 135.525 88.8224 135.546C88.353 135.55 87.887 135.522 87.418 135.506C87.1917 135.498 86.8738 135.516 86.6609 135.488C86.2966 135.441 86.3507 135.394 86.204 135.225ZM26.9684 135.035C27.8236 134.288 37.0545 134.581 37.7809 135.362C37.3184 135.682 27.3878 135.295 26.9684 135.035ZM72.1639 141.96C72.3062 140.96 72.8994 139.015 73.1797 138.01C73.4952 136.878 73.8998 135.444 74.2767 134.267C74.6635 133.06 74.9945 131.787 75.3938 130.567L76.4465 127.115C76.4872 128.262 75.0341 133.878 74.6811 135.034L72.9041 140.372C72.6566 141.093 72.5034 141.621 72.1639 141.96ZM48.4758 128.967C48.609 129.642 49.1187 131.264 49.3416 131.99C49.691 133.127 49.8951 133.945 50.233 135.074C50.517 136.023 52.4383 141.672 52.2022 142.403C51.9158 142.021 51.8598 141.844 51.7426 141.191C51.5122 140.398 51.0664 139.378 50.7371 138.392C50.0467 136.324 48.5725 131.483 48.1968 129.283L47.9178 128.103C47.8434 127.62 47.7654 127.44 47.9286 127.04L48.4758 128.967ZM86.3265 115.746L86.3893 117.862C86.3153 119.152 86.3582 120.548 86.2958 121.804C86.2014 123.708 85.589 131.596 85.1496 132.402C84.9375 131.892 85.188 129.573 85.2249 128.978C85.2976 127.808 85.3951 126.53 85.4575 125.374C85.5275 124.078 85.9383 116.536 86.3265 115.746ZM39.218 132.208C38.6619 131.732 37.4712 117.594 38.1727 115.995C38.3471 117.781 39.3591 131.332 39.218 132.208ZM97.3622 120.61C97.7179 120.31 99.0614 119.772 99.6437 119.505C101.424 118.69 105.498 117.311 107.187 117.528C106.808 117.969 103.203 119.048 102.416 119.262C100.806 119.701 99.0336 120.754 97.3622 120.61ZM25.7367 120.015C26.1992 120.1 26.7615 120.306 27.0499 120.632C26.9159 120.76 27.2311 120.745 26.71 120.812C26.6523 120.819 26.3709 120.779 26.298 120.766C26.1877 120.747 26.0455 120.724 25.9409 120.67C25.7697 120.582 25.7579 120.521 25.683 120.443C25.1249 120.458 19.626 118.549 18.234 118.054C17.8231 117.908 17.5799 117.878 17.2836 117.503C19.4791 117.383 23.8068 119.017 25.7367 120.015ZM28.305 118.708C28.093 117.529 28.4223 104.318 29.1148 103.04C29.1261 106.163 28.9075 111.964 28.7081 115.253C28.6577 116.084 28.737 118.479 28.305 118.708ZM95.952 118.57C95.8086 118.229 94.8402 103.739 95.1959 102.98C95.943 105.811 96.3275 117.31 95.952 118.57ZM18.3812 103.25C17.6535 103.089 15.02 100.901 14.11 100.276C13.3601 99.7603 12.8498 99.2778 12.0128 98.7195C11.5687 98.4233 11.3529 98.2597 10.9162 97.9074C10.717 97.7468 10.5772 97.65 10.4032 97.5281L9.9301 97.0348C11.4676 97.2375 18.0645 102.028 18.3812 103.25ZM107.893 101.251C109.744 99.6676 112.915 97.2022 114.928 96.7794L108.068 101.828C107.604 102.141 106.181 103.507 105.836 103.119L107.893 101.251ZM103.128 95.8682C103.291 96.6887 104.144 101.574 104.054 101.923C103.698 101.375 101.618 91.7512 101.525 90.3059C101.866 90.5622 101.898 90.5368 102.163 91.4157C102.684 93.1395 102.784 94.1397 103.128 95.8682ZM20.2795 101.886C20.1272 99.9868 22.2867 89.9672 23.454 86.9558C23.3817 88.062 22.9846 89.8005 22.7467 90.8973C22.1071 93.8464 21.1367 99.7182 20.2795 101.886ZM107.933 80.0544C108.313 80.5846 108.881 81.7921 109.062 82.7335C108.6 82.4747 108.596 82.2063 108.314 81.6031C107.573 80.0156 106.7 78.4372 105.918 76.8839C105.669 76.3898 105.501 76.1418 105.345 75.5546C105.939 75.8855 107.276 79.1396 107.933 80.0544ZM117.954 74.3641L114.841 78.8723C114.536 79.2946 114.413 79.5943 114.075 80.0048C113.346 80.8904 112.32 82.9514 111.574 83.2394C111.721 82.4564 112.742 81.0877 113.041 80.5649C113.523 79.723 113.82 79.2604 114.526 78.2321C115.516 76.7892 117.017 74.865 118.103 73.8195C118.23 73.6969 118.271 73.7124 118.43 73.6437C118.193 74.3996 118.364 74.1263 117.954 74.3641ZM12.3302 82.2729C12.6729 82.5997 13.225 83.6268 13.3416 84.1572C12.9879 83.9426 12.6427 83.4732 12.3954 83.0742C12.2267 82.8021 12.2403 82.7992 12.1392 82.5701C11.8336 82.4729 11.8946 82.4749 11.656 82.0623C11.4574 81.719 11.4982 81.7909 11.2706 81.5008L5.77779 73.5011C6.67869 73.8559 8.6897 76.6658 9.31262 77.5914C9.8592 78.4037 10.3535 79.1306 10.9064 79.9247C11.1726 80.3069 12.1221 81.7287 12.3302 82.2729ZM15.3261 82.8507C15.4109 81.5839 17.4261 77.269 17.9222 76.2225C18.8964 74.1671 19.9632 72.0295 21.0662 70.6009C20.9451 71.0137 20.6052 71.7718 20.434 72.1729C19.7875 73.688 15.5543 82.645 15.3261 82.8507ZM110.288 61.3372C109.756 61.282 108.701 59.8929 108.265 59.4229C107.398 58.4883 102.748 53.021 102.626 52.6568C104.145 53.2323 110.086 60.416 110.288 61.3372ZM14.1556 61.2595C14.5964 59.7219 20.7335 52.894 21.7518 52.5287C21.5316 53.0834 21.1857 53.4242 20.8358 53.7923C19.4943 55.204 14.8806 61.1269 14.1556 61.2595ZM8.20082 50.9223C8.29213 51.2569 8.57454 51.6494 8.76084 52.0844C9.73442 54.3576 10.3364 56.4993 11.1592 58.9123C11.3363 59.4315 12.0043 61.0735 11.801 61.6548C11.1739 60.0207 10.3882 58.3441 9.80599 56.5488C9.60096 55.9165 9.63021 55.5495 9.4604 54.9373C9.24917 54.176 8.22042 52.0075 8.03276 51.1519L7.80882 50.7217C7.79643 50.6865 7.78605 50.6438 7.77538 50.6083C7.70582 50.3765 7.7037 50.283 7.65912 50.0646C8.00474 50.3141 7.80332 50.0869 8.20082 50.9223ZM112.524 61.7772C112.309 62.1409 112.548 61.8428 112.277 62.0189C112.399 60.1242 115.342 52.7493 116.112 50.8458C116.552 49.7554 117.048 48.9171 117.508 47.8789C117.501 48.5354 114.549 56.5378 113.997 57.9498C113.629 58.8898 112.928 61.0933 112.524 61.7772ZM98.1869 37.0039C98.3247 36.8764 98.0488 36.8401 98.5265 36.836C99.1064 36.8313 102.757 38.8075 103.232 39.0701C104.184 39.5962 106.878 41.3984 107.654 42.2335C107.297 42.4992 103.602 40.1636 102.986 39.7607L98.1869 37.0039ZM17.7208 41.8112C17.4973 42.1859 16.9128 42.5255 16.5786 42.2335C16.8142 41.8519 17.1336 41.7223 17.5199 41.5762C17.9124 41.0929 25.1965 36.2289 26.0795 37.011C24.8829 37.6019 18.1487 41.7749 17.7208 41.8112ZM109.563 41.5293C109.245 40.5488 111.148 27.8552 111.94 26.4005C111.98 26.5309 112.011 26.4701 111.994 26.8146C111.99 26.8942 111.92 27.2527 111.907 27.3115C111.289 30.2088 110.26 39.8597 109.563 41.5293ZM14.6124 39.8442L14.7706 40.3937C14.8373 40.8176 14.8493 41.3501 14.7177 41.683C14.4722 41.2698 14.4263 40.4885 14.3663 39.8788C14.2751 38.713 13.9795 37.7749 13.7981 36.5926L12.3322 26.3406C12.5466 26.7107 12.6279 27.2248 12.7692 27.8144C13.4597 30.6961 14.7441 37.2489 14.6124 39.8442ZM93.7443 24.2296C94.5199 23.5094 100.403 24.9695 101.395 25.3027C101.93 25.4822 102.019 25.3038 102.21 25.8664C101.741 26.2059 98.7558 25.3519 98.001 25.1958L94.1362 24.5029C94.0327 24.4736 94.0021 24.4529 93.8889 24.3824C93.8707 24.371 93.8296 24.3627 93.8168 24.3097C93.8036 24.2549 93.7689 24.2556 93.7443 24.2296ZM22.094 25.8318C22.828 24.5732 29.9572 23.9913 31.5733 24.0814C31.2434 24.3851 22.9234 26.0045 22.094 25.8318ZM104.162 23.8132C103.952 22.9525 103.926 20.8336 103.918 19.8105C103.913 19.1008 103.919 18.392 103.914 17.6828L103.936 16.047C103.974 15.7791 104.015 15.7644 104.054 15.669C104.187 16.0325 104.197 16.1497 104.229 16.5584C104.329 17.8281 104.151 17.8873 104.198 19.0197C104.348 20.2051 104.228 19.5151 104.162 23.8132ZM20.0987 14.6473C20.0983 13.5098 19.9317 9.6209 20.3678 9.10448L20.6006 12.4065C20.4799 15.4959 20.701 22.0756 20.1592 24.5269C20.0715 22.795 20.008 21.2587 20.0317 19.4829C20.0513 18.0111 20.2021 16.0645 20.0987 14.6473ZM98.2556 13.9525C97.6541 13.7308 90.7607 6.70533 90.4987 6.01969C91.8614 6.44889 95.2628 10.2147 96.5492 11.7049C96.956 12.1762 98.0819 13.3605 98.2556 13.9525ZM26.0505 13.926C26.5032 12.6918 32.6318 6.38538 33.9603 5.90865C33.7107 6.426 30.7033 9.50321 30.1146 10.0777C29.2875 10.8849 26.6117 13.8797 26.0505 13.926ZM46.6653 142.167C46.9475 142.496 46.9353 142.446 46.4686 142.474C44.8717 142.356 41.9338 144.386 40.7243 145.627C39.077 147.317 37.7928 149.268 36.6736 151.566C36.9392 151.898 40.8254 153.181 41.5095 153.372C45.5088 154.489 47.9623 154.762 51.3929 151.319C53.5008 149.203 53.7283 147.57 54.4707 146.702L58.2845 148.62C58.0528 148.853 57.9714 148.851 57.7072 148.956C56.2454 149.536 54.8298 150.37 53.4702 151.36C52.4754 152.084 50.0891 154.358 49.6996 155.658C49.9346 156.336 50.6495 157.203 51.0139 157.434C51.7703 156.753 52.6948 154.667 55.9725 152.847C56.9737 152.291 61.3099 150.064 62.1412 150.063C62.7978 150.063 67.4871 152.396 68.3077 152.847C70.2143 153.896 71.8518 155.596 73.2669 157.464C73.7401 157.206 74.4956 156.089 74.7327 155.543C73.1572 153.737 73.4991 153.449 70.8844 151.401C69.3217 150.178 67.7066 149.561 65.9893 148.681C66.6052 148.084 67.271 147.96 67.9686 147.613C68.5218 147.338 69.4073 146.834 69.9181 146.712C70.1468 147.063 70.2684 147.486 70.4955 147.909C70.7215 148.33 70.9542 148.722 71.1984 149.134C72.6295 151.553 74.8542 153.559 77.1099 153.944C80.3425 154.495 83.3507 153.224 86.3932 152.129L87.5725 151.566C87.2651 150.616 86.1752 148.86 85.7331 148.227C82.0025 142.885 77.8657 142.544 77.63 142.237C78.1142 141.622 79.6866 140.68 80.3794 140.08C80.8727 139.653 82.801 137.908 83.2052 137.797C83.5551 138.643 83.5067 138.616 84.0114 139.216C86.6961 142.406 90.053 143.672 93.4227 142.493C96.4008 141.452 99.1026 138.954 101.461 136.181C101.817 135.762 102.18 135.351 102.466 134.871L101.309 133.622C100.799 133.196 100.461 132.915 100.051 132.58C96.6893 129.838 93.6094 130.241 89.9646 130.834C90.1449 130.356 92.996 126.799 93.6575 125.994C94.1086 125.444 94.4023 124.896 94.8718 124.264C95.8291 124.47 99.536 129.193 105.262 125.074C107.429 123.515 109.095 121.051 110.925 118.771C111.252 118.364 112.481 116.836 112.662 116.377C112.041 115.264 108.263 113.865 106.863 113.727C105.098 113.554 103.476 113.982 101.822 114.651C101.369 114.833 100.861 115.241 100.382 115.394C100.649 114.544 101.843 112.459 102.287 111.572C102.88 110.387 103.636 108.924 104.04 107.528C104.782 107.568 105.851 108.055 106.753 108.202C111.87 109.037 115.468 102.598 118.056 96.8366C118.378 96.1184 119.193 94.7511 119.29 93.955C115.925 92.7031 111.93 93.2316 108.955 96.1442C108.629 96.4639 108.176 97.0607 107.859 97.2076L108.999 92.9396C109.302 91.8824 109.699 89.2632 110.103 88.5938C110.721 88.1522 115.123 89.3008 118.548 82.6882C119.593 80.6719 122.041 72.2438 122.076 69.2435C120.186 67.8129 116.316 71.1054 114.796 72.7492C114.011 73.5988 113.376 74.7102 112.69 75.7774C112.448 76.1538 112.063 77.1975 111.745 77.4199C111.75 74.6517 112.138 69.5178 112.307 66.5127L114.382 65.2556C116.175 63.96 118.147 61.3661 118.956 58.4365C120.341 53.4195 120.237 47.3207 120.165 41.9821C118.68 42.3028 115.892 45.6017 114.963 47.1411C112.257 51.628 112.301 54.5131 111.832 55.4349C111.568 54.8113 111.351 51.7124 111.212 50.6691C111.03 49.2906 110.533 47.2999 110.498 45.9396C111.812 44.8194 112.748 43.3829 113.599 41.4754C115.663 36.8529 115.758 32.2653 114.796 26.7668C114.389 24.4418 113.971 21.623 113.42 19.5382C111.925 20.0464 109.135 26.2082 108.509 29.5147C108.277 30.7407 107.871 33.0258 107.861 34.2948C107.777 34.848 107.939 34.4878 107.682 34.7923L107.492 34.1447C107.124 32.1724 105.969 30.1065 105.666 28.4851C105.883 27.9792 106.121 27.7517 106.431 27.3393C106.838 26.7966 106.748 26.6844 107.03 25.9587C109.489 19.6302 108.847 14.1724 106.571 7.97671C106.288 7.20643 104.459 2.26559 104.27 2.01425C103.471 2.94614 102.13 7.09356 101.761 9.13717C100.867 14.0886 101.446 14.6544 101.494 19.0093C101.129 18.7239 101.004 18.2395 100.708 17.6796C99.2242 14.8718 100.536 16.2862 99.2004 12.429C98.0291 9.04537 96.399 6.68259 94.3159 4.77455C91.8028 2.47267 89.179 1.86232 86.1347 2.02925C86.23 3.63659 89.56 12.0474 90.3358 13.4265C93.9723 19.8908 98.0215 18.173 98.7492 18.6989C99.0615 19.203 100.125 21.0287 100.245 21.7291C98.6158 21.3712 97.6465 19.7563 93.6823 20.4587C92.0381 20.75 89.234 22.3989 88.0181 23.6536C89.803 25.9346 92.6236 29.138 94.7388 30.4932C97.0277 31.9595 99.2445 32.6177 101.875 31.2454C102.455 30.9425 103.495 30.0558 104.054 30.126C104.489 30.9947 106.396 36.9102 106.43 37.6198L103.818 35.373C103.14 34.8267 101.627 34.0895 100.754 33.8018C99.6607 33.4414 98.1344 33.2997 96.9401 33.4762C96.3656 33.5612 95.7353 33.6739 95.1945 33.8741C94.9261 33.9735 94.732 34.1008 94.4463 34.2228C94.1628 34.3438 93.895 34.4114 93.6952 34.7046C94.2114 36.0736 96.8137 40.4888 97.7702 41.9338C99.3513 44.322 100.822 46.379 103.328 47.1165C106.262 47.9806 106.162 47.1925 108.588 46.8388C109.098 48.9791 109.72 53.4956 109.811 56.0004C108.712 55.1099 106.424 48.2307 98.3782 48.2394C98.7367 50.8198 101.496 58.6843 102.401 60.4509C103.363 62.329 104.077 63.3556 105.619 64.5749C107.256 65.8703 108.723 65.8328 110.386 66.5138C110.459 69.9329 110.103 73.7818 109.847 77.0598C109.126 76.7796 107.836 70.3286 103.36 66.8503C102.587 66.2495 101.107 65.1748 100.176 65.012C100.218 66.1809 100.361 67.6651 100.474 68.7792C100.605 70.0641 100.656 71.3865 100.787 72.7318C101.539 80.4539 103.126 84.3566 108.153 87.5736C108.151 88.1998 107.206 92.007 107.001 92.6929C106.761 93.4975 106.569 94.3816 106.35 95.1342C106.149 95.8264 105.956 96.8532 105.566 97.333C105.385 96.4322 105.43 94.2387 104.896 91.6881C104.193 88.3264 103.048 85.6572 101.529 83.2116C101.145 82.5934 99.5524 80.4754 98.9889 80.2122C98.8617 82.7557 98.3407 84.9534 98.102 87.4043C97.837 90.1262 97.694 92.6035 97.8877 95.4252C98.0516 97.8142 98.8325 100.086 99.5862 101.542C101.795 105.484 101.111 103.828 102.478 105.902C102.383 106.345 102.169 106.725 102.017 107.071C101.477 108.301 98.777 114.184 98.2162 114.57C98.2558 112.485 98.543 111.777 98.4801 108.515C98.4126 105.006 97.5527 101.397 96.3526 98.5813C95.9953 97.7429 94.8891 95.2395 94.4397 94.8851C94.364 95.012 94.3554 94.9805 94.278 95.1863C94.2304 95.3128 94.1931 95.4829 94.1549 95.6378C93.6912 97.5203 92.9961 99.341 92.4738 101.128C90.5805 107.602 89.967 112.791 92.2988 119.128C92.7288 120.297 93.1926 120.888 93.5763 121.941C93.3037 122.806 91.5312 124.901 90.9781 125.697C90.7028 126.093 88.355 129.025 88.0889 129.122C88.2132 127.599 88.776 125.606 88.9407 123.743C89.3787 118.788 88.7036 113.125 86.947 108.906L86.4459 107.855C85.9447 108.475 84.2478 112.405 83.7754 113.477C81.2768 119.145 79.3996 124.921 81.1094 131.835C81.2935 132.58 81.9973 134.771 82.0395 135.413C80.6928 136.252 76.1798 140.506 75.1522 140.553C75.6872 139.215 76.3745 138.175 76.8916 136.76C78.7634 131.635 79.1689 125.976 78.1797 120.233C77.2894 120.618 74.6262 124.143 73.6635 125.325C70.5906 129.097 68.8459 133.136 68.9308 139.619C68.9477 140.904 69.3127 142.968 69.2521 143.873C68.6172 144.336 62.7837 146.95 62.1329 146.958C61.5314 146.966 55.5472 144.279 54.9401 143.833C55.1099 140.917 55.8599 140.396 55.1928 135.437C54.2406 128.359 50.3538 125.266 47.036 121.093C46.7832 120.775 46.3746 120.244 46.1218 120.247C45.1615 127.642 45.5401 132.375 48.1625 138.539C48.5103 139.356 48.8923 139.7 49.0728 140.462C48.5483 140.392 46.0105 138.449 45.5521 138.082C44.4856 137.226 43.3153 136.035 42.2349 135.398C42.331 134.473 42.9622 132.952 43.1724 132.001C45.084 123.346 42.4337 117.251 39.234 110.656L37.8349 107.809C37.8128 107.837 37.7779 107.835 37.7691 107.895L37.3987 108.842C35.3733 114.823 34.6831 119.873 35.7666 126.704C35.8893 127.478 36.282 128.75 36.2838 129.234C35.9081 128.996 30.9763 122.968 30.703 121.941C31.3998 120.029 31.9965 120.038 32.9327 116.147C34.6163 109.149 32.6613 104.29 30.8923 98.0925C30.7306 97.5261 30.5995 97.0465 30.4148 96.5095C30.2343 95.9848 30.0946 95.2926 29.8411 94.9431C28.6829 96.2381 27.2764 100.28 26.7392 102.355C26.2959 104.067 26.0878 105.185 25.9405 107.21L25.9736 112.843C25.9958 113.182 26.0181 113.522 26.0404 113.861L26.1439 114.703L25.7149 114.015C24.8525 112.423 22.2785 107.803 21.877 105.902C22.8283 104.279 23.4379 104.206 24.7205 101.578C26.8465 97.2227 26.6966 92.6756 26.1704 87.41C26.0373 86.0778 25.4981 81.1115 25.196 80.2357C23.8463 81.0212 21.555 85.1521 20.768 87.0815C20.293 88.2458 19.6565 90.2549 19.3934 91.682C19.1048 93.2469 18.9515 95.097 18.7942 96.7256L18.6065 97.3834C18.2923 96.7458 16.2008 88.5806 16.2062 87.5704C16.6923 87.076 17.5304 86.8295 18.1432 86.215C19.8725 84.4809 21.4956 82.6484 22.2954 79.5706C23.4312 75.1995 23.9186 69.8959 24.1408 65.0513C22.1996 65.3019 19.6256 67.8421 18.272 69.7117C15.7219 73.2338 15.8094 74.6981 14.7614 77.3225C14.6824 77.5203 14.6735 77.5031 14.6097 77.6083C14.192 76.4157 13.909 68.2999 13.9214 66.3872C17.1752 66.3335 20.1198 64.1354 21.9638 60.4109C23.2 57.914 24.2389 54.5719 25.0591 51.5183C25.2907 50.6563 25.8993 49.0479 25.9574 48.2931C22.157 47.8247 18.0726 50.3169 15.5823 54.3444C15.3167 54.7738 14.7611 55.7966 14.4836 56.0025C14.4713 54.4411 15.3775 48.1603 15.7041 46.8425C16.3484 46.8711 17.3545 47.3707 18.1703 47.4535C23.3865 47.9824 26.4234 42.5119 29.3709 37.1007C29.7702 36.3677 30.4485 35.41 30.6887 34.5739C27.3163 33.0944 23.7646 32.7983 20.4616 35.3869C20.0471 35.7118 19.5384 36.0868 19.1215 36.4678C18.6568 36.8925 18.3028 37.5069 17.889 37.7502C17.9047 36.8557 19.8637 31.0437 20.3349 30.0966C20.9246 30.1241 21.7859 30.8828 22.4156 31.2291C27.1396 33.8269 31.1569 29.4349 34.7016 25.538C35.141 25.0551 36.162 24.1676 36.3468 23.541C34.4289 22.5505 33.7244 21.201 30.8095 20.497C29.7581 20.2431 28.3152 20.269 27.2514 20.4725C26.0317 20.7058 25.0834 21.4792 24.0698 21.6588C24.2956 20.7419 25.1523 19.4083 25.597 18.6597C27.7971 18.5151 28.5051 18.5273 30.5963 17.3447C31.3322 16.9285 31.8718 16.3388 32.4285 15.7118C33.1855 14.8592 33.3879 14.391 33.947 13.4266C34.8547 11.8605 38.1075 3.55396 38.2631 2.00119C35.9528 1.98615 34.3583 2.10077 32.3196 3.09484C30.9009 3.78661 28.9244 5.66555 28.1059 6.86829C27.102 8.34333 25.8163 10.1473 25.0954 12.4626C24.9139 13.0452 24.7694 13.4938 24.5987 14.1619C24.3645 15.0784 24.4153 15.3771 24.2665 16.3018C24.1951 16.7457 22.9998 18.9177 22.8505 19.1226C22.885 15.0265 23.559 14.5278 22.6186 9.48988C22.3394 7.99366 22.0084 6.76713 21.5838 5.47888L20.1189 2.08413C19.6154 2.73117 18.0835 7.11606 17.7833 7.92634C17.0118 10.0091 16.4865 11.9214 15.9644 14.4923C15.0693 18.8996 16.1035 23.7059 17.8622 27.1588C18.1282 27.681 18.3719 27.9356 18.6163 28.4851C18.5409 28.9105 16.7369 34.3088 16.5541 34.6571C16.313 34.1204 16.3712 32.9619 16.2787 32.1424C15.8589 28.4216 14.601 24.9132 13.0103 22.2344C12.6692 21.6598 11.3572 19.6288 10.9368 19.3209C10.6518 19.8277 9.66113 26.0212 9.57425 26.6031C9.18121 29.2342 8.76684 31.8288 8.95127 34.7894C9.39377 41.8917 13.7644 45.8788 13.8139 46.1615C13.7252 47.2993 13.356 49.3367 13.1725 50.5202C12.9079 52.2252 12.7846 53.2837 12.6274 55.1167C12.0827 54.0682 11.74 52.0424 11.1524 50.9074C9.22215 47.1795 9.86035 47.2975 6.97914 44.1399C6.51683 43.6332 4.75837 42.1236 4.13458 41.9427C4.05913 43.2967 4.08101 49.6904 4.20278 50.9861C4.46912 53.8202 4.62926 55.9991 5.34691 58.4015C6.00346 60.5992 7.02723 62.1109 8.07653 63.4241C9.83608 65.6261 10.9294 65.4899 12.0178 66.6204L12.2197 72.0238C12.3141 73.822 12.5112 75.5093 12.5753 77.2925C12.1802 76.9939 10.7389 73.7336 8.25866 71.4938C6.93277 70.2964 3.90869 68.542 2 68.612L3.53074 75.8706C4.7567 80.5649 5.92386 84.5055 9.05986 86.8093C10.8467 88.1218 12.0314 88.4889 14.2856 88.5808L15.8512 95.0155C16.0548 95.6761 16.3456 96.4128 16.4286 97.0485C15.9553 96.92 15.7499 96.5081 15.3365 96.1229C12.3183 93.31 8.30382 92.5555 4.91859 93.9953C5.16973 94.7947 7.12059 98.6969 7.50946 99.4733C9.50451 103.456 11.231 106.722 14.7704 107.8C18.3052 108.876 17.8026 107.806 20.2462 107.532C20.9282 109.507 22.0064 111.537 22.8996 113.309C23.0523 113.612 23.2023 113.958 23.3563 114.257C23.6007 114.732 23.7113 114.679 23.901 115.262C22.5279 115.022 21.0025 113.374 17.4143 113.726C14.461 114.016 13.6505 115.268 11.5756 116.211C11.8344 117.112 16.2465 122.42 16.872 123.099C20.5826 127.126 23.9396 127.78 28.2489 125.078C28.7222 124.781 29.044 124.336 29.409 124.229L34.4583 130.902C33.4895 130.874 32.2749 130.319 30.8133 130.309C27.8261 130.289 25.1924 131.631 22.7093 133.886C22.494 134.082 21.5983 134.968 21.4506 135.199C22.2549 136.445 26.7445 140.124 28.1602 141.032C33.0201 144.148 36.0207 143.362 40.2796 139.23C40.7172 138.805 40.8142 138.449 41.1837 137.855C42.6256 138.426 45.1754 141.695 46.6653 142.167Z" fill="white" stroke="white" stroke-width="1.88976" stroke-miterlimit="22.9256"/>
<path fill-rule="evenodd" clip-rule="evenodd" d="M37.4615 38.813C37.4208 44.1624 37.6666 48.9358 37.7647 54.0931C37.946 63.6265 38.7838 69.5612 40.598 78.3391C42.5498 87.7829 47.2068 98.2673 51.4167 104.524C52.2157 105.711 52.9805 106.677 53.8693 107.848C54.7813 109.049 55.5697 110.07 56.4594 111.123C57.8254 112.74 57.9981 112.682 59.2471 113.935C60.0225 114.713 61.5464 116.329 62.4768 115.666C65.2401 113.696 65.9885 112.755 68.1721 110.232C71.8845 105.941 74.7037 101.463 77.4031 95.7347C81.5938 86.8421 84.274 76.9388 85.5328 65.473C85.9793 61.4056 86.155 56.624 86.3014 52.4503C86.3814 50.1702 86.7448 40.4487 86.5696 38.826C84.3503 37.9094 81.9748 37.7569 79.7703 36.9843C74.4659 35.1254 72.6787 34.6117 67.5892 31.2437C60.7971 26.749 63.1284 26.4495 59.2647 29.3022C56.9434 31.0161 53.1396 33.5166 50.7633 34.5766C48.6328 35.5271 46.6389 36.3467 44.3591 36.9813C42.0716 37.6181 39.6366 38.0323 37.4615 38.813ZM40.5989 43.2913C41.0586 42.8031 42.8566 42.4993 43.4855 42.3376C44.456 42.0883 45.5605 41.7993 46.4806 41.5214C50.9132 40.1825 53.1365 39.2632 57.2206 36.5088C58.0725 35.9342 58.8114 35.5578 59.6369 34.9202C63.1024 32.2434 61.0606 32.6626 66.876 36.3953C70.3162 38.6034 73.7554 40.5691 77.5495 41.5134C78.5535 41.7634 79.5739 41.9637 80.6508 42.2551C81.2762 42.4243 83.134 42.8476 83.5963 43.1277C84.0109 46.8414 83.0468 62.225 82.6703 66.5317C81.5588 79.2459 77.2126 91.5553 71.7393 100.086C70.0972 102.645 64.405 110.007 62.1926 110.64C61.3622 110.877 57.6461 107.108 56.9372 106.308C49.9338 98.4139 46.2854 89.5061 43.1598 77.1257C41.5238 70.6454 41.1225 62.6838 40.8016 55.5783C40.6672 52.6021 40.4673 46.0505 40.5989 43.2913Z" fill="white" stroke="white" stroke-width="1.88976" stroke-miterlimit="22.9256"/>
<path fill-rule="evenodd" clip-rule="evenodd" d="M40.438 42.7588C40.9016 42.2664 42.7149 41.96 43.3492 41.7969C44.3278 41.5454 45.4418 41.254 46.3698 40.9737C50.8402 39.6234 53.0824 38.6962 57.2013 35.9184C58.0605 35.3389 58.8057 34.9593 59.6383 34.3162C63.1333 31.6166 61.0741 32.0395 66.9391 35.8039C70.4086 38.0309 73.8771 40.0133 77.7035 40.9657C78.7161 41.2178 79.7452 41.4198 80.8312 41.7137C81.462 41.8843 83.3357 42.3112 83.8019 42.5937C84.22 46.3391 83.2477 61.8538 82.8679 66.1973C81.7471 79.0198 77.3638 91.4341 71.8438 100.037C70.1877 102.618 64.447 110.043 62.2158 110.681C61.3782 110.921 57.6305 107.119 56.9155 106.313C49.8524 98.3512 46.1729 89.3675 43.0207 76.8815C41.3708 70.346 40.966 62.3165 40.6424 55.1505C40.5068 52.1489 40.3052 45.5415 40.438 42.7588Z" fill="black" fill-opacity="0.05" stroke="white" stroke-width="1.88976" stroke-miterlimit="22.9256"/>
<path d="M52.7685 78.2345C52.7685 80.1386 52.4819 80.5729 51.115 80.7733L50.8945 82.2765C50.8945 82.2765 52.3276 82.2431 53.4299 82.2431C54.4001 82.2431 56.1418 82.3433 56.1418 82.3433L56.3402 80.8067L56.2961 80.6731C56.2961 80.6731 55.7449 80.7733 55.304 80.7733C54.5323 80.7733 54.2898 80.3056 54.3339 78.5018L54.5985 64.1712C54.6205 62.9018 54.9512 62.4341 56.0536 62.1669L56.1418 60.6637C56.1418 60.6637 54.7307 60.9643 53.7827 60.9643C52.9449 60.9643 51.3355 60.8641 51.3355 60.8641L51.1811 62.3339L51.2252 62.4675C51.2252 62.4675 51.7103 62.4007 51.9748 62.4007C52.6363 62.4007 52.7906 62.7682 52.7906 64.2046L52.7685 78.2345ZM54.9733 71.7206L58.8315 79.8379C59.6914 81.6418 60.5733 82.7108 61.3009 82.7108C61.5434 82.7108 63.1308 82.3099 63.1308 82.3099L63.2631 81.1742L63.1749 81.0405C62.1386 81.0405 61.4111 80.2722 60.3528 78.2011L56.6489 70.8855L60.1985 65.2401C61.5213 63.169 61.9623 62.6679 62.7339 62.4341L62.8883 61.0645L62.8001 60.8307C62.8001 60.8307 61.6316 60.9643 60.7717 60.9643C59.956 60.9643 58.3465 60.7305 58.3465 60.7305L58.1922 62.1669L58.2363 62.3005C59.1843 62.4007 59.6252 62.7348 59.6252 63.3027C59.6252 63.7703 59.4048 64.3382 58.9418 65.0397L54.9953 71.253L54.9733 71.7206ZM67.7329 82.6439C70.9298 82.6439 73.1787 79.9382 73.1787 76.13C73.1787 73.0902 71.018 71.5536 69.0999 70.0504C67.5345 68.8144 66.1014 67.5785 66.1014 65.5741C66.1014 63.7369 67.27 62.3673 68.8794 62.3673C70.8637 62.3673 71.5031 63.1356 71.5031 65.474C71.5031 66.5095 71.4369 67.211 71.4369 67.211L71.5692 67.378L72.429 67.2444C72.5613 64.1712 72.9141 61.599 72.9141 61.599L72.8479 61.3986C72.8479 61.3986 71.4369 60.5635 69.4747 60.5635C66.6085 60.5635 64.4038 63.2692 64.4038 66.7767C64.4038 69.6829 66.2337 71.2195 67.9975 72.6226C69.6952 73.9587 71.3487 75.1613 71.3487 77.3326C71.3487 79.6041 70.1141 81.0071 68.2841 81.0071C65.903 81.0071 65.418 80.005 65.418 75.1947L64.4258 75.3617C64.4258 78.602 64.1613 81.1742 64.1613 81.1742L64.2715 81.5082C64.2715 81.5082 65.6605 82.6439 67.7329 82.6439Z" fill="#55665E" stroke="#55665E" stroke-width="1.88976" stroke-miterlimit="22.9256"/>
<path d="M143.969 118.239C147.924 118.239 155.225 119.592 158.977 119.743C174.999 119.743 185.443 107.863 185.443 89.6681C185.443 77.488 179.258 70.4205 171.145 67.2627C177.534 62.3004 181.996 54.7818 181.996 44.2558C181.996 29.0682 174.492 20.9481 160.498 20.9481C160.498 20.9481 148.532 21.7 144.983 21.7C141.434 21.7 130.888 21.3992 130.888 21.3992L129.975 30.5719L130.584 31.7749C130.584 31.7749 132.814 31.4742 134.031 31.4742C136.566 31.4742 137.378 33.429 137.378 38.9928L137.276 97.6378C137.276 105.457 135.654 108.014 129.874 109.517L129.062 119.743C129.062 119.743 138.189 118.239 143.969 118.239ZM160.194 75.9843C166.886 78.2398 170.436 83.8036 170.436 91.7733C170.436 101.247 166.582 106.811 159.991 106.811C153.095 106.811 150.459 104.254 150.459 97.9386L150.864 76.1346L160.194 75.9843ZM151.067 62.7515C151.169 56.2855 151.473 44.4062 151.879 36.1357C151.98 34.0305 152.386 33.429 153.704 33.429C163.236 33.429 167.698 38.0905 167.698 48.1655C167.698 60.496 160.701 64.1049 160.701 64.1049C158.774 64.1049 151.067 62.7515 151.067 62.7515ZM208.58 82.751L209.29 38.9928C209.493 33.7298 210.709 31.7749 214.968 31.0231L215.678 20.7977C215.678 20.7977 207.769 21.7 203.611 21.7C197.831 21.7 189.11 21.2489 189.11 21.2489L188.198 31.1734L188.4 31.7749C188.4 31.7749 190.53 31.4742 191.645 31.4742C194.282 31.4742 194.89 32.9779 194.89 39.5942V87.5629C194.89 109.216 202.8 120.043 218.416 120.043C235.351 120.043 244.579 107.713 244.579 85.157V38.3913C244.579 33.5794 245.39 32.5268 250.46 30.8727L251.068 20.7977C251.068 20.7977 244.173 21.7 239.001 21.7C235.148 21.7 227.137 21.2489 227.137 21.2489L226.326 31.1734L226.529 31.7749C226.529 31.7749 228.759 31.4742 229.875 31.4742C232.41 31.4742 233.018 32.9779 233.12 39.5942C233.12 39.5942 233.525 76.8865 233.525 86.8111C233.525 99.8934 229.368 106.359 221.154 106.359C213.042 106.359 208.58 97.7882 208.58 82.751ZM302.7 82.9014C302.7 82.9014 288.807 52.9774 275.625 21.0985C275.625 21.0985 270.25 21.7 265.89 21.7C260.921 21.7 254.127 20.9481 254.127 20.9481L253.417 29.6697L254.228 31.1734C260.819 32.226 262.442 34.0305 262.442 40.4965L261.124 99.8934C261.022 105.908 259.197 108.615 255.141 109.367L254.33 119.442C254.33 119.442 261.327 118.239 266.802 118.239C271.163 118.239 279.884 118.84 279.884 118.84L280.898 109.216L280.289 108.164C280.289 108.164 277.044 108.615 275.929 108.615C273.394 108.615 272.481 106.811 272.481 101.848L272.582 55.5337H273.596C273.596 55.5337 287.387 85.0066 303.105 122.299L313.854 120.344L315.172 40.4965C315.274 34.4816 317.099 31.9253 321.561 31.0231L322.068 20.9481C322.068 20.9481 315.071 21.7 310.102 21.7C305.64 21.7 297.021 21.0985 297.021 21.0985L296.311 30.4216L296.717 31.6245C297.122 31.6245 298.745 31.4742 300.164 31.4742C302.497 31.4742 303.409 33.2786 303.511 37.9402L303.714 82.9014H302.7ZM332.833 97.1867C332.833 105.608 331.616 107.713 325.735 109.066L324.822 118.69C324.822 118.69 333.239 118.239 338.917 118.239C343.278 118.239 353.52 118.69 353.52 118.69L354.432 109.066L354.026 108.014C354.026 108.014 352.1 108.465 350.072 108.465C346.928 108.465 346.016 106.51 346.218 98.2393L347.131 39.4439C347.232 33.8801 348.551 32.226 353.52 30.7223L354.128 20.6474C354.128 20.6474 344.494 21.7 340.134 21.7C337.193 21.7 326.444 21.3992 326.444 21.3992L325.633 30.4216L326.14 31.6245C326.14 31.6245 328.067 31.4742 329.284 31.4742C332.225 31.4742 332.934 32.9779 332.934 39.2935L332.833 97.1867ZM348.145 70.7213L363.457 107.863C367.108 116.585 370.454 120.494 374.713 120.494C376.538 120.494 386.577 118.69 386.577 118.69L387.389 110.72L386.78 109.367C382.217 108.916 379.175 105.307 375.22 96.2845L361.835 65.9094L372.279 48.4662C378.059 38.2409 381.304 33.8801 385.563 31.3238L386.375 22.7526L385.665 21.0985C385.665 21.0985 377.654 21.7 373.8 21.7C369.643 21.7 361.125 20.9481 361.125 20.9481L360.314 30.2712L360.618 31.3238C364.471 31.6245 365.992 32.9779 365.992 35.9853C365.992 38.0905 365.08 40.7972 363.356 43.3536L348.449 67.4131L348.145 70.7213ZM410.12 97.3371C410.12 93.277 410.221 87.2622 410.424 76.285C412.148 75.9843 415.088 75.3828 418.13 75.3828C423.201 75.3828 431.313 75.8339 431.313 75.8339L432.733 62.9019L431.921 61.5486C431.921 61.5486 423.505 62.7515 420.159 62.7515C417.218 62.7515 412.857 62.6012 410.728 62.6012L411.438 39.2935C411.539 34.7823 412.046 34.3313 416.812 34.3313C428.169 34.3313 429.589 35.5342 429.589 43.8047C429.589 45.9099 429.386 49.8196 429.386 49.8196L438.716 48.9173C439.223 34.9327 441.048 21.5496 441.048 21.5496L440.237 19.8955C434.051 21.0985 423.809 21.7 409.41 21.7C401.804 21.7 390.65 21.2489 390.65 21.2489L389.839 30.4216L390.548 31.7749C390.548 31.7749 392.475 31.4742 393.591 31.4742C396.328 31.4742 396.937 33.1283 396.937 39.5942L396.835 96.5852C396.835 105.307 395.112 108.314 389.534 109.517L388.723 119.743C388.723 119.743 397.343 118.239 406.368 118.239C418.942 118.239 438.006 119.291 438.006 119.291L438.918 117.637C439.932 103.202 441.758 89.6681 441.758 89.6681L441.048 88.1644L432.428 89.217C431.009 104.254 429.184 106.359 416.609 106.359C410.829 106.359 410.12 105.307 410.12 97.3371ZM475.136 80.4954L483.857 106.66C486.798 115.983 490.448 120.645 494.91 120.645L506.977 118.991L507.687 111.021L506.977 109.668C502.718 109.668 499.473 105.608 495.721 96.5852L486.899 75.5331C495.62 68.7664 500.487 58.6915 500.487 46.8121C500.487 30.1208 491.969 20.9481 476.454 20.9481C476.454 20.9481 465.097 21.7 460.939 21.7C456.985 21.7 448.162 21.3992 448.162 21.3992L447.351 30.5719L447.858 31.7749C447.858 31.7749 449.988 31.4742 451.407 31.4742C453.942 31.4742 454.652 33.1032 454.652 38.8173L454.551 96.6103C454.551 105.182 453.03 107.713 447.351 108.916L446.439 118.991C446.439 118.991 454.754 118.088 460.939 118.239C465.503 118.239 474.528 118.54 474.528 118.69L475.542 109.367L475.136 108.465C468.646 108.164 467.936 106.961 467.936 96.911L468.038 80.3952L475.136 80.4954ZM468.342 66.8868C468.443 57.7392 468.646 48.7168 469.153 36.7121C469.255 34.0305 469.559 33.429 470.978 33.429C481.22 33.429 486.088 38.692 486.088 49.6692C486.088 63.0523 479.598 67.1123 477.468 68.4657L468.342 66.8868Z" fill="white" stroke="white" stroke-width="2.83464" stroke-miterlimit="22.9256"/>
<path d="M140.937 139.063V151.033H142.531C143.122 151.033 143.539 151.176 143.785 151.456C144.027 151.736 144.15 152.102 144.15 152.56C144.15 153.018 144.027 153.385 143.785 153.665C143.539 153.944 143.122 154.087 142.531 154.087H136.962C136.371 154.087 135.954 153.944 135.708 153.659C135.466 153.374 135.343 153.003 135.343 152.545C135.343 152.087 135.466 151.72 135.708 151.446C135.954 151.171 136.371 151.033 136.962 151.033H138.556V139.063H135.962V141.964C135.962 142.723 135.851 143.257 135.633 143.572C135.415 143.883 135.129 144.041 134.772 144.041C134.415 144.041 134.129 143.883 133.911 143.572C133.693 143.257 133.582 142.723 133.582 141.964V136.01H145.935V141.964C145.935 142.723 145.824 143.257 145.605 143.572C145.387 143.883 145.102 144.041 144.745 144.041C144.388 144.041 144.102 143.883 143.884 143.572C143.666 143.257 143.555 142.723 143.555 141.964V139.063H140.937ZM162.171 145.053C162.171 147.771 161.497 150.031 160.152 151.837C158.803 153.644 157.249 154.545 155.479 154.545C153.885 154.545 152.453 153.792 151.171 152.29C149.589 150.433 148.795 148.02 148.795 145.053C148.795 142.091 149.589 139.674 151.171 137.806C152.453 136.305 153.885 135.552 155.479 135.552C157.249 135.552 158.803 136.453 160.152 138.259C161.497 140.066 162.171 142.331 162.171 145.053ZM159.791 145.053C159.791 143.196 159.351 141.654 158.474 140.432C157.594 139.216 156.598 138.605 155.479 138.605C154.365 138.605 153.373 139.216 152.492 140.443C151.616 141.664 151.175 143.206 151.175 145.053C151.175 146.906 151.616 148.443 152.492 149.664C153.373 150.881 154.365 151.491 155.479 151.491C156.598 151.491 157.594 150.886 158.474 149.669C159.351 148.453 159.791 146.916 159.791 145.053ZM173.814 146.606H168.721V151.033H169.102C169.613 151.033 169.99 151.176 170.236 151.456C170.478 151.736 170.601 152.102 170.601 152.56C170.601 153.018 170.478 153.385 170.236 153.665C169.99 153.944 169.613 154.087 169.102 154.087H166.341C165.829 154.087 165.452 153.944 165.206 153.659C164.964 153.374 164.841 153.003 164.841 152.545C164.841 152.087 165.004 151.68 165.333 151.313C165.492 151.125 165.829 151.033 166.341 151.033V139.063C165.829 139.063 165.452 138.921 165.206 138.641C164.964 138.361 164.841 137.995 164.841 137.537C164.841 137.079 164.964 136.712 165.206 136.432C165.452 136.152 165.829 136.01 166.341 136.01H169.102C169.613 136.01 169.99 136.147 170.236 136.422C170.478 136.697 170.601 137.063 170.601 137.521C170.601 137.979 170.478 138.351 170.236 138.636C169.99 138.921 169.613 139.063 169.102 139.063H168.721V143.552H173.814V139.063H173.434C172.922 139.063 172.545 138.921 172.299 138.641C172.057 138.361 171.934 137.995 171.934 137.537C171.934 137.079 172.057 136.712 172.299 136.432C172.545 136.152 172.922 136.01 173.434 136.01H176.194C176.706 136.01 177.083 136.147 177.329 136.422C177.571 136.697 177.694 137.063 177.694 137.521C177.694 137.979 177.571 138.351 177.329 138.636C177.083 138.921 176.706 139.063 176.194 139.063V151.033C176.706 151.033 177.039 151.125 177.194 151.308C177.527 151.685 177.694 152.102 177.694 152.56C177.694 153.018 177.571 153.385 177.329 153.665C177.083 153.944 176.706 154.087 176.194 154.087H173.434C172.922 154.087 172.545 153.944 172.299 153.659C172.057 153.374 171.934 153.003 171.934 152.545C171.934 152.087 172.057 151.72 172.299 151.446C172.545 151.171 172.922 151.033 173.434 151.033H173.814V146.606ZM181.292 151.033V139.063C180.308 139.063 179.817 138.549 179.817 137.526C179.817 136.514 180.348 136.01 181.411 136.01H184.529C185.592 136.01 186.124 136.514 186.124 137.526C186.124 138.549 185.592 139.063 184.529 139.063H183.672V148.275L189.765 136.01H192.526C193.589 136.01 194.121 136.514 194.121 137.526C194.121 138.549 193.589 139.063 192.526 139.063H192.145V151.033C192.768 151.033 193.216 151.15 193.494 151.384C193.768 151.619 193.907 152.005 193.907 152.55C193.907 153.573 193.375 154.087 192.312 154.087H189.194C188.131 154.087 187.599 153.573 187.599 152.55C187.599 151.537 188.131 151.033 189.194 151.033H189.765V141.822L183.672 154.087H181.292C180.229 154.087 179.698 153.573 179.698 152.55C179.698 151.537 180.229 151.033 181.292 151.033ZM201.242 147.888V151.033H203.646C204.237 151.033 204.653 151.176 204.899 151.456C205.141 151.736 205.264 152.102 205.264 152.56C205.264 153.018 205.141 153.385 204.899 153.665C204.653 153.944 204.237 154.087 203.646 154.087H198.481C197.89 154.087 197.473 153.944 197.227 153.659C196.985 153.374 196.862 153.003 196.862 152.545C196.862 152.087 196.985 151.72 197.227 151.446C197.473 151.171 197.89 151.033 198.481 151.033H198.862V139.063H198.481C197.89 139.063 197.473 138.921 197.227 138.641C196.985 138.361 196.862 137.995 196.862 137.537C196.862 137.079 196.985 136.712 197.227 136.432C197.473 136.152 197.89 136.01 198.481 136.01H203.971C205.582 136.01 206.859 136.575 207.803 137.704C208.743 138.834 209.215 140.208 209.215 141.827C209.215 142.723 209.056 143.572 208.739 144.366C208.497 144.962 208.096 145.552 207.537 146.132C206.974 146.718 206.403 147.155 205.816 147.445C205.232 147.741 204.459 147.888 203.499 147.888H201.242ZM201.242 144.835H203.451C204.491 144.835 205.312 144.534 205.923 143.929C206.53 143.328 206.835 142.6 206.835 141.756C206.835 141.038 206.589 140.407 206.097 139.873C205.605 139.333 204.899 139.063 203.987 139.063H201.242V144.835ZM225.023 145.053C225.023 147.771 224.349 150.031 223.004 151.837C221.655 153.644 220.1 154.545 218.331 154.545C216.737 154.545 215.305 153.792 214.023 152.29C212.441 150.433 211.647 148.02 211.647 145.053C211.647 142.091 212.441 139.674 214.023 137.806C215.305 136.305 216.737 135.552 218.331 135.552C220.1 135.552 221.655 136.453 223.004 138.259C224.349 140.066 225.023 142.331 225.023 145.053ZM222.643 145.053C222.643 143.196 222.203 141.654 221.326 140.432C220.446 139.216 219.45 138.605 218.331 138.605C217.217 138.605 216.225 139.216 215.344 140.443C214.468 141.664 214.027 143.206 214.027 145.053C214.027 146.906 214.468 148.443 215.344 149.664C216.225 150.881 217.217 151.491 218.331 151.491C219.45 151.491 220.446 150.886 221.326 149.669C222.203 148.453 222.643 146.916 222.643 145.053ZM229.193 151.033V139.063H228.812C228.221 139.063 227.804 138.921 227.558 138.641C227.317 138.361 227.194 137.995 227.194 137.537C227.194 137.079 227.317 136.712 227.558 136.432C227.804 136.152 228.221 136.01 228.812 136.01H234.798C236.226 136.01 237.372 136.519 238.241 137.537C239.11 138.554 239.546 139.766 239.546 141.165C239.546 141.832 239.443 142.458 239.241 143.043C239.035 143.628 238.725 144.173 238.309 144.667C239.062 145.247 239.63 145.919 240.006 146.687C240.383 147.456 240.57 148.331 240.57 149.303C240.57 150.077 240.435 150.799 240.161 151.466C239.963 151.97 239.713 152.372 239.419 152.672C239.023 153.089 238.539 153.43 237.963 153.69C237.392 153.955 236.674 154.087 235.813 154.087H228.812C228.221 154.087 227.804 153.944 227.558 153.659C227.317 153.374 227.194 153.003 227.194 152.545C227.194 152.087 227.317 151.72 227.558 151.446C227.804 151.171 228.221 151.033 228.812 151.033H229.193ZM231.573 143.522H234.195C235.135 143.522 235.917 143.216 236.535 142.611C236.956 142.198 237.166 141.689 237.166 141.084C237.166 140.544 236.968 140.071 236.571 139.669C236.174 139.267 235.548 139.063 234.683 139.063H231.573V143.522ZM231.573 151.033H235.69C236.658 151.033 237.341 150.85 237.737 150.484C238.039 150.204 238.19 149.807 238.19 149.288C238.19 148.672 237.892 148.066 237.293 147.471C236.698 146.875 235.841 146.575 234.723 146.575H231.573V151.033ZM252.653 149.171H246.889L246.302 151.033H246.873C247.468 151.033 247.889 151.176 248.135 151.456C248.377 151.736 248.5 152.102 248.5 152.56C248.5 153.018 248.377 153.385 248.135 153.665C247.889 153.944 247.468 154.087 246.873 154.087H243.74C243.149 154.087 242.732 153.944 242.486 153.659C242.244 153.374 242.121 153.003 242.121 152.545C242.121 152.087 242.244 151.72 242.486 151.446C242.732 151.171 243.149 151.033 243.74 151.033L247.5 139.063H245.953C245.362 139.063 244.945 138.921 244.7 138.641C244.458 138.361 244.335 137.995 244.335 137.537C244.335 137.079 244.458 136.712 244.7 136.432C244.945 136.152 245.362 136.01 245.953 136.01H251.062L255.807 151.033C256.398 151.033 256.775 151.125 256.937 151.308C257.262 151.685 257.425 152.102 257.425 152.56C257.425 153.018 257.302 153.385 257.06 153.665C256.814 153.944 256.398 154.087 255.807 154.087H252.669C252.074 154.087 251.657 153.944 251.411 153.659C251.169 153.374 251.046 153.003 251.046 152.545C251.046 152.087 251.169 151.72 251.411 151.446C251.657 151.171 252.074 151.033 252.669 151.033H253.24L252.653 149.171ZM251.689 146.117L249.773 140.051L247.857 146.117H251.689ZM268.092 146.606H262.999V151.033H263.38C263.891 151.033 264.268 151.176 264.514 151.456C264.756 151.736 264.879 152.102 264.879 152.56C264.879 153.018 264.756 153.385 264.514 153.665C264.268 153.944 263.891 154.087 263.38 154.087H260.619C260.107 154.087 259.73 153.944 259.484 153.659C259.242 153.374 259.119 153.003 259.119 152.545C259.119 152.087 259.282 151.68 259.611 151.313C259.77 151.125 260.107 151.033 260.619 151.033V139.063C260.107 139.063 259.73 138.921 259.484 138.641C259.242 138.361 259.119 137.995 259.119 137.537C259.119 137.079 259.242 136.712 259.484 136.432C259.73 136.152 260.107 136.01 260.619 136.01H263.38C263.891 136.01 264.268 136.147 264.514 136.422C264.756 136.697 264.879 137.063 264.879 137.521C264.879 137.979 264.756 138.351 264.514 138.636C264.268 138.921 263.891 139.063 263.38 139.063H262.999V143.552H268.092V139.063H267.711C267.2 139.063 266.823 138.921 266.577 138.641C266.335 138.361 266.212 137.995 266.212 137.537C266.212 137.079 266.335 136.712 266.577 136.432C266.823 136.152 267.2 136.01 267.711 136.01H270.472C270.984 136.01 271.361 136.147 271.607 136.422C271.849 136.697 271.972 137.063 271.972 137.521C271.972 137.979 271.849 138.351 271.607 138.636C271.361 138.921 270.984 139.063 270.472 139.063V151.033C270.984 151.033 271.317 151.125 271.472 151.308C271.805 151.685 271.972 152.102 271.972 152.56C271.972 153.018 271.849 153.385 271.607 153.665C271.361 153.944 270.984 154.087 270.472 154.087H267.711C267.2 154.087 266.823 153.944 266.577 153.659C266.335 153.374 266.212 153.003 266.212 152.545C266.212 152.087 266.335 151.72 266.577 151.446C266.823 151.171 267.2 151.033 267.711 151.033H268.092V146.606ZM275.57 151.033V139.063C274.586 139.063 274.095 138.549 274.095 137.526C274.095 136.514 274.626 136.01 275.689 136.01H278.807C279.87 136.01 280.402 136.514 280.402 137.526C280.402 138.549 279.87 139.063 278.807 139.063H277.95V148.275L284.043 136.01H286.804C287.867 136.01 288.399 136.514 288.399 137.526C288.399 138.549 287.867 139.063 286.804 139.063H286.423V151.033C287.046 151.033 287.494 151.15 287.772 151.384C288.046 151.619 288.185 152.005 288.185 152.55C288.185 153.573 287.653 154.087 286.59 154.087H283.472C282.409 154.087 281.877 153.573 281.877 152.55C281.877 151.537 282.409 151.033 283.472 151.033H284.043V141.822L277.95 154.087H275.57C274.507 154.087 273.975 153.573 273.975 152.55C273.975 151.537 274.507 151.033 275.57 151.033ZM294.449 146.545V151.033H300.518V149.384C300.518 148.626 300.629 148.092 300.851 147.776C301.073 147.466 301.363 147.308 301.72 147.308C302.077 147.308 302.362 147.466 302.577 147.776C302.791 148.092 302.898 148.626 302.898 149.384V154.087H291.688C291.097 154.087 290.68 153.944 290.434 153.659C290.192 153.374 290.069 153.003 290.069 152.545C290.069 152.087 290.192 151.72 290.434 151.446C290.68 151.171 291.097 151.033 291.688 151.033H292.069V139.063H291.688C291.097 139.063 290.68 138.921 290.434 138.641C290.192 138.361 290.069 137.995 290.069 137.537C290.069 137.079 290.192 136.712 290.434 136.432C290.68 136.152 291.097 136.01 291.688 136.01L302.398 136.025V140.651C302.398 141.41 302.291 141.944 302.077 142.259C301.863 142.57 301.577 142.728 301.22 142.728C300.863 142.728 300.573 142.57 300.351 142.259C300.129 141.944 300.018 141.41 300.018 140.651V139.063H294.449V143.491H296.543C296.543 142.733 296.615 142.254 296.761 142.056C297.059 141.628 297.388 141.415 297.745 141.415C298.102 141.415 298.388 141.572 298.602 141.883C298.816 142.198 298.923 142.733 298.923 143.491V146.545C298.923 147.303 298.852 147.786 298.709 147.99C298.423 148.412 298.102 148.621 297.745 148.621C297.388 148.621 297.059 148.407 296.761 147.98C296.615 147.781 296.543 147.303 296.543 146.545H294.449ZM330.301 136.01V139.796C330.301 141.16 329.908 141.842 329.118 141.842C328.321 141.842 327.92 141.16 327.92 139.796V139.063H321.851V143.522H324.898C326.913 143.522 328.408 144.015 329.384 144.997C330.36 145.98 330.848 147.364 330.848 149.155C330.848 152.443 329.158 154.087 325.778 154.087H319.09C318.027 154.087 317.496 153.573 317.496 152.545C317.496 151.537 318.027 151.033 319.09 151.033H319.471V139.063H319.09C318.027 139.063 317.496 138.554 317.496 137.537C317.496 136.519 318.027 136.01 319.09 136.01H330.301ZM321.851 151.033H325.969C327.635 151.033 328.468 150.362 328.468 149.018C328.468 147.389 327.313 146.575 325.001 146.575H321.851V151.033ZM338.659 147.888V151.033H341.063C341.654 151.033 342.07 151.176 342.316 151.456C342.558 151.736 342.681 152.102 342.681 152.56C342.681 153.018 342.558 153.385 342.316 153.665C342.07 153.944 341.654 154.087 341.063 154.087H335.898C335.307 154.087 334.891 153.944 334.645 153.659C334.403 153.374 334.28 153.003 334.28 152.545C334.28 152.087 334.403 151.72 334.645 151.446C334.891 151.171 335.307 151.033 335.898 151.033H336.279V139.063H335.898C335.307 139.063 334.891 138.921 334.645 138.641C334.403 138.361 334.28 137.995 334.28 137.537C334.28 137.079 334.403 136.712 334.645 136.432C334.891 136.152 335.307 136.01 335.898 136.01H341.388C342.999 136.01 344.276 136.575 345.22 137.704C346.16 138.834 346.632 140.208 346.632 141.827C346.632 142.723 346.474 143.572 346.156 144.366C345.914 144.962 345.514 145.552 344.954 146.132C344.391 146.718 343.82 147.155 343.233 147.445C342.65 147.741 341.876 147.888 340.916 147.888H338.659ZM338.659 144.835H340.869C341.908 144.835 342.729 144.534 343.34 143.929C343.947 143.328 344.252 142.6 344.252 141.756C344.252 141.038 344.006 140.407 343.514 139.873C343.023 139.333 342.316 139.063 341.404 139.063H338.659V144.835ZM362.441 145.053C362.441 147.771 361.766 150.031 360.421 151.837C359.073 153.644 357.518 154.545 355.748 154.545C354.154 154.545 352.722 153.792 351.441 152.29C349.858 150.433 349.064 148.02 349.064 145.053C349.064 142.091 349.858 139.674 351.441 137.806C352.722 136.305 354.154 135.552 355.748 135.552C357.518 135.552 359.073 136.453 360.421 138.259C361.766 140.066 362.441 142.331 362.441 145.053ZM360.06 145.053C360.06 143.196 359.62 141.654 358.743 140.432C357.863 139.216 356.867 138.605 355.748 138.605C354.634 138.605 353.642 139.216 352.761 140.443C351.885 141.664 351.444 143.206 351.444 145.053C351.444 146.906 351.885 148.443 352.761 149.664C353.642 150.881 354.634 151.491 355.748 151.491C356.867 151.491 357.863 150.886 358.743 149.669C359.62 148.453 360.06 146.916 360.06 145.053ZM374.084 146.606H368.99V151.033H369.371C369.883 151.033 370.26 151.176 370.505 151.456C370.747 151.736 370.87 152.102 370.87 152.56C370.87 153.018 370.747 153.385 370.505 153.665C370.26 153.944 369.883 154.087 369.371 154.087H366.61C366.098 154.087 365.721 153.944 365.476 153.659C365.234 153.374 365.111 153.003 365.111 152.545C365.111 152.087 365.273 151.68 365.602 151.313C365.761 151.125 366.098 151.033 366.61 151.033V139.063C366.098 139.063 365.721 138.921 365.476 138.641C365.234 138.361 365.111 137.995 365.111 137.537C365.111 137.079 365.234 136.712 365.476 136.432C365.721 136.152 366.098 136.01 366.61 136.01H369.371C369.883 136.01 370.26 136.147 370.505 136.422C370.747 136.697 370.87 137.063 370.87 137.521C370.87 137.979 370.747 138.351 370.505 138.636C370.26 138.921 369.883 139.063 369.371 139.063H368.99V143.552H374.084V139.063H373.703C373.191 139.063 372.814 138.921 372.568 138.641C372.326 138.361 372.203 137.995 372.203 137.537C372.203 137.079 372.326 136.712 372.568 136.432C372.814 136.152 373.191 136.01 373.703 136.01H376.464C376.975 136.01 377.352 136.147 377.598 136.422C377.84 136.697 377.963 137.063 377.963 137.521C377.963 137.979 377.84 138.351 377.598 138.636C377.352 138.921 376.975 139.063 376.464 139.063V151.033C376.975 151.033 377.309 151.125 377.463 151.308C377.796 151.685 377.963 152.102 377.963 152.56C377.963 153.018 377.84 153.385 377.598 153.665C377.352 153.944 376.975 154.087 376.464 154.087H373.703C373.191 154.087 372.814 153.944 372.568 153.659C372.326 153.374 372.203 153.003 372.203 152.545C372.203 152.087 372.326 151.72 372.568 151.446C372.814 151.171 373.191 151.033 373.703 151.033H374.084V146.606ZM381.561 151.033V139.063C380.578 139.063 380.086 138.549 380.086 137.526C380.086 136.514 380.617 136.01 381.68 136.01H384.798C385.861 136.01 386.393 136.514 386.393 137.526C386.393 138.549 385.861 139.063 384.798 139.063H383.942V148.275L390.035 136.01H392.795C393.859 136.01 394.39 136.514 394.39 137.526C394.39 138.549 393.859 139.063 392.795 139.063H392.415V151.033C393.037 151.033 393.486 151.15 393.763 151.384C394.037 151.619 394.176 152.005 394.176 152.55C394.176 153.573 393.644 154.087 392.581 154.087H389.463C388.4 154.087 387.869 153.573 387.869 152.55C387.869 151.537 388.4 151.033 389.463 151.033H390.035V141.822L383.942 154.087H381.561C380.498 154.087 379.967 153.573 379.967 152.55C379.967 151.537 380.498 151.033 381.561 151.033ZM401.511 147.888V151.033H403.915C404.506 151.033 404.922 151.176 405.168 151.456C405.41 151.736 405.533 152.102 405.533 152.56C405.533 153.018 405.41 153.385 405.168 153.665C404.922 153.944 404.506 154.087 403.915 154.087H398.75C398.159 154.087 397.743 153.944 397.497 153.659C397.255 153.374 397.132 153.003 397.132 152.545C397.132 152.087 397.255 151.72 397.497 151.446C397.743 151.171 398.159 151.033 398.75 151.033H399.131V139.063H398.75C398.159 139.063 397.743 138.921 397.497 138.641C397.255 138.361 397.132 137.995 397.132 137.537C397.132 137.079 397.255 136.712 397.497 136.432C397.743 136.152 398.159 136.01 398.75 136.01H404.24C405.851 136.01 407.128 136.575 408.072 137.704C409.012 138.834 409.484 140.208 409.484 141.827C409.484 142.723 409.326 143.572 409.008 144.366C408.766 144.962 408.366 145.552 407.806 146.132C407.243 146.718 406.672 147.155 406.085 147.445C405.502 147.741 404.728 147.888 403.768 147.888H401.511ZM401.511 144.835H403.72C404.76 144.835 405.581 144.534 406.192 143.929C406.799 143.328 407.104 142.6 407.104 141.756C407.104 141.038 406.858 140.407 406.366 139.873C405.875 139.333 405.168 139.063 404.256 139.063H401.511V144.835ZM425.292 145.053C425.292 147.771 424.618 150.031 423.273 151.837C421.925 153.644 420.37 154.545 418.6 154.545C417.006 154.545 415.574 153.792 414.292 152.29C412.71 150.433 411.916 148.02 411.916 145.053C411.916 142.091 412.71 139.674 414.292 137.806C415.574 136.305 417.006 135.552 418.6 135.552C420.37 135.552 421.925 136.453 423.273 138.259C424.618 140.066 425.292 142.331 425.292 145.053ZM422.912 145.053C422.912 143.196 422.472 141.654 421.595 140.432C420.715 139.216 419.719 138.605 418.6 138.605C417.486 138.605 416.494 139.216 415.613 140.443C414.737 141.664 414.296 143.206 414.296 145.053C414.296 146.906 414.737 148.443 415.613 149.664C416.494 150.881 417.486 151.491 418.6 151.491C419.719 151.491 420.715 150.886 421.595 149.669C422.472 148.453 422.912 146.916 422.912 145.053ZM429.462 151.033V139.063H429.081C428.49 139.063 428.074 138.921 427.828 138.641C427.586 138.361 427.463 137.995 427.463 137.537C427.463 137.079 427.586 136.712 427.828 136.432C428.074 136.152 428.49 136.01 429.081 136.01H435.067C436.495 136.01 437.642 136.519 438.51 137.537C439.379 138.554 439.815 139.766 439.815 141.165C439.815 141.832 439.712 142.458 439.51 143.043C439.304 143.628 438.994 144.173 438.578 144.667C439.331 145.247 439.899 145.919 440.276 146.687C440.652 147.456 440.839 148.331 440.839 149.303C440.839 150.077 440.704 150.799 440.43 151.466C440.232 151.97 439.982 152.372 439.688 152.672C439.292 153.089 438.808 153.43 438.233 153.69C437.661 153.955 436.943 154.087 436.083 154.087H429.081C428.49 154.087 428.074 153.944 427.828 153.659C427.586 153.374 427.463 153.003 427.463 152.545C427.463 152.087 427.586 151.72 427.828 151.446C428.074 151.171 428.49 151.033 429.081 151.033H429.462ZM431.842 143.522H434.464C435.404 143.522 436.186 143.216 436.805 142.611C437.225 142.198 437.435 141.689 437.435 141.084C437.435 140.544 437.237 140.071 436.84 139.669C436.444 139.267 435.817 139.063 434.952 139.063H431.842V143.522ZM431.842 151.033H435.96C436.928 151.033 437.61 150.85 438.007 150.484C438.308 150.204 438.459 149.807 438.459 149.288C438.459 148.672 438.161 148.066 437.562 147.471C436.967 146.875 436.11 146.575 434.992 146.575H431.842V151.033ZM452.922 149.171H447.158L446.571 151.033H447.143C447.738 151.033 448.158 151.176 448.404 151.456C448.646 151.736 448.769 152.102 448.769 152.56C448.769 153.018 448.646 153.385 448.404 153.665C448.158 153.944 447.738 154.087 447.143 154.087H444.009C443.418 154.087 443.001 153.944 442.755 153.659C442.513 153.374 442.39 153.003 442.39 152.545C442.39 152.087 442.513 151.72 442.755 151.446C443.001 151.171 443.418 151.033 444.009 151.033L447.769 139.063H446.222C445.631 139.063 445.215 138.921 444.969 138.641C444.727 138.361 444.604 137.995 444.604 137.537C444.604 137.079 444.727 136.712 444.969 136.432C445.215 136.152 445.631 136.01 446.222 136.01H451.332L456.076 151.033C456.667 151.033 457.044 151.125 457.206 151.308C457.532 151.685 457.694 152.102 457.694 152.56C457.694 153.018 457.571 153.385 457.329 153.665C457.083 153.944 456.667 154.087 456.076 154.087H452.938C452.343 154.087 451.927 153.944 451.681 153.659C451.439 153.374 451.316 153.003 451.316 152.545C451.316 152.087 451.439 151.72 451.681 151.446C451.927 151.171 452.343 151.033 452.938 151.033H453.509L452.922 149.171ZM451.958 146.117L450.042 140.051L448.126 146.117H451.958ZM468.361 146.606H463.268V151.033H463.649C464.161 151.033 464.537 151.176 464.783 151.456C465.025 151.736 465.148 152.102 465.148 152.56C465.148 153.018 465.025 153.385 464.783 153.665C464.537 153.944 464.161 154.087 463.649 154.087H460.888C460.376 154.087 459.999 153.944 459.753 153.659C459.512 153.374 459.389 153.003 459.389 152.545C459.389 152.087 459.551 151.68 459.88 151.313C460.039 151.125 460.376 151.033 460.888 151.033V139.063C460.376 139.063 459.999 138.921 459.753 138.641C459.512 138.361 459.389 137.995 459.389 137.537C459.389 137.079 459.512 136.712 459.753 136.432C459.999 136.152 460.376 136.01 460.888 136.01H463.649C464.161 136.01 464.537 136.147 464.783 136.422C465.025 136.697 465.148 137.063 465.148 137.521C465.148 137.979 465.025 138.351 464.783 138.636C464.537 138.921 464.161 139.063 463.649 139.063H463.268V143.552H468.361V139.063H467.981C467.469 139.063 467.092 138.921 466.846 138.641C466.604 138.361 466.481 137.995 466.481 137.537C466.481 137.079 466.604 136.712 466.846 136.432C467.092 136.152 467.469 136.01 467.981 136.01H470.742C471.253 136.01 471.63 136.147 471.876 136.422C472.118 136.697 472.241 137.063 472.241 137.521C472.241 137.979 472.118 138.351 471.876 138.636C471.63 138.921 471.253 139.063 470.742 139.063V151.033C471.253 151.033 471.587 151.125 471.741 151.308C472.074 151.685 472.241 152.102 472.241 152.56C472.241 153.018 472.118 153.385 471.876 153.665C471.63 153.944 471.253 154.087 470.742 154.087H467.981C467.469 154.087 467.092 153.944 466.846 153.659C466.604 153.374 466.481 153.003 466.481 152.545C466.481 152.087 466.604 151.72 466.846 151.446C467.092 151.171 467.469 151.033 467.981 151.033H468.361V146.606ZM475.839 151.033V139.063C474.856 139.063 474.364 138.549 474.364 137.526C474.364 136.514 474.895 136.01 475.958 136.01H479.076C480.139 136.01 480.671 136.514 480.671 137.526C480.671 138.549 480.139 139.063 479.076 139.063H478.219V148.275L484.312 136.01H487.073C488.136 136.01 488.668 136.514 488.668 137.526C488.668 138.549 488.136 139.063 487.073 139.063H486.693V151.033C487.315 151.033 487.764 151.15 488.041 151.384C488.315 151.619 488.454 152.005 488.454 152.55C488.454 153.573 487.922 154.087 486.859 154.087H483.741C482.678 154.087 482.147 153.573 482.147 152.55C482.147 151.537 482.678 151.033 483.741 151.033H484.312V141.822L478.219 154.087H475.839C474.776 154.087 474.245 153.573 474.245 152.55C474.245 151.537 474.776 151.033 475.839 151.033ZM494.718 146.545V151.033H500.787V149.384C500.787 148.626 500.898 148.092 501.12 147.776C501.342 147.466 501.632 147.308 501.989 147.308C502.346 147.308 502.632 147.466 502.846 147.776C503.06 148.092 503.167 148.626 503.167 149.384V154.087H491.957C491.366 154.087 490.949 153.944 490.703 153.659C490.461 153.374 490.338 153.003 490.338 152.545C490.338 152.087 490.461 151.72 490.703 151.446C490.949 151.171 491.366 151.033 491.957 151.033H492.338V139.063H491.957C491.366 139.063 490.949 138.921 490.703 138.641C490.461 138.361 490.338 137.995 490.338 137.537C490.338 137.079 490.461 136.712 490.703 136.432C490.949 136.152 491.366 136.01 491.957 136.01L502.667 136.025V140.651C502.667 141.41 502.56 141.944 502.346 142.259C502.132 142.57 501.846 142.728 501.489 142.728C501.132 142.728 500.843 142.57 500.62 142.259C500.398 141.944 500.287 141.41 500.287 140.651V139.063H494.718V143.491H496.812C496.812 142.733 496.884 142.254 497.03 142.056C497.328 141.628 497.657 141.415 498.014 141.415C498.371 141.415 498.657 141.572 498.871 141.883C499.085 142.198 499.192 142.733 499.192 143.491V146.545C499.192 147.303 499.121 147.786 498.978 147.99C498.693 148.412 498.371 148.621 498.014 148.621C497.657 148.621 497.328 148.407 497.03 147.98C496.884 147.781 496.812 147.303 496.812 146.545H494.718Z" fill="white" stroke="white" stroke-width="2.83464" stroke-miterlimit="22.9256"/>
</svg>
