<svg width="9750" height="3072" viewBox="0 0 9750 3072" fill="none" xmlns="http://www.w3.org/2000/svg">
<path d="M385.51 2242.69C487.312 2242.69 675.256 2273.53 771.837 2276.96C1184.27 2276.96 1453.13 2006.26 1453.13 1591.66C1453.13 1314.11 1293.9 1153.07 1085.08 1081.11C1249.53 968.039 1364.38 796.714 1364.38 556.86C1364.38 210.786 1171.22 25.755 810.992 25.755C810.992 25.755 502.974 42.8875 411.613 42.8875C320.252 42.8875 48.7787 36.0345 48.7787 36.0345L25.286 245.051L40.948 272.463C40.948 272.463 98.3744 265.61 129.698 265.61C194.957 265.61 215.839 310.154 215.839 436.933L213.229 1773.26C213.229 1951.44 171.464 2009.69 22.6756 2043.95L1.79297 2276.96C1.79297 2276.96 236.722 2242.69 385.51 2242.69ZM803.161 1279.85C975.443 1331.25 1066.8 1458.03 1066.8 1639.63C1066.8 1855.5 967.612 1982.28 797.941 1982.28C620.439 1982.28 552.57 1924.03 552.57 1780.12L563.012 1283.28L803.161 1279.85ZM568.232 978.318C570.843 830.979 578.674 560.287 589.115 371.83C591.726 323.86 602.167 310.154 636.101 310.154C881.471 310.154 996.326 416.374 996.326 645.949C996.326 926.921 816.213 1009.16 816.213 1009.16C766.616 1009.16 568.232 978.318 568.232 978.318ZM2048.7 1434.04L2066.97 436.933C2072.2 317.007 2103.52 272.463 2213.15 255.33L2231.42 22.3285C2231.42 22.3285 2027.82 42.8875 1920.8 42.8875C1772.01 42.8875 1547.52 32.608 1547.52 32.608L1524.03 258.757L1529.25 272.463C1529.25 272.463 1584.07 265.61 1612.78 265.61C1680.65 265.61 1696.31 299.875 1696.31 450.639V1543.69C1696.31 2037.1 1899.91 2283.81 2301.9 2283.81C2737.83 2283.81 2975.37 2002.84 2975.37 1488.86V423.227C2975.37 313.581 2996.25 289.595 3126.77 251.904L3142.43 22.3285C3142.43 22.3285 2964.92 42.8875 2831.8 42.8875C2732.61 42.8875 2526.39 32.608 2526.39 32.608L2505.51 258.757L2510.73 272.463C2510.73 272.463 2568.16 265.61 2596.87 265.61C2662.13 265.61 2677.79 299.875 2680.4 450.639C2680.4 450.639 2690.84 1300.41 2690.84 1526.56C2690.84 1824.66 2583.82 1972 2372.38 1972C2163.56 1972 2048.7 1776.69 2048.7 1434.04ZM4471.5 1437.47C4471.5 1437.47 4113.88 755.597 3774.54 29.1815C3774.54 29.1815 3636.2 42.8875 3523.95 42.8875C3396.05 42.8875 3221.15 25.755 3221.15 25.755L3202.88 224.492L3223.76 258.757C3393.44 282.742 3435.2 323.86 3435.2 471.198L3401.27 1824.66C3398.66 1961.72 3351.67 2023.4 3247.26 2040.53L3226.38 2270.1C3226.38 2270.1 3406.49 2242.69 3547.44 2242.69C3659.69 2242.69 3884.18 2256.4 3884.18 2256.4L3910.28 2037.1L3894.62 2013.12C3894.62 2013.12 3811.09 2023.4 3782.37 2023.4C3717.12 2023.4 3693.62 1982.28 3693.62 1869.2L3696.23 813.847H3722.34C3722.34 813.847 4077.34 1485.44 4481.94 2335.21L4758.63 2290.66L4792.57 471.198C4795.18 334.138 4842.16 275.889 4957.02 255.33L4970.07 25.755C4970.07 25.755 4789.96 42.8875 4662.05 42.8875C4547.2 42.8875 4325.32 29.1815 4325.32 29.1815L4307.05 241.624L4317.49 269.036C4327.93 269.036 4369.7 265.61 4406.24 265.61C4466.28 265.61 4489.77 306.728 4492.38 412.948L4497.6 1437.47H4471.5ZM5247.18 1762.98C5247.18 1954.87 5215.86 2002.84 5064.46 2033.68L5040.97 2252.97C5040.97 2252.97 5257.62 2242.69 5403.8 2242.69C5516.04 2242.69 5779.69 2252.97 5779.69 2252.97L5803.18 2033.68L5792.74 2009.69C5792.74 2009.69 5743.14 2019.97 5690.94 2019.97C5610.02 2019.97 5586.52 1975.43 5591.74 1786.97L5615.24 447.213C5617.85 320.433 5651.78 282.742 5779.69 248.477L5795.35 18.902C5795.35 18.902 5547.37 42.8875 5435.12 42.8875C5359.43 42.8875 5082.73 36.0345 5082.73 36.0345L5061.85 241.624L5074.9 269.036C5074.9 269.036 5124.5 265.61 5155.82 265.61C5231.52 265.61 5249.79 299.874 5249.79 443.786L5247.18 1762.98ZM5641.34 1159.92L6035.5 2006.26C6129.47 2205 6215.61 2294.09 6325.24 2294.09C6372.23 2294.09 6630.65 2252.97 6630.65 2252.97L6651.53 2071.37L6635.87 2040.53C6518.41 2030.25 6440.1 1948.01 6338.3 1742.42L5993.73 1050.27L6262.6 652.802C6411.38 419.801 6494.92 320.433 6604.55 262.183L6625.43 66.8729L6607.16 29.1815C6607.16 29.1815 6400.94 42.8875 6301.75 42.8875C6194.73 42.8875 5975.46 25.755 5975.46 25.755L5954.58 238.198L5962.41 262.183C6061.6 269.036 6100.76 299.874 6100.76 368.403C6100.76 416.374 6077.26 478.051 6032.89 536.302L5649.17 1084.54L5641.34 1159.92ZM7236.66 1766.41C7236.66 1673.89 7239.27 1536.84 7244.5 1286.7C7288.87 1279.85 7364.57 1266.14 7442.88 1266.14C7573.4 1266.14 7782.22 1276.42 7782.22 1276.42L7818.77 981.745L7797.88 950.906C7797.88 950.906 7581.23 978.318 7495.09 978.318C7419.39 978.318 7307.14 974.892 7252.33 974.892L7270.6 443.786C7273.21 340.991 7286.26 330.713 7408.94 330.713C7701.3 330.713 7737.85 358.124 7737.85 546.581C7737.85 594.552 7732.63 683.641 7732.63 683.641L7972.77 663.082C7985.83 344.418 8032.81 39.461 8032.81 39.461L8011.93 1.76953C7852.7 29.1815 7589.06 42.8875 7218.39 42.8875C7022.62 42.8875 6735.48 32.608 6735.48 32.608L6714.6 241.624L6732.87 272.463C6732.87 272.463 6782.47 265.61 6811.18 265.61C6881.66 265.61 6897.32 303.301 6897.32 450.639L6894.71 1749.28C6894.71 1948.01 6850.34 2016.54 6706.77 2043.95L6685.89 2276.96C6685.89 2276.96 6907.76 2242.69 7140.08 2242.69C7463.76 2242.69 7954.5 2266.68 7954.5 2266.68L7978 2228.99C8004.1 1900.04 8051.08 1591.66 8051.08 1591.66L8032.81 1557.39L7810.93 1581.38C7774.39 1924.03 7727.4 1972 7403.72 1972C7254.94 1972 7236.66 1948.01 7236.66 1766.41ZM8910.3 1382.64L9134.79 1978.85C9210.48 2191.29 9304.46 2297.52 9419.31 2297.52L9729.94 2259.82L9748.21 2078.22L9729.94 2047.38C9620.3 2047.38 9536.77 1954.87 9440.19 1749.28L9213.09 1269.57C9437.58 1115.38 9562.88 885.803 9562.88 615.111C9562.88 234.771 9343.61 25.755 8944.23 25.755C8944.23 25.755 8651.88 42.8875 8544.85 42.8875C8443.05 42.8875 8215.95 36.0345 8215.95 36.0345L8195.07 245.051L8208.12 272.463C8208.12 272.463 8262.94 265.61 8299.48 265.61C8364.74 265.61 8383.01 302.73 8383.01 432.936L8380.4 1749.85C8380.4 1945.16 8341.25 2002.84 8195.07 2030.25L8171.58 2259.82C8171.58 2259.82 8385.62 2239.26 8544.85 2242.69C8662.32 2242.69 8894.63 2249.54 8894.63 2252.97L8920.74 2040.53L8910.3 2019.97C8743.24 2013.12 8724.97 1985.71 8724.97 1756.7L8727.58 1380.36L8910.3 1382.64ZM8735.41 1072.55C8738.02 864.102 8743.24 658.513 8756.29 384.966C8758.9 323.86 8766.73 310.154 8803.27 310.154C9066.92 310.154 9192.21 430.08 9192.21 680.214C9192.21 985.171 9025.15 1077.69 8970.33 1108.52L8735.41 1072.55Z" fill="#55665E" stroke="#94A384" stroke-width="2.83464" stroke-miterlimit="22.9256"/>
<path d="M307.435 2717.23V2989.99H348.484C363.699 2989.99 374.421 2993.23 380.751 2999.61C386.98 3005.99 390.146 3014.34 390.146 3024.78C390.146 3035.21 386.98 3043.56 380.751 3049.94C374.421 3056.32 363.699 3059.57 348.484 3059.57H205.118C189.903 3059.57 179.182 3056.32 172.851 3049.83C166.621 3043.33 163.456 3034.87 163.456 3024.43C163.456 3013.99 166.621 3005.64 172.851 2999.38C179.182 2993.12 189.903 2989.99 205.118 2989.99H246.167V2717.23H179.386V2783.33C179.386 2800.61 176.526 2812.79 170.91 2819.98C165.294 2827.05 157.942 2830.65 148.752 2830.65C139.561 2830.65 132.21 2827.05 126.594 2819.98C120.978 2812.79 118.118 2800.61 118.118 2783.33V2647.65H436.096V2783.33C436.096 2800.61 433.238 2812.79 427.622 2819.98C422.005 2827.05 414.653 2830.65 405.463 2830.65C396.273 2830.65 388.921 2827.05 383.305 2819.98C377.688 2812.79 374.83 2800.61 374.83 2783.33V2717.23H307.435ZM854.054 2853.72C854.054 2915.65 836.695 2967.14 802.078 3008.31C767.36 3049.48 727.332 3070 681.79 3070C640.741 3070 603.879 3052.84 570.896 3018.63C530.153 2976.3 509.73 2921.33 509.73 2853.72C509.73 2786.23 530.153 2731.15 570.896 2688.59C603.879 2654.37 640.741 2637.21 681.79 2637.21C727.332 2637.21 767.36 2657.74 802.078 2698.91C836.695 2740.07 854.054 2791.68 854.054 2853.72ZM792.786 2853.72C792.786 2811.4 781.452 2776.26 758.885 2748.42C736.216 2720.71 710.586 2706.79 681.79 2706.79C653.096 2706.79 627.569 2720.71 604.9 2748.66C582.332 2776.49 570.997 2811.63 570.997 2853.72C570.997 2895.94 582.332 2930.96 604.9 2958.79C627.569 2986.51 653.096 3000.42 681.79 3000.42C710.586 3000.42 736.216 2986.62 758.885 2958.91C781.452 2931.19 792.786 2896.17 792.786 2853.72ZM1153.76 2889.09H1022.65V2989.99H1032.46C1045.63 2989.99 1055.33 2993.23 1061.66 2999.61C1067.89 3005.99 1071.05 3014.34 1071.05 3024.78C1071.05 3035.21 1067.89 3043.56 1061.66 3049.94C1055.33 3056.32 1045.63 3059.57 1032.46 3059.57H961.385C948.212 3059.57 938.512 3056.32 932.181 3049.83C925.951 3043.33 922.786 3034.87 922.786 3024.43C922.786 3013.99 926.973 3004.71 935.448 2996.36C939.533 2992.07 948.212 2989.99 961.385 2989.99V2717.23C948.212 2717.23 938.512 2713.98 932.181 2707.6C925.951 2701.23 922.786 2692.88 922.786 2682.44C922.786 2672 925.951 2663.65 932.181 2657.27C938.512 2650.9 948.212 2647.65 961.385 2647.65H1032.46C1045.63 2647.65 1055.33 2650.78 1061.66 2657.04C1067.89 2663.3 1071.05 2671.65 1071.05 2682.09C1071.05 2692.53 1067.89 2700.99 1061.66 2707.49C1055.33 2713.98 1045.63 2717.23 1032.46 2717.23H1022.65V2819.51H1153.76V2717.23H1143.96C1130.79 2717.23 1121.09 2713.98 1114.76 2707.6C1108.53 2701.23 1105.36 2692.88 1105.36 2682.44C1105.36 2672 1108.53 2663.65 1114.76 2657.27C1121.09 2650.9 1130.79 2647.65 1143.96 2647.65H1215.03C1228.2 2647.65 1237.91 2650.78 1244.24 2657.04C1250.47 2663.3 1253.63 2671.65 1253.63 2682.09C1253.63 2692.53 1250.47 2700.99 1244.24 2707.49C1237.91 2713.98 1228.2 2717.23 1215.03 2717.23V2989.99C1228.2 2989.99 1236.78 2992.07 1240.76 2996.25C1249.34 3004.83 1253.63 3014.34 1253.63 3024.78C1253.63 3035.21 1250.47 3043.56 1244.24 3049.94C1237.91 3056.32 1228.2 3059.57 1215.03 3059.57H1143.96C1130.79 3059.57 1121.09 3056.32 1114.76 3049.83C1108.53 3043.33 1105.36 3034.87 1105.36 3024.43C1105.36 3013.99 1108.53 3005.64 1114.76 2999.38C1121.09 2993.12 1130.79 2989.99 1143.96 2989.99H1153.76V2889.09ZM1346.26 2989.99V2717.23C1320.93 2717.23 1308.27 2705.52 1308.27 2682.21C1308.27 2659.13 1321.95 2647.65 1349.32 2647.65H1429.58C1456.95 2647.65 1470.63 2659.13 1470.63 2682.21C1470.63 2705.52 1456.95 2717.23 1429.58 2717.23H1407.53V2927.13L1564.37 2647.65H1635.44C1662.81 2647.65 1676.49 2659.13 1676.49 2682.21C1676.49 2705.52 1662.81 2717.23 1635.44 2717.23H1625.64V2989.99C1641.67 2989.99 1653.21 2992.65 1660.36 2997.99C1667.4 3003.32 1670.98 3012.14 1670.98 3024.55C1670.98 3047.86 1657.29 3059.57 1629.93 3059.57H1549.67C1522.3 3059.57 1508.62 3047.86 1508.62 3024.55C1508.62 3001.47 1522.3 2989.99 1549.67 2989.99H1564.37V2780.08L1407.53 3059.57H1346.26C1318.89 3059.57 1305.21 3047.86 1305.21 3024.55C1305.21 3001.47 1318.89 2989.99 1346.26 2989.99ZM1859.79 2918.32V2989.99H1921.67C1936.89 2989.99 1947.61 2993.23 1953.94 2999.61C1960.17 3005.99 1963.33 3014.34 1963.33 3024.78C1963.33 3035.21 1960.17 3043.56 1953.94 3049.94C1947.61 3056.32 1936.89 3059.57 1921.67 3059.57H1788.72C1773.51 3059.57 1762.78 3056.32 1756.45 3049.83C1750.22 3043.33 1747.06 3034.87 1747.06 3024.43C1747.06 3013.99 1750.22 3005.64 1756.45 2999.38C1762.78 2993.12 1773.51 2989.99 1788.72 2989.99H1798.52V2717.23H1788.72C1773.51 2717.23 1762.78 2713.98 1756.45 2707.6C1750.22 2701.23 1747.06 2692.88 1747.06 2682.44C1747.06 2672 1750.22 2663.65 1756.45 2657.27C1762.78 2650.9 1773.51 2647.65 1788.72 2647.65H1930.05C1971.5 2647.65 2004.38 2660.52 2028.69 2686.27C2052.89 2712.01 2065.04 2743.32 2065.04 2780.2C2065.04 2800.61 2060.95 2819.98 2052.78 2838.07C2046.56 2851.64 2036.24 2865.09 2021.84 2878.31C2007.34 2891.65 1992.64 2901.62 1977.53 2908.23C1962.52 2914.96 1942.6 2918.32 1917.89 2918.32H1859.79ZM1859.79 2848.74H1916.67C1943.42 2848.74 1964.56 2841.9 1980.28 2828.09C1995.91 2814.41 2003.77 2797.83 2003.77 2778.58C2003.77 2762.23 1997.44 2747.85 1984.78 2735.67C1972.12 2723.38 1953.94 2717.23 1930.45 2717.23H1859.79V2848.74ZM2471.97 2853.72C2471.97 2915.65 2454.61 2967.14 2419.99 3008.31C2385.27 3049.48 2345.25 3070 2299.7 3070C2258.65 3070 2221.79 3052.84 2188.81 3018.63C2148.07 2976.3 2127.64 2921.33 2127.64 2853.72C2127.64 2786.23 2148.07 2731.15 2188.81 2688.59C2221.79 2654.37 2258.65 2637.21 2299.7 2637.21C2345.25 2637.21 2385.27 2657.74 2419.99 2698.91C2454.61 2740.07 2471.97 2791.68 2471.97 2853.72ZM2410.7 2853.72C2410.7 2811.4 2399.36 2776.26 2376.8 2748.42C2354.13 2720.71 2328.5 2706.79 2299.7 2706.79C2271.01 2706.79 2245.48 2720.71 2222.81 2748.66C2200.25 2776.49 2188.91 2811.63 2188.91 2853.72C2188.91 2895.94 2200.25 2930.96 2222.81 2958.79C2245.48 2986.51 2271.01 3000.42 2299.7 3000.42C2328.5 3000.42 2354.13 2986.62 2376.8 2958.91C2399.36 2931.19 2410.7 2896.17 2410.7 2853.72ZM2579.3 2989.99V2717.23H2569.49C2554.28 2717.23 2543.56 2713.98 2537.23 2707.6C2531 2701.23 2527.83 2692.88 2527.83 2682.44C2527.83 2672 2531 2663.65 2537.23 2657.27C2543.56 2650.9 2554.28 2647.65 2569.49 2647.65H2723.58C2760.34 2647.65 2789.85 2659.25 2812.22 2682.44C2834.58 2705.63 2845.81 2733.23 2845.81 2765.12C2845.81 2780.32 2843.16 2794.58 2837.95 2807.92C2832.64 2821.25 2824.67 2833.66 2813.95 2844.91C2833.35 2858.13 2847.96 2873.44 2857.66 2890.95C2867.36 2908.46 2872.16 2928.41 2872.16 2950.56C2872.16 2968.18 2868.68 2984.65 2861.64 2999.84C2856.53 3011.32 2850.1 3020.49 2842.54 3027.33C2832.33 3036.84 2819.87 3044.61 2805.07 3050.52C2790.36 3056.55 2771.88 3059.57 2749.72 3059.57H2569.49C2554.28 3059.57 2543.56 3056.32 2537.23 3049.83C2531 3043.33 2527.83 3034.87 2527.83 3024.43C2527.83 3013.99 2531 3005.64 2537.23 2999.38C2543.56 2993.12 2554.28 2989.99 2569.49 2989.99H2579.3ZM2640.57 2818.82H2708.06C2732.26 2818.82 2752.38 2811.86 2768.31 2798.06C2779.13 2788.67 2784.54 2777.07 2784.54 2763.27C2784.54 2750.98 2779.44 2740.19 2769.23 2731.03C2759.02 2721.87 2742.88 2717.23 2720.62 2717.23H2640.57V2818.82ZM2640.57 2989.99H2746.56C2771.47 2989.99 2789.04 2985.81 2799.25 2977.46C2807.01 2971.08 2810.89 2962.04 2810.89 2950.21C2810.89 2936.18 2803.23 2922.38 2787.81 2908.81C2772.49 2895.24 2750.44 2888.4 2721.64 2888.4H2640.57V2989.99ZM3183.2 2947.54H3034.83L3019.72 2989.99H3034.42C3049.74 2989.99 3060.56 2993.23 3066.89 2999.61C3073.12 3005.99 3076.29 3014.34 3076.29 3024.78C3076.29 3035.21 3073.12 3043.56 3066.89 3049.94C3060.56 3056.32 3049.74 3059.57 3034.42 3059.57H2953.75C2938.54 3059.57 2927.82 3056.32 2921.49 3049.83C2915.26 3043.33 2912.09 3034.87 2912.09 3024.43C2912.09 3013.99 2915.26 3005.64 2921.49 2999.38C2927.82 2993.12 2938.54 2989.99 2953.75 2989.99L3050.56 2717.23H3010.73C2995.52 2717.23 2984.8 2713.98 2978.47 2707.6C2972.24 2701.23 2969.07 2692.88 2969.07 2682.44C2969.07 2672 2972.24 2663.65 2978.47 2657.27C2984.8 2650.9 2995.52 2647.65 3010.73 2647.65H3142.25L3264.38 2989.99C3279.6 2989.99 3289.3 2992.07 3293.48 2996.25C3301.86 3004.83 3306.04 3014.34 3306.04 3024.78C3306.04 3035.21 3302.88 3043.56 3296.65 3049.94C3290.32 3056.32 3279.6 3059.57 3264.38 3059.57H3183.61C3168.29 3059.57 3157.57 3056.32 3151.24 3049.83C3145.01 3043.33 3141.85 3034.87 3141.85 3024.43C3141.85 3013.99 3145.01 3005.64 3151.24 2999.38C3157.57 2993.12 3168.29 2989.99 3183.61 2989.99H3198.31L3183.2 2947.54ZM3158.39 2877.96L3109.07 2739.73L3059.75 2877.96H3158.39ZM3580.63 2889.09H3449.52V2989.99H3459.32C3472.5 2989.99 3482.2 2993.23 3488.53 2999.61C3494.76 3005.99 3497.92 3014.34 3497.92 3024.78C3497.92 3035.21 3494.76 3043.56 3488.53 3049.94C3482.2 3056.32 3472.5 3059.57 3459.32 3059.57H3388.25C3375.08 3059.57 3365.38 3056.32 3359.05 3049.83C3352.82 3043.33 3349.66 3034.87 3349.66 3024.43C3349.66 3013.99 3353.84 3004.71 3362.32 2996.36C3366.4 2992.07 3375.08 2989.99 3388.25 2989.99V2717.23C3375.08 2717.23 3365.38 2713.98 3359.05 2707.6C3352.82 2701.23 3349.66 2692.88 3349.66 2682.44C3349.66 2672 3352.82 2663.65 3359.05 2657.27C3365.38 2650.9 3375.08 2647.65 3388.25 2647.65H3459.32C3472.5 2647.65 3482.2 2650.78 3488.53 2657.04C3494.76 2663.3 3497.92 2671.65 3497.92 2682.09C3497.92 2692.53 3494.76 2700.99 3488.53 2707.49C3482.2 2713.98 3472.5 2717.23 3459.32 2717.23H3449.52V2819.51H3580.63V2717.23H3570.83C3557.66 2717.23 3547.96 2713.98 3541.63 2707.6C3535.4 2701.23 3532.23 2692.88 3532.23 2682.44C3532.23 2672 3535.4 2663.65 3541.63 2657.27C3547.96 2650.9 3557.66 2647.65 3570.83 2647.65H3641.9C3655.07 2647.65 3664.77 2650.78 3671.11 2657.04C3677.33 2663.3 3680.5 2671.65 3680.5 2682.09C3680.5 2692.53 3677.33 2700.99 3671.11 2707.49C3664.77 2713.98 3655.07 2717.23 3641.9 2717.23V2989.99C3655.07 2989.99 3663.65 2992.07 3667.63 2996.25C3676.21 3004.83 3680.5 3014.34 3680.5 3024.78C3680.5 3035.21 3677.33 3043.56 3671.11 3049.94C3664.77 3056.32 3655.07 3059.57 3641.9 3059.57H3570.83C3557.66 3059.57 3547.96 3056.32 3541.63 3049.83C3535.4 3043.33 3532.23 3034.87 3532.23 3024.43C3532.23 3013.99 3535.4 3005.64 3541.63 2999.38C3547.96 2993.12 3557.66 2989.99 3570.83 2989.99H3580.63V2889.09ZM3773.13 2989.99V2717.23C3747.8 2717.23 3735.14 2705.52 3735.14 2682.21C3735.14 2659.13 3748.82 2647.65 3776.19 2647.65H3856.45C3883.82 2647.65 3897.5 2659.13 3897.5 2682.21C3897.5 2705.52 3883.82 2717.23 3856.45 2717.23H3834.39V2927.13L3991.24 2647.65H4062.31C4089.68 2647.65 4103.36 2659.13 4103.36 2682.21C4103.36 2705.52 4089.68 2717.23 4062.31 2717.23H4052.51V2989.99C4068.54 2989.99 4080.08 2992.65 4087.23 2997.99C4094.27 3003.32 4097.84 3012.14 4097.84 3024.55C4097.84 3047.86 4084.16 3059.57 4056.8 3059.57H3976.54C3949.17 3059.57 3935.49 3047.86 3935.49 3024.55C3935.49 3001.47 3949.17 2989.99 3976.54 2989.99H3991.24V2780.08L3834.39 3059.57H3773.13C3745.76 3059.57 3732.08 3047.86 3732.08 3024.55C3732.08 3001.47 3745.76 2989.99 3773.13 2989.99ZM4259.09 2887.7V2989.99H4415.32V2952.41C4415.32 2935.13 4418.18 2922.96 4423.9 2915.77C4429.62 2908.69 4437.07 2905.1 4446.26 2905.1C4455.45 2905.1 4462.81 2908.69 4468.32 2915.77C4473.83 2922.96 4476.59 2935.13 4476.59 2952.41V3059.57H4188.02C4172.81 3059.57 4162.08 3056.32 4155.75 3049.83C4149.52 3043.33 4146.36 3034.87 4146.36 3024.43C4146.36 3013.99 4149.52 3005.64 4155.75 2999.38C4162.08 2993.12 4172.81 2989.99 4188.02 2989.99H4197.82V2717.23H4188.02C4172.81 2717.23 4162.08 2713.98 4155.75 2707.6C4149.52 2701.23 4146.36 2692.88 4146.36 2682.44C4146.36 2672 4149.52 2663.65 4155.75 2657.27C4162.08 2650.9 4172.81 2647.65 4188.02 2647.65L4463.72 2648V2753.41C4463.72 2770.69 4460.97 2782.87 4455.45 2790.06C4449.94 2797.13 4442.59 2800.73 4433.4 2800.73C4424.21 2800.73 4416.75 2797.13 4411.03 2790.06C4405.32 2782.87 4402.46 2770.69 4402.46 2753.41V2717.23H4259.09V2818.12H4313.01C4313.01 2800.84 4314.84 2789.94 4318.62 2785.42C4326.28 2775.68 4334.76 2770.81 4343.95 2770.81C4353.14 2770.81 4360.49 2774.4 4366 2781.48C4371.52 2788.67 4374.27 2800.84 4374.27 2818.12V2887.7C4374.27 2904.98 4372.44 2916 4368.76 2920.64C4361.41 2930.26 4353.14 2935.02 4343.95 2935.02C4334.76 2935.02 4326.28 2930.15 4318.62 2920.41C4314.84 2915.88 4313.01 2904.98 4313.01 2887.7H4259.09ZM5181.98 2647.65V2733.93C5181.98 2765.01 5171.87 2780.55 5151.55 2780.55C5131.02 2780.55 5120.71 2765.01 5120.71 2733.93V2717.23H4964.48V2818.82H5042.9C5094.77 2818.82 5133.27 2830.07 5158.39 2852.45C5183.51 2874.83 5196.07 2906.37 5196.07 2947.19C5196.07 3022.11 5152.57 3059.57 5065.57 3059.57H4893.41C4866.04 3059.57 4852.36 3047.86 4852.36 3024.43C4852.36 3001.47 4866.04 2989.99 4893.41 2989.99H4903.21V2717.23H4893.41C4866.04 2717.23 4852.36 2705.63 4852.36 2682.44C4852.36 2659.25 4866.04 2647.65 4893.41 2647.65H5181.98ZM4964.48 2989.99H5070.47C5113.36 2989.99 5134.8 2974.68 5134.8 2944.06C5134.8 2906.95 5105.09 2888.4 5045.55 2888.4H4964.48V2989.99ZM5397.14 2918.32V2989.99H5459.02C5474.23 2989.99 5484.95 2993.23 5491.29 2999.61C5497.51 3005.99 5500.68 3014.34 5500.68 3024.78C5500.68 3035.21 5497.51 3043.56 5491.29 3049.94C5484.95 3056.32 5474.23 3059.57 5459.02 3059.57H5326.07C5310.85 3059.57 5300.13 3056.32 5293.8 3049.83C5287.57 3043.33 5284.41 3034.87 5284.41 3024.43C5284.41 3013.99 5287.57 3005.64 5293.8 2999.38C5300.13 2993.12 5310.85 2989.99 5326.07 2989.99H5335.87V2717.23H5326.07C5310.85 2717.23 5300.13 2713.98 5293.8 2707.6C5287.57 2701.23 5284.41 2692.88 5284.41 2682.44C5284.41 2672 5287.57 2663.65 5293.8 2657.27C5300.13 2650.9 5310.85 2647.65 5326.07 2647.65H5467.39C5508.85 2647.65 5541.73 2660.52 5566.03 2686.27C5590.23 2712.01 5602.38 2743.32 5602.38 2780.2C5602.38 2800.61 5598.3 2819.98 5590.13 2838.07C5583.9 2851.64 5573.59 2865.09 5559.19 2878.31C5544.69 2891.65 5529.99 2901.62 5514.87 2908.23C5499.86 2914.96 5479.95 2918.32 5455.24 2918.32H5397.14ZM5397.14 2848.74H5454.01C5480.77 2848.74 5501.91 2841.9 5517.63 2828.09C5533.25 2814.41 5541.12 2797.83 5541.12 2778.58C5541.12 2762.23 5534.79 2747.85 5522.12 2735.67C5509.46 2723.38 5491.29 2717.23 5467.8 2717.23H5397.14V2848.74ZM6009.31 2853.72C6009.31 2915.65 5991.95 2967.14 5957.34 3008.31C5922.62 3049.48 5882.59 3070 5837.05 3070C5796 3070 5759.14 3052.84 5726.15 3018.63C5685.41 2976.3 5664.99 2921.33 5664.99 2853.72C5664.99 2786.23 5685.41 2731.15 5726.15 2688.59C5759.14 2654.37 5796 2637.21 5837.05 2637.21C5882.59 2637.21 5922.62 2657.74 5957.34 2698.91C5991.95 2740.07 6009.31 2791.68 6009.31 2853.72ZM5948.05 2853.72C5948.05 2811.4 5936.71 2776.26 5914.14 2748.42C5891.48 2720.71 5865.84 2706.79 5837.05 2706.79C5808.36 2706.79 5782.83 2720.71 5760.16 2748.66C5737.59 2776.49 5726.26 2811.63 5726.26 2853.72C5726.26 2895.94 5737.59 2930.96 5760.16 2958.79C5782.83 2986.51 5808.36 3000.42 5837.05 3000.42C5865.84 3000.42 5891.48 2986.62 5914.14 2958.91C5936.71 2931.19 5948.05 2896.17 5948.05 2853.72ZM6309.02 2889.09H6177.91V2989.99H6187.71C6200.89 2989.99 6210.59 2993.23 6216.92 2999.61C6223.15 3005.99 6226.31 3014.34 6226.31 3024.78C6226.31 3035.21 6223.15 3043.56 6216.92 3049.94C6210.59 3056.32 6200.89 3059.57 6187.71 3059.57H6116.64C6103.47 3059.57 6093.77 3056.32 6087.44 3049.83C6081.21 3043.33 6078.05 3034.87 6078.05 3024.43C6078.05 3013.99 6082.23 3004.71 6090.71 2996.36C6094.79 2992.07 6103.47 2989.99 6116.64 2989.99V2717.23C6103.47 2717.23 6093.77 2713.98 6087.44 2707.6C6081.21 2701.23 6078.05 2692.88 6078.05 2682.44C6078.05 2672 6081.21 2663.65 6087.44 2657.27C6093.77 2650.9 6103.47 2647.65 6116.64 2647.65H6187.71C6200.89 2647.65 6210.59 2650.78 6216.92 2657.04C6223.15 2663.3 6226.31 2671.65 6226.31 2682.09C6226.31 2692.53 6223.15 2700.99 6216.92 2707.49C6210.59 2713.98 6200.89 2717.23 6187.71 2717.23H6177.91V2819.51H6309.02V2717.23H6299.22C6286.05 2717.23 6276.35 2713.98 6270.02 2707.6C6263.79 2701.23 6260.62 2692.88 6260.62 2682.44C6260.62 2672 6263.79 2663.65 6270.02 2657.27C6276.35 2650.9 6286.05 2647.65 6299.22 2647.65H6370.29C6383.46 2647.65 6393.16 2650.78 6399.5 2657.04C6405.72 2663.3 6408.89 2671.65 6408.89 2682.09C6408.89 2692.53 6405.72 2700.99 6399.5 2707.49C6393.16 2713.98 6383.46 2717.23 6370.29 2717.23V2989.99C6383.46 2989.99 6392.04 2992.07 6396.02 2996.25C6404.6 3004.83 6408.89 3014.34 6408.89 3024.78C6408.89 3035.21 6405.72 3043.56 6399.5 3049.94C6393.16 3056.32 6383.46 3059.57 6370.29 3059.57H6299.22C6286.05 3059.57 6276.35 3056.32 6270.02 3049.83C6263.79 3043.33 6260.62 3034.87 6260.62 3024.43C6260.62 3013.99 6263.79 3005.64 6270.02 2999.38C6276.35 2993.12 6286.05 2989.99 6299.22 2989.99H6309.02V2889.09ZM6501.52 2989.99V2717.23C6476.19 2717.23 6463.53 2705.52 6463.53 2682.21C6463.53 2659.13 6477.21 2647.65 6504.58 2647.65H6584.84C6612.21 2647.65 6625.89 2659.13 6625.89 2682.21C6625.89 2705.52 6612.21 2717.23 6584.84 2717.23H6562.78V2927.13L6719.63 2647.65H6790.7C6818.06 2647.65 6831.75 2659.13 6831.75 2682.21C6831.75 2705.52 6818.06 2717.23 6790.7 2717.23H6780.9V2989.99C6796.93 2989.99 6808.47 2992.65 6815.62 2997.99C6822.66 3003.32 6826.23 3012.14 6826.23 3024.55C6826.23 3047.86 6812.55 3059.57 6785.18 3059.57H6704.92C6677.56 3059.57 6663.88 3047.86 6663.88 3024.55C6663.88 3001.47 6677.56 2989.99 6704.92 2989.99H6719.63V2780.08L6562.78 3059.57H6501.52C6474.15 3059.57 6460.47 3047.86 6460.47 3024.55C6460.47 3001.47 6474.15 2989.99 6501.52 2989.99ZM7015.05 2918.32V2989.99H7076.93C7092.15 2989.99 7102.87 2993.23 7109.2 2999.61C7115.43 3005.99 7118.59 3014.34 7118.59 3024.78C7118.59 3035.21 7115.43 3043.56 7109.2 3049.94C7102.87 3056.32 7092.15 3059.57 7076.93 3059.57H6943.98C6928.77 3059.57 6918.04 3056.32 6911.71 3049.83C6905.48 3043.33 6902.32 3034.87 6902.32 3024.43C6902.32 3013.99 6905.48 3005.64 6911.71 2999.38C6918.04 2993.12 6928.77 2989.99 6943.98 2989.99H6953.78V2717.23H6943.98C6928.77 2717.23 6918.04 2713.98 6911.71 2707.6C6905.48 2701.23 6902.32 2692.88 6902.32 2682.44C6902.32 2672 6905.48 2663.65 6911.71 2657.27C6918.04 2650.9 6928.77 2647.65 6943.98 2647.65H7085.3C7126.76 2647.65 7159.64 2660.52 7183.94 2686.27C7208.15 2712.01 7220.3 2743.32 7220.3 2780.2C7220.3 2800.61 7216.21 2819.98 7208.04 2838.07C7201.81 2851.64 7191.5 2865.09 7177.1 2878.31C7162.6 2891.65 7147.9 2901.62 7132.79 2908.23C7117.78 2914.96 7097.86 2918.32 7073.15 2918.32H7015.05ZM7015.05 2848.74H7071.93C7098.68 2848.74 7119.82 2841.9 7135.54 2828.09C7151.17 2814.41 7159.03 2797.83 7159.03 2778.58C7159.03 2762.23 7152.7 2747.85 7140.04 2735.67C7127.38 2723.38 7109.2 2717.23 7085.71 2717.23H7015.05V2848.74ZM7627.23 2853.72C7627.23 2915.65 7609.87 2967.14 7575.25 3008.31C7540.53 3049.48 7500.5 3070 7454.96 3070C7413.91 3070 7377.05 3052.84 7344.07 3018.63C7303.32 2976.3 7282.9 2921.33 7282.9 2853.72C7282.9 2786.23 7303.32 2731.15 7344.07 2688.59C7377.05 2654.37 7413.91 2637.21 7454.96 2637.21C7500.5 2637.21 7540.53 2657.74 7575.25 2698.91C7609.87 2740.07 7627.23 2791.68 7627.23 2853.72ZM7565.96 2853.72C7565.96 2811.4 7554.62 2776.26 7532.06 2748.42C7509.39 2720.71 7483.76 2706.79 7454.96 2706.79C7426.27 2706.79 7400.74 2720.71 7378.07 2748.66C7355.5 2776.49 7344.17 2811.63 7344.17 2853.72C7344.17 2895.94 7355.5 2930.96 7378.07 2958.79C7400.74 2986.51 7426.27 3000.42 7454.96 3000.42C7483.76 3000.42 7509.39 2986.62 7532.06 2958.91C7554.62 2931.19 7565.96 2896.17 7565.96 2853.72ZM7734.56 2989.99V2717.23H7724.75C7709.54 2717.23 7698.82 2713.98 7692.49 2707.6C7686.26 2701.23 7683.09 2692.88 7683.09 2682.44C7683.09 2672 7686.26 2663.65 7692.49 2657.27C7698.82 2650.9 7709.54 2647.65 7724.75 2647.65H7878.84C7915.6 2647.65 7945.11 2659.25 7967.47 2682.44C7989.84 2705.63 8001.07 2733.23 8001.07 2765.12C8001.07 2780.32 7998.41 2794.58 7993.21 2807.92C7987.9 2821.25 7979.93 2833.66 7969.21 2844.91C7988.61 2858.13 8003.22 2873.44 8012.92 2890.95C8022.62 2908.46 8027.41 2928.41 8027.41 2950.56C8027.41 2968.18 8023.94 2984.65 8016.9 2999.84C8011.79 3011.32 8005.36 3020.49 7997.8 3027.33C7987.59 3036.84 7975.13 3044.61 7960.33 3050.52C7945.62 3056.55 7927.14 3059.57 7904.98 3059.57H7724.75C7709.54 3059.57 7698.82 3056.32 7692.49 3049.83C7686.26 3043.33 7683.09 3034.87 7683.09 3024.43C7683.09 3013.99 7686.26 3005.64 7692.49 2999.38C7698.82 2993.12 7709.54 2989.99 7724.75 2989.99H7734.56ZM7795.82 2818.82H7863.32C7887.52 2818.82 7907.64 2811.86 7923.57 2798.06C7934.39 2788.67 7939.8 2777.07 7939.8 2763.27C7939.8 2750.98 7934.7 2740.19 7924.49 2731.03C7914.28 2721.87 7898.14 2717.23 7875.88 2717.23H7795.82V2818.82ZM7795.82 2989.99H7901.82C7926.73 2989.99 7944.3 2985.81 7954.51 2977.46C7962.27 2971.08 7966.15 2962.04 7966.15 2950.21C7966.15 2936.18 7958.49 2922.38 7943.07 2908.81C7927.75 2895.24 7905.7 2888.4 7876.9 2888.4H7795.82V2989.99ZM8338.46 2947.54H8190.09L8174.98 2989.99H8189.68C8205 2989.99 8215.82 2993.23 8222.15 2999.61C8228.38 3005.99 8231.55 3014.34 8231.55 3024.78C8231.55 3035.21 8228.38 3043.56 8222.15 3049.94C8215.82 3056.32 8205 3059.57 8189.68 3059.57H8109.01C8093.8 3059.57 8083.08 3056.32 8076.75 3049.83C8070.52 3043.33 8067.35 3034.87 8067.35 3024.43C8067.35 3013.99 8070.52 3005.64 8076.75 2999.38C8083.08 2993.12 8093.8 2989.99 8109.01 2989.99L8205.82 2717.23H8165.99C8150.78 2717.23 8140.06 2713.98 8133.72 2707.6C8127.5 2701.23 8124.33 2692.88 8124.33 2682.44C8124.33 2672 8127.5 2663.65 8133.72 2657.27C8140.06 2650.9 8150.78 2647.65 8165.99 2647.65H8297.51L8419.64 2989.99C8434.85 2989.99 8444.56 2992.07 8448.74 2996.25C8457.12 3004.83 8461.3 3014.34 8461.3 3024.78C8461.3 3035.21 8458.14 3043.56 8451.91 3049.94C8445.58 3056.32 8434.85 3059.57 8419.64 3059.57H8338.87C8323.55 3059.57 8312.83 3056.32 8306.5 3049.83C8300.27 3043.33 8297.11 3034.87 8297.11 3024.43C8297.11 3013.99 8300.27 3005.64 8306.5 2999.38C8312.83 2993.12 8323.55 2989.99 8338.87 2989.99H8353.57L8338.46 2947.54ZM8313.65 2877.96L8264.33 2739.73L8215.01 2877.96H8313.65ZM8735.89 2889.09H8604.78V2989.99H8614.58C8627.76 2989.99 8637.46 2993.23 8643.79 2999.61C8650.02 3005.99 8653.18 3014.34 8653.18 3024.78C8653.18 3035.21 8650.02 3043.56 8643.79 3049.94C8637.46 3056.32 8627.76 3059.57 8614.58 3059.57H8543.51C8530.34 3059.57 8520.64 3056.32 8514.31 3049.83C8508.08 3043.33 8504.91 3034.87 8504.91 3024.43C8504.91 3013.99 8509.1 3004.71 8517.58 2996.36C8521.66 2992.07 8530.34 2989.99 8543.51 2989.99V2717.23C8530.34 2717.23 8520.64 2713.98 8514.31 2707.6C8508.08 2701.23 8504.91 2692.88 8504.91 2682.44C8504.91 2672 8508.08 2663.65 8514.31 2657.27C8520.64 2650.9 8530.34 2647.65 8543.51 2647.65H8614.58C8627.76 2647.65 8637.46 2650.78 8643.79 2657.04C8650.02 2663.3 8653.18 2671.65 8653.18 2682.09C8653.18 2692.53 8650.02 2700.99 8643.79 2707.49C8637.46 2713.98 8627.76 2717.23 8614.58 2717.23H8604.78V2819.51H8735.89V2717.23H8726.09C8712.92 2717.23 8703.22 2713.98 8696.89 2707.6C8690.66 2701.23 8687.49 2692.88 8687.49 2682.44C8687.49 2672 8690.66 2663.65 8696.89 2657.27C8703.22 2650.9 8712.92 2647.65 8726.09 2647.65H8797.16C8810.33 2647.65 8820.03 2650.78 8826.36 2657.04C8832.59 2663.3 8835.76 2671.65 8835.76 2682.09C8835.76 2692.53 8832.59 2700.99 8826.36 2707.49C8820.03 2713.98 8810.33 2717.23 8797.16 2717.23V2989.99C8810.33 2989.99 8818.91 2992.07 8822.89 2996.25C8831.47 3004.83 8835.76 3014.34 8835.76 3024.78C8835.76 3035.21 8832.59 3043.56 8826.36 3049.94C8820.03 3056.32 8810.33 3059.57 8797.16 3059.57H8726.09C8712.92 3059.57 8703.22 3056.32 8696.89 3049.83C8690.66 3043.33 8687.49 3034.87 8687.49 3024.43C8687.49 3013.99 8690.66 3005.64 8696.89 2999.38C8703.22 2993.12 8712.92 2989.99 8726.09 2989.99H8735.89V2889.09ZM8928.39 2989.99V2717.23C8903.06 2717.23 8890.4 2705.52 8890.4 2682.21C8890.4 2659.13 8904.08 2647.65 8931.45 2647.65H9011.71C9039.08 2647.65 9052.76 2659.13 9052.76 2682.21C9052.76 2705.52 9039.08 2717.23 9011.71 2717.23H8989.65V2927.13L9146.5 2647.65H9217.57C9244.93 2647.65 9258.62 2659.13 9258.62 2682.21C9258.62 2705.52 9244.93 2717.23 9217.57 2717.23H9207.77V2989.99C9223.8 2989.99 9235.34 2992.65 9242.49 2997.99C9249.53 3003.32 9253.1 3012.14 9253.1 3024.55C9253.1 3047.86 9239.42 3059.57 9212.06 3059.57H9131.79C9104.43 3059.57 9090.75 3047.86 9090.75 3024.55C9090.75 3001.47 9104.43 2989.99 9131.79 2989.99H9146.5V2780.08L8989.65 3059.57H8928.39C8901.02 3059.57 8887.34 3047.86 8887.34 3024.55C8887.34 3001.47 8901.02 2989.99 8928.39 2989.99ZM9414.35 2887.7V2989.99H9570.58V2952.41C9570.58 2935.13 9573.44 2922.96 9579.16 2915.77C9584.88 2908.69 9592.33 2905.1 9601.52 2905.1C9610.71 2905.1 9618.06 2908.69 9623.58 2915.77C9629.09 2922.96 9631.85 2935.13 9631.85 2952.41V3059.57H9343.28C9328.06 3059.57 9317.34 3056.32 9311.01 3049.83C9304.78 3043.33 9301.62 3034.87 9301.62 3024.43C9301.62 3013.99 9304.78 3005.64 9311.01 2999.38C9317.34 2993.12 9328.06 2989.99 9343.28 2989.99H9353.08V2717.23H9343.28C9328.06 2717.23 9317.34 2713.98 9311.01 2707.6C9304.78 2701.23 9301.62 2692.88 9301.62 2682.44C9301.62 2672 9304.78 2663.65 9311.01 2657.27C9317.34 2650.9 9328.06 2647.65 9343.28 2647.65L9618.98 2648V2753.41C9618.98 2770.69 9616.23 2782.87 9610.71 2790.06C9605.2 2797.13 9597.85 2800.73 9588.66 2800.73C9579.47 2800.73 9572.01 2797.13 9566.29 2790.06C9560.57 2782.87 9557.72 2770.69 9557.72 2753.41V2717.23H9414.35V2818.12H9468.26C9468.26 2800.84 9470.1 2789.94 9473.88 2785.42C9481.54 2775.68 9490.02 2770.81 9499.21 2770.81C9508.4 2770.81 9515.75 2774.4 9521.26 2781.48C9526.78 2788.67 9529.53 2800.84 9529.53 2818.12V2887.7C9529.53 2904.98 9527.7 2916 9524.02 2920.64C9516.67 2930.26 9508.4 2935.02 9499.21 2935.02C9490.02 2935.02 9481.54 2930.15 9473.88 2920.41C9470.1 2915.88 9468.26 2904.98 9468.26 2887.7H9414.35Z" fill="#3E4943" stroke="#55665E" stroke-width="2.83464" stroke-miterlimit="22.9256"/>
</svg>
