<svg width="28" height="23" viewBox="0 0 28 23" fill="none" xmlns="http://www.w3.org/2000/svg">
<path fill-rule="evenodd" clip-rule="evenodd" d="M2.31566 9.73586L16.8952 3.45585C23.838 0.568105 25.2805 0.0664796 26.2209 0.0499796C26.4278 0.0463546 26.8902 0.0976047 27.1897 0.340605C27.4427 0.545855 27.5122 0.823104 27.5455 1.0176C27.5788 1.2121 27.6203 1.65548 27.5873 2.00185C27.211 5.95485 25.583 15.548 24.7549 19.9755C24.4044 21.849 23.7149 22.4771 23.0464 22.5386C21.5945 22.6722 20.4922 21.5791 19.0859 20.6574L13.5068 16.9097C11.0384 15.2832 12.6385 14.3892 14.0453 12.9282C14.4134 12.5457 20.81 6.7276 20.9338 6.19973C20.9488 6.13373 20.9637 5.88773 20.8175 5.75773C20.6713 5.62773 20.4554 5.67273 20.2998 5.7076C20.0792 5.75773 16.5642 8.08098 9.75465 12.6776C8.7569 13.3627 7.85315 13.6966 7.04353 13.6791C6.1509 13.6599 4.4339 13.1744 3.15741 12.7595C1.59175 12.2506 0.347401 11.9815 0.455801 11.1171C0.512201 10.667 1.1322 10.2065 2.31566 9.73586Z" fill="white"/>
</svg>
