<svg width="23" height="21" viewBox="0 0 23 21" fill="none" xmlns="http://www.w3.org/2000/svg">
<path d="M16.875 12.5764C16.625 12.4639 15.3125 11.7889 15.0625 11.7326C14.8125 11.6201 14.625 11.6201 14.4375 11.8451C14.25 12.0701 13.6875 12.6326 13.5625 12.7451C13.375 12.9139 13.25 12.9139 13 12.8014C12.75 12.6889 11.875 12.4076 10.875 11.5076C10.125 10.8326 9.5625 10.0451 9.4375 9.76388C9.3125 9.53888 9.4375 9.37013 9.5625 9.25763C9.6875 9.14513 9.8125 8.97638 10 8.86388C10.1875 8.75138 10.1875 8.63888 10.3125 8.47013C10.4375 8.30138 10.375 8.18888 10.3125 8.02013C10.25 7.85138 9.75 6.67014 9.5625 6.16389C9.375 5.65764 9.125 5.77014 9 5.71389C8.8125 5.71389 8.6875 5.65764 8.5 5.65764C8.25 5.65764 7.9375 5.77014 7.75 5.93889C7.5 6.16389 6.75 6.72638 6.75 7.90763C6.75 9.08888 7.625 10.3264 7.75 10.4389C7.875 10.6076 9.5 13.1951 12.1875 14.2639C14.875 15.3326 14.875 14.9951 15.375 14.9951C15.875 14.9951 17 14.4326 17.25 13.9264C17.5 13.3639 17.5 12.8576 17.4375 12.8014C17.3125 12.8014 17.125 12.7451 16.875 12.5764ZM11.875 18.3701C10.125 18.3701 8.5 17.9201 7.0625 17.0764L3.6875 18.0326L4.8125 15.1076C3.75 13.7576 3.125 12.1264 3.125 10.4389C3.125 6.05138 7.0625 2.50764 11.9375 2.50764C16.8125 2.50764 20.6875 6.05138 20.6875 10.4389C20.6875 14.8264 16.75 18.3701 11.875 18.3701ZM11.875 0.932617C6.0625 0.932617 1.3125 5.20763 1.3125 10.4389C1.3125 12.1826 1.8125 13.8701 2.8125 15.3326L0.875 20.4514L6.75 18.7639C8.3125 19.5514 10.0625 19.9451 11.875 19.9451C17.6875 19.9451 22.4375 15.6701 22.4375 10.4389C22.4375 5.20763 17.75 0.932617 11.875 0.932617Z" fill="white"/>
</svg>
