<?xml version="1.0" encoding="UTF-8"?>
<!DOCTYPE svg PUBLIC "-//W3C//DTD SVG 1.1//EN" "http://www.w3.org/Graphics/SVG/1.1/DTD/svg11.dtd">
<!-- Creator: CorelDRAW 2019 (64-Bit) -->
<svg xmlns="http://www.w3.org/2000/svg" xml:space="preserve" width="2170.96mm" height="542.891mm" version="1.1" style="shape-rendering:geometricPrecision; text-rendering:geometricPrecision; image-rendering:optimizeQuality; fill-rule:evenodd; clip-rule:evenodd"
viewBox="0 0 217096.34 54289.08"
 xmlns:xlink="http://www.w3.org/1999/xlink"
 xmlns:xodm="http://www.corel.com/coreldraw/odm/2003">
 <defs>
  <style type="text/css">
   <![CDATA[
    .str3 {stroke:#55665E;stroke-width:75;stroke-miterlimit:22.9256}
    .str2 {stroke:#94A384;stroke-width:75;stroke-miterlimit:22.9256}
    .str1 {stroke:#94A384;stroke-width:50;stroke-miterlimit:22.9256}
    .str0 {stroke:#2E2E2D;stroke-width:20;stroke-miterlimit:22.9256}
    .fil0 {fill:#2E2E2D}
    .fil2 {fill:#3E4943}
    .fil1 {fill:#55665E}
    .fil4 {fill:#3E4943;fill-rule:nonzero}
    .fil3 {fill:#55665E;fill-rule:nonzero}
   ]]>
  </style>
 </defs>
 <g id="Слой_x0020_1">
  <metadata id="CorelCorpID_0Corel-Layer"/>
  <g id="_1021417216">
   <polygon class="fil0 str0" points="10,10 217086.34,10 217086.34,54279.08 10,54279.08 "/>
   <g>
    <g>
     <path class="fil1 str1" d="M42724 44845.93l248.38 137.07c-145.14,108.6 -3252.86,-875.84 -3661.97,-990.67 33.46,-36.76 -29.39,-76.89 205.23,-64.1l704.29 128.34c963.49,213.03 1649.73,510.31 2504.07,789.36zm-15646.45 176.43c240.64,-302.83 3161.81,-1152.29 3579.6,-1092.19 187.72,27.02 56.15,3.13 107.24,54.52l-3686.84 1037.67zm17127.93 -3599.61c1089.47,-107.74 2171.58,-193.05 3266,-162.92 193.99,5.34 348.03,13.17 534.27,29.84 516.93,46.24 370.4,21.35 413.82,115.89 -1122.81,-11.16 -2143.4,94.27 -3215.04,99.76 -179.09,0.92 -356.89,-6.32 -535.84,-10.49 -86.33,-2 -207.62,2.79 -288.85,-4.42 -139,-12.32 -118.36,-24.42 -174.36,-67.66zm-22600.75 -48.99c326.31,-192.22 3848.24,-116.81 4125.4,84.22 -176.45,82.36 -3965.39,-17.25 -4125.4,-84.22zm17243.92 1781.81c54.28,-257.27 280.6,-757.68 387.55,-1016.42 120.37,-291.22 274.74,-660.06 418.55,-962.9 147.58,-310.78 273.88,-638.27 426.23,-952l401.64 -888.4c15.51,295.31 -538.9,1740.28 -673.58,2037.72l-678.01 1373.42c-94.4,185.47 -152.86,321.35 -282.38,408.58zm-9037.98 -3343.09c50.81,173.55 245.28,591.04 330.35,777.77 133.29,292.58 211.18,503.04 340.09,793.53 108.36,244.21 841.43,1697.51 751.32,1885.63 -109.27,-98.25 -130.63,-143.76 -175.33,-311.78 -87.93,-204.11 -258.02,-466.51 -383.64,-720.21 -263.43,-532.08 -825.89,-1777.64 -969.23,-2343.75l-106.44 -303.39c-28.42,-124.31 -58.15,-170.65 4.11,-273.66l208.77 495.86zm14441.58 -3401.79l23.93 544.64c-28.21,331.91 -11.87,690.97 -35.65,1014.19 -36.04,489.95 -269.67,2519.46 -437.33,2726.72 -80.91,-131.26 14.65,-727.88 28.74,-880.98 27.71,-301 64.92,-629.87 88.75,-927.27 26.7,-333.45 183.44,-2273.95 331.56,-2477.3zm-17973.79 4235.59c-212.2,-122.35 -666.47,-3760.03 -398.85,-4171.32 66.54,459.3 452.68,3946.12 398.85,4171.32zm22184.35 -2984.03c135.71,-77.05 648.29,-215.62 870.47,-284.22 679.16,-209.75 2233.54,-564.58 2878.12,-508.66 -144.54,113.47 -1520.24,390.92 -1820.46,446.11 -614.17,112.92 -1290.45,383.87 -1928.13,346.77zm-27328.02 -153.16c176.48,22.09 391,74.92 501.05,158.84 -51.14,33.04 69.12,28.99 -129.68,46.31 -22.02,1.92 -129.39,-8.54 -157.19,-11.79 -42.1,-4.92 -96.35,-10.84 -136.25,-24.69 -65.34,-22.69 -69.85,-38.36 -98.42,-58.51 -212.95,3.84 -2310.97,-487.29 -2842.07,-614.52 -156.8,-37.55 -249.59,-45.29 -362.64,-141.91 837.66,-30.75 2488.87,389.53 3225.2,646.27zm979.9 -336.19c-80.88,-303.23 44.77,-3702.56 308.97,-4031.42 4.32,803.65 -79.09,2296.2 -155.16,3142.55 -19.21,213.81 11.04,829.98 -153.81,888.87zm25810.07 -35.52c-54.74,-87.8 -424.22,-3815.96 -288.51,-4011.31 285.07,728.41 431.75,3687.21 288.51,4011.31zm-29596.37 -3941.72c-277.65,-41.55 -1282.46,-604.42 -1629.64,-765.31 -286.14,-132.6 -480.82,-256.74 -800.17,-400.38 -169.43,-76.22 -251.79,-118.32 -418.4,-208.95 -76,-41.34 -129.33,-66.23 -195.73,-97.61l-180.51 -126.91c586.62,52.14 3103.61,1284.62 3224.45,1599.16zm34152.36 -514.32c706.18,-407.44 1916.22,-1041.78 2684,-1150.56l-2617.13 1298.87c-177.25,80.58 -719.99,432.15 -851.79,332.32l784.92 -480.63zm-1818.14 -1385c62.39,211.11 387.59,1468.14 353.32,1557.77 -135.73,-140.98 -929.21,-2617.06 -965.03,-2988.91 130.16,65.94 142.42,59.4 243.76,285.52 198.76,443.53 236.61,700.88 367.95,1145.62zm-31609.97 1548.37c-58.09,-488.67 765.84,-3066.67 1211.21,-3841.5 -27.6,284.63 -179.1,731.93 -269.85,1014.14 -244.03,758.78 -614.29,2269.56 -941.36,2827.36zm33443.24 -5617.18c145.27,136.43 361.62,447.11 430.92,689.33 -176.44,-66.61 -177.82,-135.67 -285.35,-290.85 -282.9,-408.46 -615.74,-814.57 -914.23,-1214.23 -94.97,-127.13 -159.05,-190.93 -218.71,-342.02 226.6,85.14 736.73,922.39 987.37,1157.77zm3823.41 -1464.08l-1187.66 1159.92c-116.18,108.67 -163.39,185.78 -292.21,291.39 -277.99,227.87 -669.46,758.15 -954.42,832.25 56.23,-201.45 445.71,-553.61 559.96,-688.14 183.96,-216.62 297.22,-335.63 566.38,-600.2 377.7,-371.26 950.46,-866.34 1364.89,-1135.36 48.6,-31.54 63.99,-27.54 124.94,-45.21 -90.7,194.47 -25.21,124.15 -181.88,185.35zm-40299.62 2034.88c130.75,84.08 341.42,348.37 385.88,484.83 -134.93,-55.21 -266.63,-176 -361.01,-278.66 -64.35,-69.99 -59.15,-70.76 -97.73,-129.69 -116.61,-25.01 -93.33,-24.49 -184.37,-130.65 -75.77,-88.34 -60.2,-69.83 -147.05,-144.47l-2095.72 -2058.29c343.73,91.3 1111.01,814.27 1348.68,1052.41 208.54,208.99 397.13,396.03 608.1,600.34 101.55,98.34 463.82,464.16 543.22,604.18zm1143.08 148.67c32.32,-325.94 801.22,-1436.13 990.48,-1705.39 371.7,-528.86 778.76,-1078.84 1199.59,-1446.41 -46.2,106.2 -175.89,301.25 -241.21,404.47 -246.67,389.82 -1861.81,2694.42 -1948.86,2747.33zm36231.87 -5535.31c-203.21,-14.21 -605.7,-371.6 -772.08,-492.53 -330.85,-240.48 -2104.85,-1647.17 -2151.52,-1740.88 579.5,148.07 2846.57,1996.4 2923.6,2233.41zm-36678.49 -19.99c168.18,-395.62 2509.75,-2152.41 2898.25,-2246.39 -84.01,142.73 -215.99,230.41 -349.48,325.13 -511.84,363.21 -2272.16,1887.14 -2548.77,1921.26zm-2271.98 -2659.7c34.84,86.08 142.59,187.07 213.67,299 371.46,584.89 601.16,1135.92 915.09,1756.79 67.54,133.59 322.41,556.05 244.86,705.61 -239.26,-420.43 -539.04,-851.81 -761.18,-1313.74 -78.23,-162.69 -67.07,-257.1 -131.86,-414.62 -80.59,-195.89 -473.1,-753.82 -544.7,-973.97l-85.44 -110.7c-4.73,-9.04 -8.69,-20.03 -12.76,-29.17 -26.54,-59.64 -27.35,-83.7 -44.36,-139.89 131.87,64.19 55.02,5.75 206.68,220.69zm39803.47 2792.91c-81.99,93.56 9.12,16.87 -94.1,62.19 46.37,-487.51 1169.4,-2385.03 1462.97,-2874.79 168.17,-280.55 357.14,-496.23 532.63,-763.36 -2.7,168.9 -1128.99,2227.88 -1339.64,2591.18 -140.23,241.87 -407.67,808.8 -561.86,984.78zm-5470.16 -6374.04c52.55,-32.8 -52.68,-42.16 129.56,-43.2 221.27,-1.22 1614.02,507.24 1795.29,574.82 363.14,135.36 1391.15,599.06 1687.07,813.92 -136.19,68.36 -1545.9,-532.56 -1781.02,-636.24l-1830.9 -709.3zm-30701.07 1236.89c-85.26,96.41 -308.27,183.78 -435.79,108.65 89.89,-98.19 211.75,-131.53 359.16,-169.13 149.75,-124.35 2928.94,-1375.81 3265.82,-1174.58 -456.53,152.03 -3025.9,1225.71 -3189.19,1235.06zm35041.53 -72.54c-121.27,-252.28 604.8,-3518.28 906.76,-3892.55 15.57,33.55 27.33,17.9 20.84,106.54 -1.49,20.47 -28.4,112.73 -33.18,127.86 -235.89,745.46 -628.7,3228.58 -894.42,3658.15zm-36227.51 -433.57l60.37 141.4c25.47,109.06 30.04,246.08 -20.18,331.71 -93.65,-106.3 -111.18,-307.32 -134.06,-464.2 -34.81,-299.95 -147.59,-541.32 -216.8,-845.51l-559.31 -2637.8c81.83,95.23 112.84,227.49 166.73,379.19 263.45,741.46 753.52,2427.45 703.25,3095.21zm30192.02 -4017.55c295.91,-185.29 2540.67,190.37 2919.22,276.1 204,46.19 237.91,0.3 310.68,145.03 -178.84,87.37 -1317.83,-132.37 -1605.79,-172.53l-1474.6 -178.28c-39.48,-7.54 -51.15,-12.87 -94.34,-31 -6.95,-2.93 -22.63,-5.07 -27.5,-18.71 -5.04,-14.11 -18.31,-13.92 -27.67,-20.61zm-27337.49 412.23c280.07,-323.81 3000.13,-473.53 3616.76,-450.37 -125.89,78.14 -3300.3,494.81 -3616.76,450.37zm31312.2 -519.37c-79.96,-221.46 -90.03,-766.63 -92.86,-1029.87 -1.96,-182.59 0.09,-364.96 -1.83,-547.45l8.47 -420.87c14.41,-68.93 30.28,-72.72 45.01,-97.27 50.65,93.52 54.62,123.69 66.89,228.85 38.04,326.68 -30.01,341.9 -12.07,633.28 57.57,304.99 11.53,127.46 -13.61,1233.33zm-32073.47 -2358.32c-0.14,-292.69 -63.7,-1293.28 102.68,-1426.15l88.8 849.6c-46.05,794.89 38.32,2487.79 -168.38,3118.5 -33.49,-445.59 -57.7,-840.88 -48.67,-1297.8 7.48,-378.67 65.01,-879.52 25.57,-1244.15zm29820.01 -178.78c-229.5,-57.04 -2859.61,-1864.66 -2959.57,-2041.07 519.91,110.43 1817.68,1079.36 2308.48,1462.77 155.22,121.27 584.8,425.98 651.09,578.3zm-27549.17 -6.82c172.72,-317.54 2511.05,-1940.16 3017.91,-2062.82 -95.24,133.11 -1242.67,924.86 -1467.28,1072.67 -315.58,207.68 -1336.51,978.25 -1550.63,990.15zm7865.4 32995.82c107.64,84.44 103.01,71.7 -75.07,78.95 -609.26,-30.53 -1730.22,491.8 -2191.67,811.15 -628.51,434.98 -1118.48,936.84 -1545.5,1528.08 101.32,85.35 1584.06,415.64 1845.1,464.79 1525.86,287.4 2461.98,357.62 3770.9,-528.26 804.25,-544.35 891.03,-964.67 1174.28,-1188.08l1455.13 493.55c-88.38,60.02 -119.45,59.47 -220.27,86.49 -557.72,149.31 -1097.84,363.93 -1616.59,618.6 -379.53,186.32 -1289.99,771.36 -1438.6,1105.72 89.66,174.49 362.4,397.73 501.43,457.16 288.61,-175.46 641.33,-712.13 1891.93,-1180.33 382,-143.02 2036.41,-716.13 2353.58,-716.2 250.55,-0.06 2039.69,600.1 2352.76,716.22 727.48,269.88 1352.23,707.32 1892.15,1187.84 180.55,-66.21 468.8,-353.66 559.26,-494.22 -601.1,-464.61 -470.66,-538.8 -1468.27,-1065.56 -596.25,-314.85 -1212.48,-473.52 -1867.7,-699.94 234.99,-153.64 489.03,-185.45 755.2,-274.81 211.06,-70.85 548.92,-200.37 743.83,-231.85 87.23,90.33 133.63,199.11 220.3,307.96 86.2,108.26 174.99,209.16 268.15,315.34 546.03,622.4 1394.86,1138.49 2255.48,1237.44 1233.38,141.79 2381.11,-185.13 3541.97,-467.04l449.95 -144.82c-117.3,-244.3 -533.13,-696.15 -701.82,-859.08 -1423.38,-1374.52 -3001.73,-1462.23 -3091.65,-1541.28 184.74,-158.2 784.68,-400.57 1049.01,-554.9 188.23,-109.93 923.94,-558.8 1078.15,-587.37 133.5,217.63 115.02,210.69 307.59,365.02 1024.33,820.87 2305.11,1146.45 3590.79,843.26 1136.29,-267.96 2167.11,-910.68 3067.05,-1624.14 135.82,-107.69 274.31,-213.42 383.24,-336.89l-441.42 -321.46c-194.47,-109.63 -323.34,-181.97 -479.86,-268.06 -1282.67,-705.54 -2457.75,-601.86 -3848.39,-449.21 68.76,-122.97 1156.6,-1038.17 1408.97,-1245.43 172.1,-141.34 284.16,-282.35 463.3,-444.97 365.25,52.98 1779.58,1268.05 3964.34,208.34 826.93,-401.09 1462.5,-1035.1 2160.79,-1621.86 124.47,-104.6 593.4,-497.86 662.45,-615.99 -236.9,-286.36 -1678.42,-646.33 -2212.36,-681.6 -673.63,-44.52 -1292.3,65.57 -1923.56,237.52 -172.57,47.02 -366.67,151.91 -549.41,191.38 101.96,-218.79 557.63,-755.31 726.91,-983.53 226.16,-304.9 514.67,-681.2 669.01,-1040.47 282.96,10.36 690.98,135.65 1035.14,173.53 1952.02,214.87 3324.89,-1441.95 4312.23,-2924.35 123.07,-184.78 434.06,-536.59 471.02,-741.42 -1283.76,-322.11 -2808.17,-186.12 -3943.21,563.26 -124.59,82.26 -297.25,235.83 -418.15,273.61l434.84 -1098.13c115.5,-272.01 267.26,-945.92 421.37,-1118.16 235.55,-113.62 1915.27,181.92 3222.11,-1519.48 398.47,-518.77 1332.73,-2687.28 1345.81,-3459.25 -720.98,-368.07 -2197.36,479.08 -2777.32,902.02 -299.73,218.58 -541.72,504.54 -803.72,779.13 -92.42,96.85 -239.23,365.39 -360.59,422.6 2.16,-712.23 149.92,-2033.16 214.48,-2806.35l791.8 -323.45c684.13,-333.36 1436.33,-1000.76 1744.98,-1754.53 528.59,-1290.85 488.74,-2860.03 461.54,-4233.63 -566.64,82.51 -1630.43,931.31 -1984.74,1327.4 -1032.66,1154.46 -1015.98,1896.77 -1194.91,2133.94 -100.68,-160.45 -183.45,-957.77 -236.22,-1226.21 -69.78,-354.68 -259.29,-866.88 -272.65,-1216.88 501.37,-288.21 858.5,-657.82 1183.38,-1148.62 787.28,-1189.33 823.46,-2369.7 456.54,-3784.43 -155.14,-598.21 -314.8,-1323.49 -524.95,-1859.9 -570.65,130.76 -1634.97,1716.17 -1873.86,2566.91 -88.6,315.44 -243.4,903.38 -247.24,1229.89 -31.87,142.35 29.93,49.66 -68.39,128l-72.28 -166.61c-140.54,-507.47 -581.21,-1039 -696.78,-1456.19 82.76,-130.17 173.79,-188.7 291.89,-294.8 155.45,-139.63 120.89,-168.5 228.49,-355.22 938.46,-1628.29 693.21,-3032.57 -175.21,-4626.68 -107.99,-198.19 -805.69,-1469.44 -877.81,-1534.11 -304.72,239.77 -816.41,1306.88 -957.17,1832.69 -341.04,1273.98 -120.3,1419.56 -101.79,2540.04 -139.39,-73.43 -187.17,-198.07 -300.05,-342.11 -566.11,-722.45 -65.72,-358.53 -575.21,-1350.96 -446.91,-870.59 -1068.83,-1478.52 -1863.64,-1969.45 -958.85,-592.26 -1959.94,-749.3 -3121.44,-706.35 36.36,413.56 1306.87,2577.61 1602.87,2932.44 1387.5,1663.24 2932.42,1221.26 3210.08,1356.56 119.12,129.71 524.95,599.47 570.73,779.66 -621.66,-92.07 -991.46,-507.58 -2503.97,-326.86 -627.33,74.94 -1697.22,499.21 -2161.11,822.02 680.99,586.9 1757.17,1411.13 2564.19,1759.8 873.33,377.28 1719.13,546.63 2722.71,193.53 221.47,-77.93 618.07,-306.07 831.37,-288 166.13,223.51 893.79,1745.53 906.49,1928.12l-996.57 -578.1c-258.58,-140.55 -835.77,-330.24 -1168.87,-404.26 -417.2,-92.73 -999.56,-129.2 -1455.23,-83.77 -219.18,21.86 -459.68,50.87 -666,102.37 -102.42,25.58 -176.48,58.32 -285.49,89.71 -108.15,31.15 -210.33,48.54 -286.56,123.97 196.94,352.24 1189.82,1488.25 1554.78,1860.03 603.22,614.49 1164.52,1143.73 2120.32,1333.49 1119.76,222.32 1081.43,19.55 2007.02,-71.44 194.75,550.68 431.88,1712.75 466.69,2357.21 -419.15,-229.11 -1292.17,-1999.09 -4362.08,-1996.85 136.78,663.91 1189.62,2687.42 1534.84,3141.94 367.01,483.25 639.47,747.38 1227.67,1061.1 624.87,333.3 1184.59,323.65 1818.94,498.86 27.72,879.73 -107.92,1870.03 -205.57,2713.43 -275.29,-72.08 -767.28,-1731.91 -2475.22,-2626.85 -294.97,-154.57 -859.64,-431.1 -1214.67,-472.99 16.14,300.76 70.52,682.63 113.83,969.3 49.95,330.59 69.14,670.84 119.15,1016.98 287.08,1986.86 892.62,2990.99 2810.41,3818.72 -0.82,161.12 -361.27,1140.68 -439.33,1317.16 -91.56,207.02 -165.07,434.49 -248.37,628.12 -76.61,178.1 -150.33,442.29 -299.15,565.76 -69.01,-231.79 -52.16,-796.16 -255.67,-1452.41 -268.21,-864.96 -705.31,-1551.73 -1284.63,-2180.95 -146.44,-159.06 -754.21,-704.03 -969.21,-771.73 -48.52,654.41 -247.33,1219.88 -338.38,1850.49 -101.13,700.31 -155.67,1337.72 -81.78,2063.72 62.56,614.68 360.48,1199.32 648.07,1573.88 842.57,1014.24 581.81,588.01 1103.28,1121.64 -36.28,113.98 -117.92,211.97 -175.84,300.84 -206.21,316.41 -1236.18,1830.18 -1450.17,1929.38 15.1,-536.26 124.68,-718.54 100.7,-1557.85 -25.75,-902.73 -353.84,-1831.3 -811.73,-2555.84 -136.33,-215.72 -558.39,-859.82 -729.86,-951 -28.88,32.63 -32.17,24.53 -61.7,77.5 -18.15,32.54 -32.38,76.31 -46.94,116.16 -176.92,484.36 -442.13,952.81 -641.44,1412.47 -722.34,1665.86 -956.43,3001.04 -66.77,4631.47 164.06,300.64 341.04,452.76 487.44,723.82 -104.01,222.35 -780.31,761.49 -991.32,966.29 -105.05,101.96 -1000.81,856.35 -1102.36,881.21 47.44,-391.86 262.16,-904.54 324.99,-1383.92 167.12,-1274.99 -90.44,-2732.05 -760.67,-3817.45l-191.19 -270.52c-191.21,159.55 -838.65,1170.86 -1018.9,1446.61 -953.29,1458.27 -1669.55,2944.39 -1017.19,4723.36 70.26,191.6 338.78,755.31 354.9,920.6 -513.85,215.84 -2235.73,1310.33 -2627.78,1322.6 204.12,-344.39 466.34,-611.84 663.64,-976.1 714.15,-1318.6 868.86,-2774.59 491.46,-4252.28 -339.71,99.2 -1355.8,1006.07 -1723.13,1310.16 -1172.43,970.6 -1838.1,2009.87 -1805.69,3677.82 6.42,330.59 145.7,861.72 122.57,1094.6 -242.22,119.03 -2467.96,791.54 -2716.25,793.68 -229.51,1.98 -2512.7,-689.32 -2744.34,-804.07 64.79,-750.22 350.93,-884.35 96.4,-2160.26 -363.3,-1821.1 -1846.25,-2616.89 -3112.13,-3690.51 -96.46,-81.81 -252.35,-218.55 -348.81,-217.67 -366.38,1902.68 -221.94,3120.46 778.61,4706.25 132.7,210.32 278.43,298.69 347.32,494.95 -200.14,-18.18 -1168.4,-517.95 -1343.31,-612.55 -406.88,-220.12 -853.41,-526.65 -1265.64,-690.44 36.68,-238.11 277.52,-629.34 357.7,-874.13 729.37,-2226.75 -281.86,-3794.94 -1502.66,-5491.87l-533.8 -732.48c-8.45,7.21 -21.76,6.59 -25.1,21.95l-141.32 243.69c-772.8,1538.86 -1036.12,2838.43 -622.74,4595.93 46.81,198.99 196.66,526.37 197.35,651.04 -143.35,-61.42 -2025.01,-1612.26 -2129.3,-1876.49 265.86,-491.99 493.53,-489.66 850.72,-1490.96 642.36,-1800.56 -103.54,-3050.7 -778.51,-4645.21 -61.69,-145.75 -111.7,-269.14 -182.17,-407.3 -68.86,-135 -122.19,-313.11 -218.89,-403.04 -441.9,333.2 -978.54,1373.11 -1183.52,1907.03 -169.1,440.53 -248.53,728.18 -304.71,1249.2l12.61 1449.35c8.5,87.29 17,174.57 25.5,261.87l39.5 216.78 -163.7 -177.01c-329.02,-409.67 -1311.11,-1598.36 -1464.29,-2087.66 362.95,-417.52 595.54,-436.22 1084.9,-1112.32 811.16,-1120.72 753.95,-2290.64 553.17,-3645.46 -50.78,-342.77 -256.48,-1620.58 -371.74,-1845.91 -514.99,202.1 -1389.21,1264.96 -1689.49,1761.38 -181.2,299.57 -424.08,816.51 -524.45,1183.68 -110.1,402.66 -168.61,878.67 -228.63,1297.71l-71.59 169.25c-119.89,-164.06 -917.89,-2264.92 -915.83,-2524.84 185.49,-127.22 505.24,-190.63 739.04,-348.74 659.79,-446.17 1279.08,-917.66 1584.23,-1709.56 433.38,-1124.68 619.34,-2489.25 704.09,-3735.76 -740.62,64.48 -1722.71,718.08 -2239.18,1199.11 -972.97,906.21 -939.57,1282.97 -1339.43,1958.22 -30.13,50.89 -33.53,46.46 -57.89,73.52 -159.37,-306.83 -267.31,-2394.98 -262.6,-2887.12 1241.44,-13.81 2364.96,-579.38 3068.5,-1537.66 471.66,-642.45 868.03,-1502.34 1181,-2288.02 88.34,-221.79 320.54,-635.64 342.72,-829.83 -1450.01,-120.53 -3008.37,520.71 -3958.52,1556.96 -101.33,110.48 -313.33,373.65 -419.18,426.62 -4.72,-401.74 341.04,-2017.75 465.66,-2356.82 245.83,7.36 629.68,135.91 940.95,157.2 1990.19,136.09 3148.87,-1271.45 4273.46,-2663.7 152.36,-188.62 411.18,-435.03 502.83,-650.15 -1286.73,-380.67 -2641.86,-456.84 -3902.06,209.18 -158.16,83.6 -352.24,180.08 -511.3,278.11 -177.32,109.28 -312.39,267.35 -470.26,329.95 5.98,-230.15 753.43,-1725.54 933.21,-1969.21 224.98,7.07 553.63,202.28 793.89,291.38 1802.38,668.4 3335.12,-461.65 4687.59,-1464.28 167.64,-124.27 557.2,-352.61 627.72,-513.83 -731.79,-254.86 -1000.55,-602.08 -2112.72,-783.21 -401.14,-65.33 -951.69,-58.67 -1357.56,-6.29 -465.38,60.03 -827.18,259.02 -1213.92,305.22 86.17,-235.91 413.04,-579.04 582.71,-771.66 839.43,-37.21 1109.55,-34.05 1907.44,-338.34 280.78,-107.07 486.63,-258.81 699.04,-420.14 288.84,-219.37 366.07,-339.83 579.37,-587.97 346.32,-402.93 1587.4,-2540.17 1646.78,-2939.69 -881.49,-3.87 -1489.83,25.62 -2267.68,281.39 -541.3,177.99 -1295.41,661.43 -1607.71,970.89 -383.03,379.52 -873.56,843.68 -1148.63,1439.38 -69.24,149.9 -124.38,265.33 -189.51,437.23 -89.37,235.8 -69.96,312.65 -126.74,550.59 -27.25,114.2 -483.29,673.06 -540.27,725.76 13.18,-1053.89 270.33,-1182.2 -88.46,-2478.44 -106.56,-384.97 -232.85,-700.55 -394.85,-1032.01l-558.91 -873.45c-192.08,166.48 -776.59,1294.69 -891.11,1503.17 -294.36,535.89 -494.79,1027.9 -694,1689.4 -341.49,1133.95 53.08,2370.6 724.1,3259 101.5,134.36 194.47,199.89 287.72,341.26 -28.79,109.45 -717.07,1498.41 -786.83,1588.02 -91.98,-138.09 -69.78,-436.17 -105.06,-647.01 -160.19,-957.34 -640.13,-1860.04 -1247.01,-2549.29 -130.18,-147.84 -630.75,-670.4 -791.14,-749.62 -108.76,130.39 -486.72,1723.96 -519.87,1873.66 -149.96,676.98 -308.06,1344.57 -237.69,2106.31 168.83,1827.37 1836.42,2853.24 1855.27,2925.98 -33.82,292.75 -174.68,816.96 -244.72,1121.46 -100.92,438.69 -147.98,711.04 -207.97,1182.67 -207.82,-269.78 -338.57,-791.02 -562.77,-1083.05 -736.46,-959.15 -492.96,-928.79 -1592.26,-1741.23 -176.39,-130.36 -847.31,-518.79 -1085.31,-565.34 -28.79,348.4 -20.44,1993.45 26.02,2326.82 101.62,729.21 162.72,1289.84 436.53,1907.95 250.5,565.47 641.11,954.42 1041.46,1292.28 671.34,566.57 1088.49,531.53 1503.77,822.41l77.01 1390.25c36.02,462.67 111.24,896.8 135.69,1355.63 -150.74,-76.83 -700.65,-915.69 -1646.98,-1491.99 -505.88,-308.07 -1659.69,-759.47 -2387.93,-741.46l584.04 1867.59c467.75,1207.82 913.07,2221.72 2109.58,2814.46 681.74,337.72 1133.77,432.15 1993.82,455.81l597.35 1655.61c77.69,169.96 188.64,359.53 220.29,523.07 -180.59,-33.04 -258.96,-139.04 -416.66,-238.14 -1151.59,-723.74 -2683.26,-917.86 -3974.86,-547.43 95.82,205.69 840.15,1209.71 988.52,1409.46 761.19,1024.71 1419.93,1865.11 2770.34,2142.44 1348.65,276.94 1156.91,1.49 2089.22,-69.04 260.22,508.1 671.62,1030.41 1012.39,1486.57 58.26,77.98 115.51,166.93 174.27,243.87 93.23,122.08 135.43,108.41 207.8,258.41 -523.88,-61.74 -1105.89,-485.73 -2474.91,-395.06 -1126.81,74.62 -1436.06,396.78 -2227.72,639.35 98.73,231.86 1782.13,1597.62 2020.78,1772.28 1415.74,1036.11 2696.58,1204.45 4340.77,509.07 180.59,-76.4 303.37,-190.91 442.61,-218.46l1926.52 1716.97c-369.63,-7.27 -833.06,-149.99 -1390.72,-152.51 -1139.72,-5.14 -2144.59,340.22 -3092,920.45 -82.15,50.32 -423.88,278.17 -480.24,337.64 306.86,320.69 2019.82,1267.24 2559.97,1500.78 1854.26,801.76 2999.09,599.68 4624.06,-463.67 166.93,-109.23 203.95,-200.81 344.92,-353.6 550.17,146.81 1523.02,987.83 2091.48,1109.47z"/>
     <path class="fil2 str1" d="M25608.63 16616.32c-15.54,1376.38 78.24,2604.53 115.66,3931.48 69.19,2452.9 388.85,3979.87 1081.03,6238.36 744.69,2429.85 2521.52,5127.44 4127.78,6737.26 304.84,305.52 596.62,553.95 935.75,855.24 347.97,309.12 648.78,571.77 988.21,842.66 521.2,415.99 587.1,401.18 1063.64,723.48 295.86,200.09 877.27,615.92 1232.26,445.27 1054.31,-506.82 1339.83,-748.85 2172.98,-1398.15 1416.41,-1103.88 2492.06,-2256.09 3522.01,-3729.94 1598.9,-2288.04 2621.52,-4836.09 3101.79,-7786.18 170.37,-1046.52 237.4,-2276.8 293.25,-3350.67 30.52,-586.67 169.17,-3087.95 102.34,-3505.46 -846.76,-235.85 -1753.1,-275.09 -2594.23,-473.86 -2023.83,-478.3 -2705.71,-610.47 -4647.56,-1477.04 -2591.46,-1156.46 -1701.96,-1233.52 -3176.15,-499.52 -885.65,440.97 -2336.94,1084.33 -3243.59,1357.07 -812.9,244.54 -1573.63,455.43 -2443.46,618.72 -872.79,163.83 -1801.82,270.41 -2631.71,471.28zm1197.04 1152.25c175.39,-125.62 861.41,-203.79 1101.36,-245.38 370.25,-64.16 791.66,-138.52 1142.74,-210.03 1691.21,-344.47 2539.49,-581.02 4097.74,-1289.7 325.03,-147.84 606.96,-244.69 921.92,-408.75 1322.23,-688.73 543.2,-580.85 2762.01,379.54 1312.56,568.14 2624.77,1073.9 4072.34,1316.87 383.08,64.31 772.4,115.86 1183.27,190.83 238.62,43.53 947.47,152.44 1123.84,224.51 158.17,955.52 -209.67,4913.64 -353.32,6021.74 -424.06,3271.28 -2082.31,6438.42 -4170.6,8633.24 -626.52,658.47 -2798.32,2552.67 -3642.44,2715.54 -316.84,61.14 -1734.67,-908.85 -2005.15,-1114.48 -2672.1,-2031.2 -4064.1,-4323.11 -5256.63,-7508.54 -624.19,-1667.33 -777.31,-3715.82 -899.75,-5544.03 -51.3,-765.76 -127.56,-2451.44 -77.33,-3161.36z"/>
     <path class="fil0 str1" d="M26743.4 17631.49c176.89,-126.69 868.76,-205.52 1110.75,-247.47 373.4,-64.71 798.41,-139.7 1152.49,-211.82 1705.62,-347.41 2561.14,-585.98 4132.67,-1300.69 327.79,-149.1 612.13,-246.78 929.78,-412.24 1333.5,-694.6 547.83,-585.8 2785.56,382.78 1323.74,572.98 2647.14,1083.05 4107.05,1328.09 386.35,64.86 778.99,116.85 1193.35,192.46 240.67,43.9 955.55,153.74 1133.43,226.43 159.52,963.66 -211.46,4955.52 -356.34,6073.07 -427.66,3299.17 -2100.05,6493.31 -4206.15,8706.84 -631.86,664.08 -2822.17,2574.43 -3673.48,2738.68 -319.55,61.67 -1749.46,-916.6 -2022.25,-1123.97 -2694.88,-2048.52 -4098.75,-4359.97 -5301.45,-7572.55 -629.51,-1681.55 -783.93,-3747.5 -907.42,-5591.29 -51.73,-772.29 -128.65,-2472.34 -77.99,-3188.32z"/>
     <path class="fil3 str1" d="M31448.95 26759.38c0,489.91 -109.36,601.64 -630.9,653.21l-84.11 386.76c0,0 546.77,-8.59 967.36,-8.59 370.14,0 1034.68,25.78 1034.68,25.78l75.7 -395.36 -16.82 -34.38c0,0 -210.3,25.79 -378.54,25.79 -294.42,0 -386.95,-120.33 -370.13,-584.45l100.95 -3687.19c8.41,-326.6 134.59,-446.93 555.19,-515.69l33.65 -386.77c0,0 -538.37,77.36 -900.08,77.36 -319.65,0 -933.73,-25.79 -933.73,-25.79l-58.88 378.18 16.82 34.37c0,0 185.06,-17.18 286,-17.18 252.37,0 311.25,94.54 311.25,464.12l-8.41 3609.83zm841.19 -1675.99l1472.09 2088.54c328.07,464.12 664.55,739.16 942.14,739.16 92.53,0 698.19,-103.14 698.19,-103.14l50.47 -292.22 -33.64 -34.38c-395.37,0 -672.96,-197.69 -1076.73,-730.57l-1413.21 -1882.27 1354.33 -1452.52c504.71,-532.88 672.95,-661.81 967.36,-721.97l58.89 -352.39 -33.65 -60.16c0,0 -445.83,34.38 -773.9,34.38 -311.23,0 -925.31,-60.17 -925.31,-60.17l-58.88 369.58 16.82 34.38c361.72,25.79 529.95,111.73 529.95,257.85 0,120.32 -84.12,266.44 -260.77,446.93l-1505.73 1598.64 -8.42 120.33zm4868.33 2810.51c1219.74,0 2077.76,-696.18 2077.76,-1676 0,-782.13 -824.38,-1177.49 -1556.21,-1564.26 -597.25,-318.01 -1144.03,-636.01 -1144.03,-1151.71 0,-472.71 445.84,-825.1 1059.9,-825.1 757.08,0 1001.03,197.68 1001.03,799.32 0,266.44 -25.24,446.93 -25.24,446.93l50.47 42.98 328.07 -34.38c50.47,-790.73 185.07,-1452.53 185.07,-1452.53l-25.25 -51.57c0,0 -538.36,-214.87 -1287.02,-214.87 -1093.56,0 -1934.75,696.18 -1934.75,1598.64 0,747.75 698.19,1143.11 1371.15,1504.1 647.72,343.79 1278.61,653.2 1278.61,1211.87 0,584.45 -471.07,945.43 -1169.26,945.43 -908.49,0 -1093.55,-257.84 -1093.55,-1495.5l-378.54 42.97c0,833.7 -100.94,1495.51 -100.94,1495.51l42.06 85.94c0,0 529.95,292.23 1320.67,292.23z"/>
    </g>
    <path class="fil3 str2" d="M66245.08 37052.06c1508.9,0 4294.58,348.21 5726.1,386.9 6113.01,0 10098.07,-3056.5 10098.07,-7737.98 0,-3133.89 -2360.08,-4952.31 -5455.28,-5764.8 2437.47,-1276.77 4139.82,-3211.27 4139.82,-5919.56 0,-3907.68 -2863.05,-5996.94 -8202.26,-5996.94 0,0 -4565.41,193.45 -5919.56,193.45 -1354.14,0 -5377.89,-77.38 -5377.89,-77.38l-348.21 2360.09 232.14 309.52c0,0 851.17,-77.38 1315.45,-77.38 967.25,0 1276.77,502.97 1276.77,1934.49l-38.69 15089.07c0,2011.88 -619.04,2669.61 -2824.36,3056.5l-309.52 2630.92c0,0 3482.09,-386.9 5687.42,-386.9zm6190.38 -10871.87c2553.54,580.35 3907.68,2011.88 3907.68,4062.44 0,2437.47 -1470.21,3869 -3985.06,3869 -2630.91,0 -3636.85,-657.73 -3636.85,-2282.71l154.76 -5610.04 3559.47 -38.69zm-3482.09 -3404.71c38.69,-1663.67 154.76,-4720.17 309.52,-6848.12 38.69,-541.65 193.45,-696.41 696.42,-696.41 3636.85,0 5339.21,1199.38 5339.21,3791.61 0,3172.57 -2669.61,4101.13 -2669.61,4101.13 -735.11,0 -3675.54,-348.21 -3675.54,-348.21zm21943.37 5145.76l270.83 -11258.77c77.38,-1354.14 541.66,-1857.11 2166.64,-2050.56l270.83 -2630.92c0,0 -3017.82,232.14 -4604.1,232.14 -2205.33,0 -5532.66,-116.07 -5532.66,-116.07l-348.21 2553.54 77.38 154.76c0,0 812.49,-77.38 1238.08,-77.38 1005.93,0 1238.07,386.9 1238.07,2089.25l0 12342.09c0,5571.34 3017.82,8357.02 8976.06,8357.02 6461.22,0 9982,-3172.57 9982,-8976.06l0 -12032.57c0,-1238.07 309.52,-1508.9 2244.02,-1934.49l232.14 -2592.23c0,0 -2630.92,232.14 -4604.1,232.14 -1470.22,0 -4526.72,-116.07 -4526.72,-116.07l-309.52 2553.54 77.38 154.76c0,0 851.18,-77.38 1276.77,-77.38 967.24,0 1199.38,386.9 1238.07,2089.25 0,0 154.76,9595.1 154.76,12148.64 0,3366.02 -1586.28,5029.69 -4720.17,5029.69 -3095.19,0 -4797.55,-2205.33 -4797.55,-6074.32l0 0zm35910.44 38.69c0,0 -5300.52,-7699.29 -10330.21,-15901.56 0,0 -2050.57,154.76 -3714.23,154.76 -1895.81,0 -4488.03,-193.45 -4488.03,-193.45l-270.83 2244.02 309.52 386.9c2514.84,270.83 3133.88,735.11 3133.88,2398.77l-502.97 15282.52c-38.69,1547.6 -735.11,2244.02 -2282.7,2437.46l-309.52 2592.23c0,0 2669.6,-309.52 4758.86,-309.52 1663.66,0 4991,154.76 4991,154.76l386.9 -2476.16 -232.14 -270.82c0,0 -1238.08,116.07 -1663.67,116.07 -967.25,0 -1315.46,-464.28 -1315.46,-1741.05l38.69 -11916.5 386.9 0c0,0 5261.83,7583.23 11258.77,17178.33l4101.13 -502.97 502.97 -20544.35c38.69,-1547.6 735.11,-2205.32 2437.46,-2437.46l193.45 -2592.23c0,0 -2669.6,193.45 -4565.41,193.45 -1702.35,0 -4991,-154.76 -4991,-154.76l-270.83 2398.78 154.76 309.52c154.76,0 773.8,-38.69 1315.46,-38.69 889.87,0 1238.08,464.28 1276.77,1663.66l77.38 11568.29 -386.9 0zm11497.09 3675.54c0,2166.64 -464.28,2708.3 -2708.29,3056.5l-348.21 2476.16c0,0 3211.26,-116.07 5377.9,-116.07 1663.66,0 5571.34,116.07 5571.34,116.07l348.21 -2476.16 -154.76 -270.82c0,0 -735.1,116.07 -1508.9,116.07 -1199.39,0 -1547.6,-502.97 -1470.22,-2630.92l348.21 -15127.76c38.69,-1431.52 541.66,-1857.11 2437.46,-2244.01l232.14 -2592.23c0,0 -3675.54,270.83 -5339.21,270.83 -1122,0 -5223.13,-77.38 -5223.13,-77.38l-309.52 2321.4 193.45 309.52c0,0 735.1,-38.69 1199.38,-38.69 1122.01,0 1392.84,386.9 1392.84,2011.87l-38.69 14895.62zm5842.18 -6809.42l5842.18 9556.41c1392.83,2244.01 2669.6,3249.95 4294.58,3249.95 696.42,0 4526.72,-464.28 4526.72,-464.28l309.52 -2050.57 -232.14 -348.21c-1741.05,-116.06 -2901.75,-1044.62 -4410.65,-3366.02l-5107.07 -7815.36 3985.06 -4488.03c2205.32,-2630.92 3443.4,-3752.92 5068.38,-4410.65l309.52 -2205.33 -270.83 -425.59c0,0 -3056.51,154.76 -4526.72,154.76 -1586.29,0 -4836.24,-193.45 -4836.24,-193.45l-309.52 2398.78 116.07 270.83c1470.22,77.38 2050.56,425.59 2050.56,1199.38 0,541.66 -348.21,1238.08 -1005.93,1895.81l-5687.42 6190.39 -116.07 851.18zm23645.73 6848.11c0,-1044.63 38.69,-2592.22 116.07,-5416.59 657.73,-77.38 1779.74,-232.14 2940.43,-232.14 1934.5,0 5029.69,116.07 5029.69,116.07l541.66 -3327.33 -309.52 -348.21c0,0 -3211.26,309.52 -4488.03,309.52 -1122.01,0 -2785.67,-38.69 -3598.16,-38.69l270.83 -5996.94c38.69,-1160.7 232.14,-1276.76 2050.56,-1276.76 4333.28,0 4874.93,309.51 4874.93,2437.46 0,541.66 -77.38,1547.6 -77.38,1547.6l3559.48 -232.14c193.45,-3598.17 889.87,-7041.57 889.87,-7041.57l-309.52 -425.59c-2360.09,309.52 -6267.77,464.28 -11761.74,464.28 -2901.74,0 -7157.63,-116.07 -7157.63,-116.07l-309.52 2360.09 270.83 348.21c0,0 735.1,-77.38 1160.69,-77.38 1044.63,0 1276.77,425.59 1276.77,2089.25l-38.69 14663.48c0,2244.02 -657.73,3017.82 -2785.67,3327.33l-309.52 2630.92c0,0 3288.64,-386.9 6732.04,-386.9 4797.55,0 12071.26,270.83 12071.26,270.83l348.21 -425.59c386.9,-3714.23 1083.31,-7196.32 1083.31,-7196.32l-270.82 -386.9 -3288.65 270.83c-541.66,3868.99 -1238.08,4410.65 -6035.63,4410.65 -2205.32,0 -2476.15,-270.83 -2476.15,-2321.4zm24806.42 -4333.27l3327.34 6732.05c1122,2398.77 2514.84,3598.16 4217.2,3598.16l4604.1 -425.59 270.83 -2050.57 -270.83 -348.21c-1624.98,0 -2863.06,-1044.62 -4294.58,-3366.02l-3366.03 -5416.59c3327.34,-1741.04 5184.45,-4333.27 5184.45,-7389.77 0,-4294.58 -3249.95,-6654.67 -9169.51,-6654.67 0,0 -4333.27,193.45 -5919.55,193.45 -1508.91,0 -4874.93,-77.38 -4874.93,-77.38l-309.52 2360.09 193.45 309.52c0,0 812.48,-77.38 1354.14,-77.38 967.25,0 1238.08,419.14 1238.08,1889.35l-38.69 14869.83c0,2205.33 -580.35,2856.61 -2746.98,3166.13l-348.21 2592.22c0,0 3172.57,-232.14 5532.66,-193.45 1741.04,0 5184.44,77.38 5184.44,116.07l386.9 -2398.78 -154.76 -232.13c-2476.15,-77.38 -2746.98,-386.9 -2746.98,-2972.68l38.69 -4249.44 2708.29 25.79zm-2592.22 -3501.44c38.69,-2353.63 116.07,-4675.03 309.52,-7763.77 38.69,-689.97 154.76,-844.73 696.42,-844.73 3907.68,0 5764.8,1354.14 5764.8,4178.51 0,3443.4 -2476.16,4488.03 -3288.65,4836.24l-3482.09 -406.25z"/>
    <path class="fil4 str3" d="M65087.85 42410.27l0 3079.82 608.43 0c225.52,0 384.43,36.67 478.26,108.69 92.33,72.02 139.25,166.3 139.25,284.15 0,117.85 -46.92,212.13 -139.25,284.15 -93.83,72.02 -252.74,108.68 -478.26,108.68l-2124.95 0c-225.52,0 -384.43,-36.66 -478.27,-109.99 -92.33,-73.33 -139.25,-168.92 -139.25,-286.77 0,-117.85 46.92,-212.13 139.25,-282.84 93.84,-70.71 252.75,-106.07 478.27,-106.07l608.42 0 0 -3079.82 -989.82 0 0 746.39c0,195.11 -42.39,332.6 -125.63,413.78 -83.24,79.88 -192.22,120.47 -328.43,120.47 -136.22,0 -245.19,-40.59 -328.43,-120.47 -83.24,-81.18 -125.62,-218.67 -125.62,-413.78l0 -1532.05 4713.04 0 0 1532.05c0,195.11 -42.37,332.6 -125.61,413.78 -83.25,79.88 -192.22,120.47 -328.43,120.47 -136.22,0 -245.19,-40.59 -328.43,-120.47 -83.25,-81.18 -125.62,-218.67 -125.62,-413.78l0 -746.39 -998.92 0zm8101.93 1541.22c0,699.25 -257.29,1280.64 -770.37,1745.49 -514.59,464.86 -1107.88,696.63 -1782.91,696.63 -608.42,0 -1154.79,-193.8 -1643.65,-580.08 -603.89,-477.95 -906.59,-1098.63 -906.59,-1862.04 0,-762.1 302.7,-1384.08 906.59,-1864.65 488.86,-386.29 1035.23,-580.08 1643.65,-580.08 675.03,0 1268.32,231.77 1782.91,696.62 513.08,464.85 770.37,1047.56 770.37,1748.11zm-908.1 0c0,-477.95 -168,-874.71 -502.48,-1188.98 -336,-312.95 -715.88,-470.09 -1142.7,-470.09 -425.29,0 -803.66,157.14 -1139.66,472.71 -334.49,314.27 -502.49,711.03 -502.49,1186.36 0,476.64 168,872.09 502.49,1186.36 336,312.96 714.37,470.09 1139.66,470.09 426.82,0 806.7,-155.82 1142.7,-468.78 334.48,-312.96 502.48,-708.41 502.48,-1187.67zm5350.39 399.38l-1943.34 0 0 1139.22 145.3 0c195.23,0 339.02,36.67 432.86,108.69 92.32,72.02 139.24,166.3 139.24,284.15 0,117.85 -46.92,212.13 -139.24,284.15 -93.84,72.02 -237.63,108.68 -432.86,108.68l-1053.4 0c-195.25,0 -339.02,-36.66 -432.86,-109.99 -92.33,-73.33 -139.25,-168.92 -139.25,-286.77 0,-117.85 62.06,-222.61 187.68,-316.89 60.54,-48.45 189.18,-72.02 384.43,-72.02l0 -3079.82c-195.25,0 -339.02,-36.66 -432.86,-108.68 -92.33,-72.02 -139.25,-166.3 -139.25,-284.15 0,-117.85 46.92,-212.13 139.25,-284.15 93.84,-72.02 237.61,-108.68 432.86,-108.68l1053.4 0c195.23,0 339.02,35.35 432.86,106.06 92.32,70.71 139.24,164.99 139.24,282.84 0,117.85 -46.92,213.44 -139.24,286.77 -93.84,73.33 -237.63,109.99 -432.86,109.99l-145.3 0 0 1154.94 1943.34 0 0 -1154.94 -145.3 0c-195.25,0 -339.02,-36.66 -432.86,-108.68 -92.33,-72.02 -139.25,-166.3 -139.25,-284.15 0,-117.85 46.92,-212.13 139.25,-284.15 93.84,-72.02 237.61,-108.68 432.86,-108.68l1053.4 0c195.24,0 339.02,35.35 432.86,106.06 92.32,70.71 139.24,164.99 139.24,282.84 0,117.85 -46.92,213.44 -139.24,286.77 -93.84,73.33 -237.62,109.99 -432.86,109.99l0 3079.82c195.24,0 322.37,23.57 381.4,70.71 127.13,96.9 190.7,204.28 190.7,322.13 0,117.85 -46.92,212.13 -139.24,284.15 -93.84,72.02 -237.62,108.68 -432.86,108.68l-1053.4 0c-195.25,0 -339.02,-36.66 -432.86,-109.99 -92.33,-73.33 -139.25,-168.92 -139.25,-286.77 0,-117.85 46.92,-212.13 139.25,-282.84 93.84,-70.71 237.61,-106.07 432.86,-106.07l145.3 0 0 -1139.22zm2853.1 1139.22l0 -3079.82c-375.35,0 -563.03,-132.25 -563.03,-395.45 0,-260.58 202.82,-390.21 608.43,-390.21l1189.62 0c405.62,0 608.42,129.63 608.42,390.21 0,263.2 -202.8,395.45 -608.42,395.45l-326.91 0 0 2370.1 2324.74 -3155.76 1053.39 0c405.62,0 608.43,129.63 608.43,390.21 0,263.2 -202.81,395.45 -608.43,395.45l-145.3 0 0 3079.82c237.63,0 408.64,30.12 514.6,90.35 104.43,60.24 157.4,159.76 157.4,299.87 0,263.2 -202.81,395.45 -608.43,395.45l-1189.61 0c-405.63,0 -608.43,-132.25 -608.43,-395.45 0,-260.58 202.8,-390.22 608.43,-390.22l217.95 0 0 -2370.1 -2324.74 3155.77 -908.11 0c-405.61,0 -608.43,-132.25 -608.43,-395.45 0,-260.58 202.82,-390.22 608.43,-390.22zm7611.56 -809.24l0 809.24 917.18 0c225.51,0 384.43,36.67 478.27,108.69 92.32,72.02 139.24,166.3 139.24,284.15 0,117.85 -46.92,212.13 -139.24,284.15 -93.84,72.02 -252.76,108.68 -478.27,108.68l-1970.58 0c-225.52,0 -384.43,-36.66 -478.26,-109.99 -92.33,-73.33 -139.25,-168.92 -139.25,-286.77 0,-117.85 46.92,-212.13 139.25,-282.84 93.83,-70.71 252.74,-106.07 478.26,-106.07l145.3 0 0 -3079.82 -145.3 0c-225.52,0 -384.43,-36.66 -478.26,-108.68 -92.33,-72.02 -139.25,-166.3 -139.25,-284.15 0,-117.85 46.92,-212.13 139.25,-284.15 93.83,-72.02 252.74,-108.68 478.26,-108.68l2094.69 0c614.48,0 1101.82,145.34 1462.04,436.04 358.7,290.7 538.8,644.25 538.8,1060.65 0,230.47 -60.53,449.14 -181.61,653.42 -92.33,153.2 -245.19,305.1 -458.59,454.37 -214.92,150.59 -432.86,263.2 -656.86,337.84 -222.49,75.95 -517.62,113.92 -883.89,113.92l-861.18 0zm0 -785.66l843.02 0c396.53,0 709.83,-77.26 942.91,-233.09 231.57,-154.51 348.11,-341.76 348.11,-559.13 0,-184.63 -93.84,-347 -281.52,-484.49 -187.67,-138.81 -457.07,-208.21 -805.18,-208.21l-1047.34 0 0 1484.92zm9073.59 56.3c0,699.25 -257.28,1280.64 -770.37,1745.49 -514.59,464.86 -1107.88,696.63 -1782.91,696.63 -608.42,0 -1154.79,-193.8 -1643.65,-580.08 -603.89,-477.95 -906.59,-1098.63 -906.59,-1862.04 0,-762.1 302.7,-1384.08 906.59,-1864.65 488.86,-386.29 1035.23,-580.08 1643.65,-580.08 675.03,0 1268.32,231.77 1782.91,696.62 513.09,464.85 770.37,1047.56 770.37,1748.11zm-908.1 0c0,-477.95 -168,-874.71 -502.47,-1188.98 -336.01,-312.95 -715.89,-470.09 -1142.71,-470.09 -425.29,0 -803.66,157.14 -1139.66,472.71 -334.49,314.27 -502.49,711.03 -502.49,1186.36 0,476.64 168,872.09 502.49,1186.36 336,312.96 714.37,470.09 1139.66,470.09 426.82,0 806.7,-155.82 1142.71,-468.78 334.47,-312.96 502.47,-708.41 502.47,-1187.67zm2498.95 1538.6l0 -3079.82 -145.3 0c-225.51,0 -384.43,-36.66 -478.26,-108.68 -92.33,-72.02 -139.25,-166.3 -139.25,-284.15 0,-117.85 46.92,-212.13 139.25,-284.15 93.83,-72.02 252.75,-108.68 478.26,-108.68l2283.88 0c544.86,0 982.26,130.94 1313.72,392.83 331.46,261.89 497.94,573.54 497.94,933.63 0,171.54 -39.35,332.6 -116.54,483.19 -78.7,150.59 -196.76,290.7 -355.67,417.71 287.56,149.28 504,322.13 647.77,519.85 143.79,197.73 214.92,422.96 214.92,673.06 0,199.04 -51.46,384.98 -155.89,556.51 -75.67,129.64 -171.03,233.09 -283.03,310.34 -151.34,107.38 -335.99,195.11 -555.44,261.89 -217.95,68.09 -491.89,102.14 -820.32,102.14l-2671.34 0c-225.51,0 -384.43,-36.66 -478.26,-109.99 -92.33,-73.33 -139.25,-168.92 -139.25,-286.77 0,-117.85 46.92,-212.13 139.25,-282.84 93.83,-70.71 252.75,-106.07 478.26,-106.07l145.3 0zm908.1 -1932.74l1000.42 0c358.7,0 656.86,-78.57 892.98,-234.39 160.43,-106.07 240.64,-237.01 240.64,-392.84 0,-138.8 -75.67,-260.58 -227.03,-364.02 -151.34,-103.45 -390.49,-155.83 -720.42,-155.83l-1186.59 0 0 1147.08zm0 1932.74l1571.01 0c369.3,0 629.62,-47.14 780.97,-141.42 115.03,-72.02 172.55,-174.15 172.55,-307.72 0,-158.44 -113.52,-314.27 -342.06,-467.47 -227.03,-153.21 -553.95,-230.46 -980.75,-230.46l-1201.72 0 0 1147.07zm8042.9 -479.26l-2199.12 0 -223.99 479.26 217.95 0c227.01,0 387.45,36.67 481.28,108.69 92.33,72.02 139.25,166.3 139.25,284.15 0,117.85 -46.92,212.13 -139.25,284.15 -93.83,72.02 -254.27,108.68 -481.28,108.68l-1195.68 0c-225.5,0 -384.43,-36.66 -478.26,-109.99 -92.33,-73.33 -139.24,-168.92 -139.24,-286.77 0,-117.85 46.91,-212.13 139.24,-282.84 93.83,-70.71 252.76,-106.07 478.26,-106.07l1434.81 -3079.82 -590.27 0c-225.51,0 -384.43,-36.66 -478.27,-108.68 -92.33,-72.02 -139.24,-166.3 -139.24,-284.15 0,-117.85 46.91,-212.13 139.24,-284.15 93.84,-72.02 252.76,-108.68 478.27,-108.68l1949.39 0 1810.15 3865.48c225.51,0 369.3,23.57 431.34,70.71 124.12,96.9 186.17,204.28 186.17,322.13 0,117.85 -46.92,212.13 -139.24,284.15 -93.84,72.02 -252.76,108.68 -478.27,108.68l-1197.18 0c-227.03,0 -385.94,-36.66 -479.79,-109.99 -92.31,-73.33 -139.24,-168.92 -139.24,-286.77 0,-117.85 46.93,-212.13 139.24,-282.84 93.85,-70.71 252.76,-106.07 479.79,-106.07l217.94 0 -224 -479.26zm-367.77 -785.66l-731.03 -1560.86 -731.02 1560.86 1462.05 0zm6258.48 125.7l-1943.34 0 0 1139.22 145.3 0c195.23,0 339.02,36.67 432.86,108.69 92.32,72.02 139.25,166.3 139.25,284.15 0,117.85 -46.93,212.13 -139.25,284.15 -93.84,72.02 -237.63,108.68 -432.86,108.68l-1053.4 0c-195.24,0 -339.02,-36.66 -432.86,-109.99 -92.33,-73.33 -139.24,-168.92 -139.24,-286.77 0,-117.85 62.05,-222.61 187.67,-316.89 60.54,-48.45 189.19,-72.02 384.43,-72.02l0 -3079.82c-195.24,0 -339.02,-36.66 -432.86,-108.68 -92.33,-72.02 -139.24,-166.3 -139.24,-284.15 0,-117.85 46.91,-212.13 139.24,-284.15 93.84,-72.02 237.62,-108.68 432.86,-108.68l1053.4 0c195.23,0 339.02,35.35 432.86,106.06 92.32,70.71 139.25,164.99 139.25,282.84 0,117.85 -46.93,213.44 -139.25,286.77 -93.84,73.33 -237.63,109.99 -432.86,109.99l-145.3 0 0 1154.94 1943.34 0 0 -1154.94 -145.3 0c-195.24,0 -339.02,-36.66 -432.86,-108.68 -92.33,-72.02 -139.24,-166.3 -139.24,-284.15 0,-117.85 46.91,-212.13 139.24,-284.15 93.84,-72.02 237.62,-108.68 432.86,-108.68l1053.4 0c195.25,0 339.02,35.35 432.86,106.06 92.32,70.71 139.25,164.99 139.25,282.84 0,117.85 -46.93,213.44 -139.25,286.77 -93.84,73.33 -237.61,109.99 -432.86,109.99l0 3079.82c195.25,0 322.38,23.57 381.41,70.71 127.13,96.9 190.7,204.28 190.7,322.13 0,117.85 -46.93,212.13 -139.25,284.15 -93.84,72.02 -237.61,108.68 -432.86,108.68l-1053.4 0c-195.24,0 -339.02,-36.66 -432.86,-109.99 -92.33,-73.33 -139.24,-168.92 -139.24,-286.77 0,-117.85 46.91,-212.13 139.24,-282.84 93.84,-70.71 237.62,-106.07 432.86,-106.07l145.3 0 0 -1139.22zm2853.11 1139.22l0 -3079.82c-375.36,0 -563.03,-132.25 -563.03,-395.45 0,-260.58 202.81,-390.21 608.43,-390.21l1189.62 0c405.61,0 608.41,129.63 608.41,390.21 0,263.2 -202.8,395.45 -608.41,395.45l-326.92 0 0 2370.1 2324.74 -3155.76 1053.39 0c405.62,0 608.43,129.63 608.43,390.21 0,263.2 -202.81,395.45 -608.43,395.45l-145.3 0 0 3079.82c237.63,0 408.65,30.12 514.6,90.35 104.43,60.24 157.4,159.76 157.4,299.87 0,263.2 -202.81,395.45 -608.43,395.45l-1189.6 0c-405.63,0 -608.44,-132.25 -608.44,-395.45 0,-260.58 202.81,-390.22 608.44,-390.22l217.94 0 0 -2370.1 -2324.74 3155.77 -908.1 0c-405.62,0 -608.44,-132.25 -608.44,-395.45 0,-260.58 202.82,-390.22 608.44,-390.22zm7202.91 -1154.93l0 1154.93 2315.65 0 0 -424.26c0,-195.11 42.38,-332.6 127.13,-413.78 84.76,-79.88 195.25,-120.47 331.46,-120.47 136.22,0 245.19,40.59 326.92,120.47 81.73,81.18 122.6,218.67 122.6,413.78l0 1209.93 -4277.17 0c-225.51,0 -384.43,-36.66 -478.26,-109.99 -92.32,-73.33 -139.24,-168.92 -139.24,-286.77 0,-117.85 46.92,-212.13 139.24,-282.84 93.83,-70.71 252.75,-106.07 478.26,-106.07l145.3 0 0 -3079.82 -145.3 0c-225.51,0 -384.43,-36.66 -478.26,-108.68 -92.32,-72.02 -139.24,-166.3 -139.24,-284.15 0,-117.85 46.92,-212.13 139.24,-284.15 93.83,-72.02 252.75,-108.68 478.26,-108.68l4086.47 3.92 0 1190.29c0,195.11 -40.87,332.6 -122.6,413.79 -81.73,79.87 -190.7,120.47 -326.92,120.47 -136.21,0 -246.7,-40.6 -331.46,-120.47 -84.76,-81.19 -127.13,-218.68 -127.13,-413.79l0 -408.55 -2124.95 0 0 1139.22 799.12 0c0,-195.11 27.24,-318.19 83.24,-369.26 113.52,-110 239.14,-164.99 375.36,-164.99 136.21,0 245.19,40.59 326.91,120.47 81.73,81.18 122.59,218.67 122.59,413.78l0 785.67c0,195.11 -27.24,319.51 -81.73,371.88 -108.97,108.69 -231.56,162.37 -367.77,162.37 -136.22,0 -261.84,-54.99 -375.36,-164.99 -56,-51.06 -83.24,-174.15 -83.24,-369.26l-799.12 0zm13678.91 -2710.55l0 974.22c0,350.94 -149.83,526.4 -451.02,526.4 -304.22,0 -457.09,-175.46 -457.09,-526.4l0 -188.56 -2315.65 0 0 1147.08 1162.36 0c768.86,0 1339.45,127.02 1711.78,379.74 372.32,252.72 558.48,608.89 558.48,1069.82 0,845.9 -644.75,1268.85 -1934.26,1268.85l-2551.77 0c-405.61,0 -608.41,-132.25 -608.41,-396.76 0,-259.27 202.8,-388.91 608.41,-388.91l145.3 0 0 -3079.82 -145.3 0c-405.61,0 -608.41,-130.94 -608.41,-392.83 0,-261.89 202.8,-392.83 608.41,-392.83l4277.17 0zm-3223.76 3865.48l1571.01 0c635.67,0 953.51,-172.84 953.51,-518.54 0,-419.02 -440.43,-628.53 -1322.8,-628.53l-1201.72 0 0 1147.07zm6412.86 -809.24l0 809.24 917.18 0c225.52,0 384.43,36.67 478.27,108.69 92.32,72.02 139.25,166.3 139.25,284.15 0,117.85 -46.93,212.13 -139.25,284.15 -93.84,72.02 -252.75,108.68 -478.27,108.68l-1970.58 0c-225.51,0 -384.43,-36.66 -478.26,-109.99 -92.33,-73.33 -139.24,-168.92 -139.24,-286.77 0,-117.85 46.91,-212.13 139.24,-282.84 93.83,-70.71 252.75,-106.07 478.26,-106.07l145.3 0 0 -3079.82 -145.3 0c-225.51,0 -384.43,-36.66 -478.26,-108.68 -92.33,-72.02 -139.24,-166.3 -139.24,-284.15 0,-117.85 46.91,-212.13 139.24,-284.15 93.83,-72.02 252.75,-108.68 478.26,-108.68l2094.69 0c614.48,0 1101.83,145.34 1462.04,436.04 358.7,290.7 538.8,644.25 538.8,1060.65 0,230.47 -60.53,449.14 -181.61,653.42 -92.33,153.2 -245.19,305.1 -458.59,454.37 -214.92,150.59 -432.86,263.2 -656.86,337.84 -222.49,75.95 -517.62,113.92 -883.89,113.92l-861.18 0zm0 -785.66l843.02 0c396.53,0 709.83,-77.26 942.91,-233.09 231.57,-154.51 348.11,-341.76 348.11,-559.13 0,-184.63 -93.84,-347 -281.51,-484.49 -187.68,-138.81 -457.08,-208.21 -805.19,-208.21l-1047.34 0 0 1484.92zm9073.6 56.3c0,699.25 -257.29,1280.64 -770.38,1745.49 -514.59,464.86 -1107.88,696.63 -1782.91,696.63 -608.41,0 -1154.79,-193.8 -1643.65,-580.08 -603.89,-477.95 -906.59,-1098.63 -906.59,-1862.04 0,-762.1 302.7,-1384.08 906.59,-1864.65 488.86,-386.29 1035.24,-580.08 1643.65,-580.08 675.03,0 1268.32,231.77 1782.91,696.62 513.09,464.85 770.38,1047.56 770.38,1748.11zm-908.11 0c0,-477.95 -168,-874.71 -502.47,-1188.98 -336,-312.95 -715.89,-470.09 -1142.71,-470.09 -425.28,0 -803.66,157.14 -1139.66,472.71 -334.49,314.27 -502.49,711.03 -502.49,1186.36 0,476.64 168,872.09 502.49,1186.36 336,312.96 714.38,470.09 1139.66,470.09 426.82,0 806.71,-155.82 1142.71,-468.78 334.47,-312.96 502.47,-708.41 502.47,-1187.67zm5350.39 399.38l-1943.34 0 0 1139.22 145.3 0c195.24,0 339.02,36.67 432.86,108.69 92.32,72.02 139.25,166.3 139.25,284.15 0,117.85 -46.93,212.13 -139.25,284.15 -93.84,72.02 -237.62,108.68 -432.86,108.68l-1053.4 0c-195.24,0 -339.02,-36.66 -432.86,-109.99 -92.33,-73.33 -139.24,-168.92 -139.24,-286.77 0,-117.85 62.05,-222.61 187.67,-316.89 60.54,-48.45 189.19,-72.02 384.43,-72.02l0 -3079.82c-195.24,0 -339.02,-36.66 -432.86,-108.68 -92.33,-72.02 -139.24,-166.3 -139.24,-284.15 0,-117.85 46.91,-212.13 139.24,-284.15 93.84,-72.02 237.62,-108.68 432.86,-108.68l1053.4 0c195.24,0 339.02,35.35 432.86,106.06 92.32,70.71 139.25,164.99 139.25,282.84 0,117.85 -46.93,213.44 -139.25,286.77 -93.84,73.33 -237.62,109.99 -432.86,109.99l-145.3 0 0 1154.94 1943.34 0 0 -1154.94 -145.3 0c-195.24,0 -339.02,-36.66 -432.86,-108.68 -92.33,-72.02 -139.24,-166.3 -139.24,-284.15 0,-117.85 46.91,-212.13 139.24,-284.15 93.84,-72.02 237.62,-108.68 432.86,-108.68l1053.41 0c195.24,0 339.01,35.35 432.86,106.06 92.31,70.71 139.24,164.99 139.24,282.84 0,117.85 -46.93,213.44 -139.24,286.77 -93.85,73.33 -237.62,109.99 -432.86,109.99l0 3079.82c195.24,0 322.37,23.57 381.4,70.71 127.13,96.9 190.7,204.28 190.7,322.13 0,117.85 -46.93,212.13 -139.24,284.15 -93.85,72.02 -237.62,108.68 -432.86,108.68l-1053.41 0c-195.24,0 -339.02,-36.66 -432.86,-109.99 -92.33,-73.33 -139.24,-168.92 -139.24,-286.77 0,-117.85 46.91,-212.13 139.24,-282.84 93.84,-70.71 237.62,-106.07 432.86,-106.07l145.3 0 0 -1139.22zm2853.11 1139.22l0 -3079.82c-375.36,0 -563.03,-132.25 -563.03,-395.45 0,-260.58 202.81,-390.21 608.43,-390.21l1189.62 0c405.61,0 608.42,129.63 608.42,390.21 0,263.2 -202.81,395.45 -608.42,395.45l-326.92 0 0 2370.1 2324.74 -3155.76 1053.39 0c405.62,0 608.43,129.63 608.43,390.21 0,263.2 -202.81,395.45 -608.43,395.45l-145.3 0 0 3079.82c237.63,0 408.65,30.12 514.6,90.35 104.43,60.24 157.41,159.76 157.41,299.87 0,263.2 -202.82,395.45 -608.44,395.45l-1189.6 0c-405.63,0 -608.43,-132.25 -608.43,-395.45 0,-260.58 202.8,-390.22 608.43,-390.22l217.94 0 0 -2370.1 -2324.74 3155.77 -908.1 0c-405.62,0 -608.43,-132.25 -608.43,-395.45 0,-260.58 202.81,-390.22 608.43,-390.22zm7611.55 -809.24l0 809.24 917.18 0c225.52,0 384.43,36.67 478.27,108.69 92.32,72.02 139.25,166.3 139.25,284.15 0,117.85 -46.93,212.13 -139.25,284.15 -93.84,72.02 -252.75,108.68 -478.27,108.68l-1970.58 0c-225.51,0 -384.43,-36.66 -478.26,-109.99 -92.33,-73.33 -139.24,-168.92 -139.24,-286.77 0,-117.85 46.91,-212.13 139.24,-282.84 93.83,-70.71 252.75,-106.07 478.26,-106.07l145.3 0 0 -3079.82 -145.3 0c-225.51,0 -384.43,-36.66 -478.26,-108.68 -92.33,-72.02 -139.24,-166.3 -139.24,-284.15 0,-117.85 46.91,-212.13 139.24,-284.15 93.83,-72.02 252.75,-108.68 478.26,-108.68l2094.7 0c614.47,0 1101.82,145.34 1462.03,436.04 358.7,290.7 538.81,644.25 538.81,1060.65 0,230.47 -60.54,449.14 -181.62,653.42 -92.33,153.2 -245.19,305.1 -458.59,454.37 -214.91,150.59 -432.86,263.2 -656.86,337.84 -222.49,75.95 -517.62,113.92 -883.89,113.92l-861.18 0zm0 -785.66l843.02 0c396.54,0 709.84,-77.26 942.91,-233.09 231.57,-154.51 348.11,-341.76 348.11,-559.13 0,-184.63 -93.84,-347 -281.51,-484.49 -187.67,-138.81 -457.08,-208.21 -805.19,-208.21l-1047.34 0 0 1484.92zm9073.6 56.3c0,699.25 -257.29,1280.64 -770.38,1745.49 -514.58,464.86 -1107.87,696.63 -1782.9,696.63 -608.42,0 -1154.8,-193.8 -1643.66,-580.08 -603.89,-477.95 -906.59,-1098.63 -906.59,-1862.04 0,-762.1 302.7,-1384.08 906.59,-1864.65 488.86,-386.29 1035.24,-580.08 1643.66,-580.08 675.03,0 1268.32,231.77 1782.9,696.62 513.09,464.85 770.38,1047.56 770.38,1748.11zm-908.1 0c0,-477.95 -168.01,-874.71 -502.48,-1188.98 -336,-312.95 -715.89,-470.09 -1142.7,-470.09 -425.29,0 -803.67,157.14 -1139.67,472.71 -334.48,314.27 -502.48,711.03 -502.48,1186.36 0,476.64 168,872.09 502.48,1186.36 336,312.96 714.38,470.09 1139.67,470.09 426.81,0 806.7,-155.82 1142.7,-468.78 334.47,-312.96 502.48,-708.41 502.48,-1187.67zm2498.94 1538.6l0 -3079.82 -145.3 0c-225.5,0 -384.43,-36.66 -478.26,-108.68 -92.33,-72.02 -139.24,-166.3 -139.24,-284.15 0,-117.85 46.91,-212.13 139.24,-284.15 93.83,-72.02 252.76,-108.68 478.26,-108.68l2283.88 0c544.86,0 982.27,130.94 1313.72,392.83 331.46,261.89 497.95,573.54 497.95,933.63 0,171.54 -39.36,332.6 -116.54,483.19 -78.71,150.59 -196.76,290.7 -355.68,417.71 287.56,149.28 504,322.13 647.78,519.85 143.78,197.73 214.91,422.96 214.91,673.06 0,199.04 -51.45,384.98 -155.88,556.51 -75.68,129.64 -171.03,233.09 -283.03,310.34 -151.35,107.38 -335.99,195.11 -555.45,261.89 -217.94,68.09 -491.89,102.14 -820.32,102.14l-2671.34 0c-225.5,0 -384.43,-36.66 -478.26,-109.99 -92.33,-73.33 -139.24,-168.92 -139.24,-286.77 0,-117.85 46.91,-212.13 139.24,-282.84 93.83,-70.71 252.76,-106.07 478.26,-106.07l145.3 0zm908.11 -1932.74l1000.42 0c358.7,0 656.86,-78.57 892.97,-234.39 160.43,-106.07 240.64,-237.01 240.64,-392.84 0,-138.8 -75.67,-260.58 -227.02,-364.02 -151.35,-103.45 -390.49,-155.83 -720.42,-155.83l-1186.59 0 0 1147.08zm0 1932.74l1571 0c369.31,0 629.62,-47.14 780.98,-141.42 115.03,-72.02 172.54,-174.15 172.54,-307.72 0,-158.44 -113.51,-314.27 -342.06,-467.47 -227.02,-153.21 -553.94,-230.46 -980.74,-230.46l-1201.72 0 0 1147.07zm8042.9 -479.26l-2199.13 0 -223.98 479.26 217.94 0c227.02,0 387.46,36.67 481.29,108.69 92.33,72.02 139.24,166.3 139.24,284.15 0,117.85 -46.91,212.13 -139.24,284.15 -93.83,72.02 -254.27,108.68 -481.29,108.68l-1195.68 0c-225.5,0 -384.43,-36.66 -478.26,-109.99 -92.32,-73.33 -139.24,-168.92 -139.24,-286.77 0,-117.85 46.92,-212.13 139.24,-282.84 93.83,-70.71 252.76,-106.07 478.26,-106.07l1434.81 -3079.82 -590.26 0c-225.52,0 -384.43,-36.66 -478.27,-108.68 -92.33,-72.02 -139.25,-166.3 -139.25,-284.15 0,-117.85 46.92,-212.13 139.25,-284.15 93.84,-72.02 252.75,-108.68 478.27,-108.68l1949.38 0 1810.15 3865.48c225.52,0 369.3,23.57 431.35,70.71 124.11,96.9 186.17,204.28 186.17,322.13 0,117.85 -46.93,212.13 -139.24,284.15 -93.85,72.02 -252.76,108.68 -478.28,108.68l-1197.17 0c-227.03,0 -385.95,-36.66 -479.79,-109.99 -92.32,-73.33 -139.24,-168.92 -139.24,-286.77 0,-117.85 46.92,-212.13 139.24,-282.84 93.84,-70.71 252.76,-106.07 479.79,-106.07l217.94 0 -224 -479.26zm-367.78 -785.66l-731.03 -1560.86 -731.01 1560.86 1462.04 0zm6258.48 125.7l-1943.33 0 0 1139.22 145.3 0c195.23,0 339.01,36.67 432.86,108.69 92.31,72.02 139.24,166.3 139.24,284.15 0,117.85 -46.93,212.13 -139.24,284.15 -93.85,72.02 -237.63,108.68 -432.86,108.68l-1053.41 0c-195.24,0 -339.01,-36.66 -432.86,-109.99 -92.32,-73.33 -139.24,-168.92 -139.24,-286.77 0,-117.85 62.06,-222.61 187.67,-316.89 60.55,-48.45 189.19,-72.02 384.43,-72.02l0 -3079.82c-195.24,0 -339.01,-36.66 -432.86,-108.68 -92.32,-72.02 -139.24,-166.3 -139.24,-284.15 0,-117.85 46.92,-212.13 139.24,-284.15 93.85,-72.02 237.62,-108.68 432.86,-108.68l1053.41 0c195.23,0 339.01,35.35 432.86,106.06 92.31,70.71 139.24,164.99 139.24,282.84 0,117.85 -46.93,213.44 -139.24,286.77 -93.85,73.33 -237.63,109.99 -432.86,109.99l-145.3 0 0 1154.94 1943.33 0 0 -1154.94 -145.3 0c-195.24,0 -339.01,-36.66 -432.86,-108.68 -92.32,-72.02 -139.24,-166.3 -139.24,-284.15 0,-117.85 46.92,-212.13 139.24,-284.15 93.85,-72.02 237.62,-108.68 432.86,-108.68l1053.41 0c195.24,0 339.02,35.35 432.86,106.06 92.31,70.71 139.24,164.99 139.24,282.84 0,117.85 -46.93,213.44 -139.24,286.77 -93.84,73.33 -237.62,109.99 -432.86,109.99l0 3079.82c195.24,0 322.37,23.57 381.4,70.71 127.13,96.9 190.7,204.28 190.7,322.13 0,117.85 -46.93,212.13 -139.24,284.15 -93.84,72.02 -237.62,108.68 -432.86,108.68l-1053.41 0c-195.24,0 -339.01,-36.66 -432.86,-109.99 -92.32,-73.33 -139.24,-168.92 -139.24,-286.77 0,-117.85 46.92,-212.13 139.24,-282.84 93.85,-70.71 237.62,-106.07 432.86,-106.07l145.3 0 0 -1139.22zm2853.11 1139.22l0 -3079.82c-375.36,0 -563.03,-132.25 -563.03,-395.45 0,-260.58 202.81,-390.21 608.43,-390.21l1189.62 0c405.62,0 608.42,129.63 608.42,390.21 0,263.2 -202.8,395.45 -608.42,395.45l-326.92 0 0 2370.1 2324.74 -3155.76 1053.4 0c405.61,0 608.43,129.63 608.43,390.21 0,263.2 -202.82,395.45 -608.43,395.45l-145.3 0 0 3079.82c237.62,0 408.64,30.12 514.6,90.35 104.43,60.24 157.4,159.76 157.4,299.87 0,263.2 -202.82,395.45 -608.43,395.45l-1189.61 0c-405.63,0 -608.43,-132.25 -608.43,-395.45 0,-260.58 202.8,-390.22 608.43,-390.22l217.94 0 0 -2370.1 -2324.74 3155.77 -908.1 0c-405.62,0 -608.43,-132.25 -608.43,-395.45 0,-260.58 202.81,-390.22 608.43,-390.22zm7202.91 -1154.93l0 1154.93 2315.66 0 0 -424.26c0,-195.11 42.37,-332.6 127.13,-413.78 84.75,-79.88 195.24,-120.47 331.46,-120.47 136.21,0 245.18,40.59 326.91,120.47 81.73,81.18 122.6,218.67 122.6,413.78l0 1209.93 -4277.16 0c-225.52,0 -384.43,-36.66 -478.26,-109.99 -92.33,-73.33 -139.25,-168.92 -139.25,-286.77 0,-117.85 46.92,-212.13 139.25,-282.84 93.83,-70.71 252.74,-106.07 478.26,-106.07l145.3 0 0 -3079.82 -145.3 0c-225.52,0 -384.43,-36.66 -478.26,-108.68 -92.33,-72.02 -139.25,-166.3 -139.25,-284.15 0,-117.85 46.92,-212.13 139.25,-284.15 93.83,-72.02 252.74,-108.68 478.26,-108.68l4086.46 3.92 0 1190.29c0,195.11 -40.87,332.6 -122.6,413.79 -81.73,79.87 -190.7,120.47 -326.92,120.47 -136.21,0 -246.7,-40.6 -331.45,-120.47 -84.76,-81.19 -127.13,-218.68 -127.13,-413.79l0 -408.55 -2124.96 0 0 1139.22 799.12 0c0,-195.11 27.25,-318.19 83.25,-369.26 113.51,-110 239.14,-164.99 375.35,-164.99 136.22,0 245.19,40.59 326.92,120.47 81.73,81.18 122.59,218.67 122.59,413.78l0 785.67c0,195.11 -27.25,319.51 -81.73,371.88 -108.97,108.69 -231.56,162.37 -367.78,162.37 -136.21,0 -261.84,-54.99 -375.35,-164.99 -56,-51.06 -83.25,-174.15 -83.25,-369.26l-799.12 0z"/>
   </g>
  </g>
 </g>
</svg>
