<?xml version="1.0" encoding="utf-8"?><svg viewBox="0 0 510 502.66" xmlns="http://www.w3.org/2000/svg" xmlns:xlink="http://www.w3.org/1999/xlink"><style>:root>svg{display:none}:root>svg:target{display:block}</style><svg viewBox="0 0 24 24" id="address" xmlns="http://www.w3.org/2000/svg"><path d="M22 9v6c0 2.5-.5 4.25-1.62 5.38L14 14l7.73-7.73c.18.79.27 1.69.27 2.73z"/><path d="M21.73 6.27L6.27 21.73C3.26 21.04 2 18.96 2 15V9c0-5 2-7 7-7h6c3.96 0 6.04 1.26 6.73 4.27z"/><path d="M20.38 20.38C19.25 21.5 17.5 22 15 22H9c-1.04 0-1.94-.09-2.73-.27L14 14l6.38 6.38zM6.24 7.98c.68-2.93 5.08-2.93 5.76 0 .39 1.72-.69 3.18-1.64 4.08a1.8 1.8 0 01-2.48 0c-.95-.9-2.04-2.36-1.64-4.08zM9.095 8.7h.009"/></svg><svg viewBox="0 0 502.664 502.664" id="icon" xmlns="http://www.w3.org/2000/svg"><path d="M153.821 358.226L0 274.337v-46.463l153.821-83.414v54.574L46.636 250.523l107.185 53.431v54.272zm26.273 29.358L282.103 115.08h32.227L212.084 387.584h-31.99zm168.749-29.358v-54.272l107.164-52.999-107.164-52.59v-53.927l153.821 83.522v46.183l-153.821 84.083z"/></svg><svg viewBox="0 0 510 159" id="logo" xmlns="http://www.w3.org/2000/svg"><path fill-rule="evenodd" clip-rule="evenodd" d="M82.321 148.53l.651.533c-.38.422-8.525-3.404-9.598-3.851.088-.143-.077-.298.538-.249l1.846.499c2.525.828 4.324 1.983 6.563 3.068zm-41.009.686c.631-1.177 8.287-4.479 9.382-4.245.492.105.148.012.281.212l-9.663 4.033zm44.892-13.991c2.855-.418 5.692-.75 8.56-.633.508.021.912.051 1.4.116 1.355.18.971.083 1.085.451-2.943-.044-5.618.366-8.427.387-.469.004-.935-.024-1.404-.04-.226-.008-.544.01-.757-.018-.364-.047-.31-.094-.457-.263zm-59.236-.19c.856-.747 10.086-.454 10.813.327-.463.32-10.393-.067-10.813-.327zm45.196 6.925c.142-1 .735-2.945 1.016-3.95.315-1.132.72-2.566 1.097-3.743.386-1.207.718-2.48 1.117-3.7l1.052-3.452c.041 1.147-1.412 6.763-1.765 7.919l-1.777 5.338c-.247.721-.4 1.249-.74 1.588zm-23.688-12.993c.133.675.643 2.297.866 3.023.349 1.137.553 1.955.891 3.084.284.949 2.205 6.598 1.97 7.329-.287-.382-.343-.559-.46-1.212-.23-.793-.677-1.813-1.006-2.799-.69-2.068-2.165-6.909-2.54-9.109l-.28-1.18c-.074-.483-.152-.663.012-1.063l.547 1.927zm37.85-13.221l.063 2.116c-.074 1.29-.03 2.686-.093 3.942-.095 1.904-.707 9.792-1.146 10.598-.213-.51.038-2.829.075-3.424.073-1.17.17-2.448.233-3.604.07-1.296.48-8.838.868-9.628zm-47.108 16.462c-.556-.476-1.747-14.614-1.045-16.213.174 1.786 1.186 15.337 1.045 16.213zm58.144-11.598c.356-.3 1.7-.838 2.282-1.105 1.78-.815 5.854-2.194 7.543-1.977-.379.441-3.984 1.52-4.771 1.734-1.61.439-3.382 1.492-5.054 1.348zm-71.625-.595c.462.085 1.025.291 1.313.617-.134.128.181.113-.34.18a3.15 3.15 0 01-.412-.046c-.11-.019-.252-.042-.357-.096-.171-.088-.183-.149-.258-.227-.558.015-6.057-1.894-7.449-2.389-.41-.146-.654-.176-.95-.551 2.195-.12 6.523 1.514 8.453 2.512zm2.568-1.307c-.212-1.179.117-14.39.81-15.668.011 3.123-.207 8.924-.407 12.213-.05.831.029 3.226-.403 3.455zm67.647-.138c-.143-.341-1.112-14.831-.756-15.59.747 2.831 1.132 14.33.756 15.59zm-77.57-15.32c-.729-.161-3.362-2.349-4.272-2.974-.75-.516-1.26-.998-2.097-1.556-.444-.297-.66-.46-1.097-.813-.199-.16-.339-.257-.513-.379l-.473-.493c1.538.203 8.134 4.993 8.451 6.215zm89.511-1.999c1.851-1.583 5.022-4.049 7.035-4.472l-6.86 5.049c-.464.313-1.887 1.679-2.232 1.291l2.057-1.868zm-4.765-5.383c.163.82 1.016 5.706.926 6.055-.356-.548-2.436-10.172-2.529-11.617.341.256.373.23.638 1.11.521 1.724.621 2.724.965 4.452zm-82.849 6.018c-.152-1.9 2.008-11.919 3.175-14.93-.072 1.106-.47 2.844-.707 3.941-.64 2.95-1.61 8.821-2.468 10.989zm87.654-21.832c.38.53.948 1.738 1.129 2.68-.462-.26-.466-.528-.748-1.13-.741-1.588-1.614-3.167-2.396-4.72-.249-.494-.417-.742-.573-1.33.594.331 1.931 3.586 2.588 4.5zm10.021-5.69l-3.113 4.508c-.305.423-.428.722-.766 1.133-.729.885-1.755 2.946-2.501 3.234.147-.783 1.168-2.151 1.467-2.674.482-.842.779-1.305 1.485-2.333.99-1.443 2.491-3.367 3.577-4.412.127-.123.168-.108.327-.176-.237.756-.066.482-.476.72zM12.33 82.273c.343.327.895 1.354 1.012 1.884-.354-.214-.7-.684-.947-1.083-.168-.272-.155-.275-.256-.504-.305-.097-.244-.095-.483-.508-.199-.343-.158-.271-.385-.561l-5.493-8c.9.355 2.912 3.165 3.535 4.09.546.813 1.04 1.54 1.593 2.334.267.382 1.216 1.804 1.424 2.348zm2.996.578c.085-1.267 2.1-5.582 2.596-6.629.974-2.055 2.041-4.192 3.144-5.621-.12.413-.46 1.17-.632 1.572-.646 1.515-4.88 10.472-5.108 10.678zm94.962-21.514c-.532-.055-1.587-1.444-2.023-1.914-.867-.935-5.517-6.402-5.639-6.766 1.519.575 7.46 7.759 7.662 8.68zm-96.132-.078c.44-1.537 6.577-8.365 7.596-8.73-.22.554-.566.895-.916 1.263-1.342 1.412-5.955 7.335-6.68 7.468zM8.2 50.922c.091.335.374.727.56 1.162.973 2.274 1.575 4.415 2.398 6.828.177.52.845 2.162.642 2.743-.627-1.634-1.413-3.31-1.995-5.106-.205-.633-.176-1-.346-1.612-.21-.761-1.24-2.93-1.427-3.785l-.224-.43c-.013-.035-.023-.078-.034-.114-.07-.231-.071-.325-.116-.543.346.25.144.022.542.857zm104.323 10.855c-.215.364.024.066-.247.242.122-1.895 3.065-9.27 3.835-11.173.44-1.09.936-1.929 1.396-2.967-.007.656-2.959 8.659-3.511 10.07-.368.94-1.069 3.144-1.473 3.828zM98.187 37.004c.138-.128-.138-.164.34-.168.58-.005 4.23 1.971 4.705 2.234.952.526 3.646 2.328 4.422 3.163-.357.266-4.052-2.07-4.668-2.472l-4.8-2.757zM17.72 41.81c-.224.375-.808.715-1.142.422.235-.381.555-.51.94-.657.393-.483 7.678-5.347 8.56-4.565-1.196.59-7.93 4.764-8.358 4.8zm91.842-.282c-.318-.98 1.585-13.674 2.377-15.129.04.13.071.07.054.415a6.67 6.67 0 01-.087.496c-.618 2.898-1.647 12.549-2.344 14.218zm-94.95-1.685l.158.55c.066.424.078.956-.053 1.289-.246-.413-.292-1.194-.352-1.804-.09-1.166-.386-2.104-.568-3.286L12.332 26.34c.215.37.296.884.437 1.473.69 2.882 1.975 9.435 1.843 12.03zM93.743 24.23c.776-.72 6.659.74 7.651 1.073.535.18.624 0 .815.563-.469.34-3.454-.514-4.209-.67l-3.865-.693c-.103-.03-.134-.05-.247-.12-.018-.012-.06-.02-.072-.073-.013-.055-.048-.054-.073-.08zm-71.65 1.602c.734-1.259 7.863-1.84 9.48-1.75-.33.303-8.65 1.922-9.48 1.75zm82.068-2.019c-.21-.86-.236-2.98-.244-4.002-.005-.71.001-1.419-.004-2.128l.022-1.636c.038-.268.079-.283.118-.378.133.363.143.48.175.89.1 1.27-.078 1.328-.031 2.46.15 1.186.03.496-.036 4.794zm-84.063-9.166c0-1.137-.167-5.026.269-5.543l.233 3.303c-.121 3.089.1 9.669-.442 12.12-.087-1.732-.151-3.268-.127-5.044.02-1.472.17-3.419.067-4.836zm78.157-.694c-.602-.222-7.495-7.248-7.757-7.933 1.362.429 4.764 4.195 6.05 5.685.407.471 1.533 1.655 1.707 2.248zm-72.206-.027c.453-1.234 6.582-7.54 7.91-8.017-.25.517-3.257 3.594-3.845 4.169-.827.807-3.503 3.802-4.064 3.848zm20.615 128.241c.282.329.27.279-.196.307-1.597-.118-4.535 1.912-5.745 3.153-1.647 1.69-2.931 3.641-4.05 5.939.265.332 4.151 1.615 4.836 1.806 3.999 1.117 6.452 1.39 9.883-2.053 2.108-2.116 2.335-3.749 3.078-4.617l3.814 1.918c-.232.233-.314.231-.578.336-1.462.58-2.877 1.414-4.237 2.404-.995.724-3.38 2.998-3.77 4.298.235.678.95 1.545 1.314 1.776.756-.681 1.68-2.767 4.958-4.587 1.002-.556 5.338-2.783 6.17-2.784.656 0 5.345 2.333 6.166 2.784 1.906 1.049 3.544 2.749 4.959 4.617.473-.258 1.229-1.375 1.466-1.921-1.576-1.806-1.234-2.094-3.849-4.142-1.562-1.223-3.177-1.84-4.895-2.72.616-.597 1.282-.721 1.98-1.068.553-.275 1.438-.779 1.95-.901.228.351.35.774.577 1.197.226.421.458.813.702 1.225 1.431 2.419 3.656 4.425 5.912 4.81 3.233.551 6.24-.72 9.283-1.815l1.18-.563c-.308-.95-1.398-2.706-1.84-3.339-3.73-5.342-7.867-5.683-8.103-5.99.484-.615 2.057-1.557 2.75-2.157.493-.427 2.421-2.172 2.825-2.283.35.846.302.819.806 1.419 2.685 3.19 6.042 4.456 9.412 3.277 2.978-1.041 5.68-3.539 8.038-6.312.356-.419.719-.83 1.005-1.31l-1.157-1.249c-.51-.426-.848-.707-1.258-1.042-3.362-2.742-6.442-2.339-10.086-1.746.18-.478 3.031-4.035 3.692-4.84.452-.55.745-1.098 1.215-1.73.957.206 4.664 4.929 10.39.81 2.167-1.559 3.833-4.023 5.663-6.303.327-.407 1.556-1.935 1.737-2.394-.621-1.113-4.399-2.512-5.799-2.65-1.765-.173-3.387.255-5.041.924-.453.182-.961.59-1.44.743.267-.85 1.461-2.935 1.905-3.822.593-1.185 1.349-2.648 1.753-4.044.742.04 1.811.527 2.713.674 5.117.835 8.715-5.604 11.303-11.365.322-.719 1.137-2.086 1.234-2.882-3.365-1.252-7.36-.723-10.335 2.19-.326.319-.779.916-1.096 1.063l1.14-4.268c.303-1.058.7-3.677 1.104-4.346.618-.442 5.02.707 8.445-5.906 1.045-2.016 3.493-10.444 3.528-13.445-1.89-1.43-5.76 1.862-7.28 3.506-.785.85-1.42 1.961-2.106 3.028-.242.377-.627 1.42-.945 1.643.005-2.768.393-7.902.562-10.907l2.075-1.257c1.793-1.296 3.765-3.89 4.574-6.82 1.385-5.017 1.281-11.115 1.209-16.454-1.485.32-4.273 3.62-5.202 5.16-2.706 4.486-2.662 7.371-3.131 8.293-.264-.624-.481-3.723-.62-4.766-.182-1.378-.679-3.37-.714-4.73 1.314-1.12 2.25-2.556 3.101-4.464 2.064-4.622 2.159-9.21 1.197-14.708-.407-2.325-.825-5.144-1.376-7.229-1.495.508-4.285 6.67-4.911 9.977-.232 1.226-.638 3.51-.648 4.78-.084.553.078.193-.179.497l-.19-.647c-.368-1.973-1.523-4.039-1.826-5.66.217-.506.455-.733.765-1.146.407-.542.317-.655.599-1.38 2.459-6.329 1.817-11.787-.459-17.982-.283-.77-2.112-5.711-2.301-5.963-.799.932-2.14 5.08-2.509 7.123-.894 4.952-.315 5.517-.267 9.872-.365-.285-.49-.77-.786-1.33-1.484-2.807-.172-1.393-1.508-5.25-1.17-3.384-2.801-5.746-4.884-7.654-2.513-2.302-5.137-2.913-8.181-2.746.095 1.608 3.425 10.018 4.2 11.398 3.637 6.464 7.687 4.746 8.414 5.272.313.504 1.376 2.33 1.496 3.03-1.63-.358-2.599-1.973-6.563-1.27-1.644.291-4.448 1.94-5.664 3.195 1.785 2.28 4.606 5.484 6.72 6.84 2.29 1.465 4.507 2.124 7.137.751.58-.303 1.62-1.19 2.179-1.119.435.869 2.342 6.784 2.376 7.494l-2.612-2.247c-.678-.546-2.191-1.283-3.064-1.571-1.093-.36-2.62-.502-3.814-.326-.574.085-1.205.198-1.745.398-.269.1-.463.227-.749.349-.283.12-.551.188-.75.482.515 1.369 3.118 5.784 4.074 7.229 1.581 2.388 3.052 4.445 5.558 5.183 2.934.864 2.834.076 5.26-.278.51 2.14 1.132 6.657 1.223 9.161-1.099-.89-3.387-7.77-11.433-7.76.359 2.58 3.118 10.444 4.023 12.21.962 1.879 1.676 2.906 3.218 4.125 1.637 1.295 3.104 1.258 4.767 1.939.073 3.419-.283 7.268-.539 10.546-.721-.28-2.011-6.731-6.487-10.21-.773-.6-2.253-1.675-3.184-1.838.042 1.169.185 2.653.298 3.767.131 1.285.182 2.608.313 3.953.752 7.722 2.339 11.625 7.366 14.842-.002.626-.947 4.433-1.152 5.119-.24.805-.432 1.689-.651 2.441-.201.692-.394 1.72-.784 2.199-.181-.9-.136-3.094-.67-5.645-.703-3.362-1.848-6.03-3.367-8.476-.384-.619-1.977-2.737-2.54-3-.127 2.544-.648 4.741-.887 7.192-.265 2.722-.408 5.2-.214 8.021.164 2.39.944 4.661 1.698 6.117 2.209 3.942 1.525 2.286 2.892 4.36-.095.443-.309.823-.461 1.169-.54 1.23-3.24 7.113-3.8 7.499.039-2.085.326-2.793.263-6.055-.067-3.509-.927-7.118-2.127-9.934-.358-.838-1.464-3.341-1.913-3.696-.076.127-.085.096-.162.301-.048.127-.085.297-.123.452-.464 1.882-1.159 3.703-1.681 5.49-1.894 6.474-2.507 11.663-.175 18 .43 1.169.894 1.76 1.277 2.813-.272.865-2.045 2.96-2.598 3.756-.275.396-2.623 3.328-2.89 3.425.125-1.523.688-3.516.853-5.379.438-4.955-.237-10.618-1.994-14.837l-.501-1.051c-.501.62-2.198 4.55-2.67 5.622-2.5 5.668-4.376 11.444-2.667 18.358.184.745.888 2.936.93 3.578-1.346.839-5.86 5.093-6.887 5.14.535-1.338 1.222-2.378 1.74-3.793 1.871-5.125 2.277-10.784 1.288-16.527-.89.385-3.554 3.91-4.517 5.092-3.072 3.772-4.817 7.811-4.732 14.294.017 1.285.382 3.349.321 4.254-.635.463-6.468 3.077-7.12 3.085-.6.008-6.585-2.679-7.192-3.125.17-2.916.92-3.437.253-8.396-.952-7.078-4.84-10.171-8.157-14.344-.253-.318-.661-.849-.914-.846-.96 7.395-.582 12.128 2.04 18.292.348.817.73 1.161.91 1.923-.524-.07-3.062-2.013-3.52-2.38-1.066-.856-2.237-2.047-3.317-2.684.096-.925.727-2.446.937-3.397 1.912-8.655-.738-14.75-3.938-21.345l-1.4-2.847c-.021.028-.056.026-.065.086l-.37.947c-2.026 5.981-2.716 11.031-1.632 17.862.122.774.515 2.046.517 2.53-.376-.238-5.308-6.266-5.581-7.293.697-1.912 1.294-1.903 2.23-5.794 1.683-6.998-.272-11.857-2.04-18.055-.162-.566-.294-1.046-.478-1.582-.18-.525-.32-1.217-.574-1.567-1.158 1.295-2.565 5.337-3.102 7.412-.443 1.712-.651 2.83-.799 4.855l.034 5.633.066 1.018.104.842-.43-.688c-.861-1.592-3.435-6.212-3.837-8.113.951-1.623 1.56-1.696 2.844-4.324 2.125-4.355 1.976-8.902 1.45-14.168-.134-1.332-.673-6.298-.975-7.174-1.35.785-3.641 4.916-4.428 6.846-.475 1.164-1.111 3.173-1.375 4.6-.288 1.565-.442 3.415-.599 5.044l-.188.657c-.314-.637-2.405-8.802-2.4-9.813.486-.494 1.324-.74 1.937-1.355 1.73-1.734 3.353-3.567 4.152-6.644 1.136-4.371 1.624-9.675 1.846-14.52-1.941.25-4.515 2.791-5.869 4.66-2.55 3.523-2.463 4.987-3.51 7.612-.08.197-.088.18-.152.285-.418-1.192-.701-9.308-.689-11.22 3.254-.055 6.199-2.253 8.043-5.977 1.236-2.497 2.275-5.84 3.095-8.893.232-.862.84-2.47.898-3.225-3.8-.468-7.884 2.024-10.375 6.051-.265.43-.82 1.453-1.098 1.658-.013-1.56.893-7.842 1.22-9.16.644.03 1.65.529 2.466.611 5.216.53 8.253-4.941 11.2-10.352.4-.733 1.078-1.691 1.319-2.527-3.373-1.48-6.924-1.776-10.227.813-.415.325-.924.7-1.34 1.08-.465.425-.82 1.04-1.233 1.283.016-.894 1.975-6.706 2.446-7.653.59.027 1.45.786 2.08 1.132 4.725 2.598 8.742-1.794 12.287-5.691.439-.483 1.46-1.37 1.645-1.997-1.918-.99-2.623-2.34-5.538-3.044-1.05-.254-2.494-.228-3.558-.024-1.22.233-2.168 1.006-3.181 1.186.226-.917 1.082-2.25 1.527-3 2.2-.144 2.908-.132 5-1.314.735-.416 1.275-1.006 1.831-1.633.758-.853.96-1.321 1.519-2.285.908-1.566 4.16-9.873 4.316-11.426-2.31-.015-3.905.1-5.943 1.094-1.42.692-3.396 2.57-4.214 3.773-1.004 1.475-2.29 3.28-3.01 5.595-.182.582-.327 1.03-.497 1.699-.235.916-.184 1.215-.332 2.14-.072.444-1.267 2.616-1.416 2.82.034-4.095.708-4.594-.232-9.632a29.685 29.685 0 00-1.035-4.011l-1.465-3.395c-.504.647-2.035 5.032-2.336 5.842-.771 2.083-1.297 3.995-1.819 6.566-.895 4.408.14 9.214 1.898 12.667.266.522.51.777.754 1.326-.075.425-1.88 5.824-2.062 6.172-.241-.537-.183-1.695-.275-2.515-.42-3.72-1.678-7.229-3.269-9.908-.34-.574-1.653-2.605-2.073-2.913-.285.507-1.276 6.7-1.363 7.282-.393 2.631-.807 5.226-.623 8.186.443 7.103 4.813 11.09 4.863 11.372-.089 1.138-.458 3.176-.642 4.36a58.672 58.672 0 00-.545 4.596c-.544-1.049-.887-3.075-1.475-4.21-1.93-3.727-1.292-3.61-4.173-6.767-.462-.507-2.22-2.016-2.844-2.197-.076 1.354-.054 7.747.068 9.043.266 2.834.426 5.013 1.144 7.416.656 2.197 1.68 3.709 2.73 5.022 1.76 2.202 2.852 2.066 3.94 3.196l.203 5.404c.094 1.798.291 3.485.355 5.269-.395-.3-1.836-3.56-4.316-5.8-1.326-1.197-4.35-2.951-6.259-2.881l1.53 7.259c1.227 4.694 2.394 8.635 5.53 10.938 1.787 1.313 2.971 1.68 5.226 1.772l1.565 6.434c.204.661.495 1.398.578 2.034-.474-.129-.68-.54-1.092-.926-3.019-2.813-7.033-3.568-10.418-2.128.25.8 2.202 4.702 2.59 5.478 1.996 3.983 3.722 7.249 7.261 8.327 3.535 1.076 3.033.006 5.476-.268.682 1.975 1.76 4.005 2.654 5.777.152.303.302.649.456.948.245.475.355.422.545 1.005-1.373-.24-2.898-1.888-6.487-1.536-2.953.29-3.764 1.542-5.838 2.485.258.901 4.67 6.209 5.296 6.888 3.71 4.027 7.068 4.681 11.377 1.979.473-.297.795-.742 1.16-.849l5.05 6.673c-.97-.028-2.184-.583-3.646-.593-2.987-.02-5.62 1.322-8.104 3.577-.215.196-1.11 1.082-1.258 1.313.804 1.246 5.293 4.925 6.71 5.833 4.86 3.116 7.86 2.33 12.119-1.802.437-.425.534-.781.904-1.375 1.442.571 3.991 3.84 5.481 4.312z"/><path fill-rule="evenodd" clip-rule="evenodd" d="M37.462 38.813c-.041 5.35.205 10.123.303 15.28.181 9.533 1.019 15.468 2.833 24.246 1.952 9.444 6.609 19.928 10.819 26.185.799 1.187 1.563 2.153 2.452 3.324.912 1.201 1.7 2.222 2.59 3.275 1.366 1.617 1.54 1.559 2.788 2.812.776.778 2.3 2.394 3.23 1.731 2.763-1.97 3.512-2.911 5.695-5.434 3.713-4.291 6.532-8.769 9.231-14.497 4.19-8.893 6.871-18.796 8.13-30.262.446-4.067.622-8.849.768-13.023.08-2.28.444-12.001.269-13.624-2.22-.917-4.595-1.07-6.8-1.842-5.304-1.859-7.091-2.372-12.18-5.74-6.793-4.495-4.462-4.794-8.325-1.942-2.322 1.714-6.125 4.215-8.502 5.275-2.13.95-4.124 1.77-6.404 2.404-2.287.637-4.722 1.051-6.898 1.832zm3.137 4.478c.46-.488 2.258-.792 2.887-.953a79.97 79.97 0 002.995-.817c4.432-1.339 6.655-2.258 10.74-5.012.852-.575 1.59-.951 2.416-1.589 3.465-2.677 1.424-2.257 7.239 1.475 3.44 2.208 6.88 4.174 10.673 5.118 1.004.25 2.025.45 3.102.742.625.17 2.483.593 2.945.873.415 3.713-.55 19.097-.926 23.404-1.111 12.714-5.457 25.023-10.93 33.554-1.643 2.559-7.335 9.921-9.547 10.554-.83.237-4.547-3.532-5.256-4.332-7.003-7.894-10.652-16.802-13.777-29.182-1.636-6.48-2.037-14.442-2.358-21.548-.135-2.976-.335-9.528-.203-12.287z"/><path fill-rule="evenodd" clip-rule="evenodd" d="M40.438 42.759c.464-.493 2.277-.799 2.911-.962a79.511 79.511 0 003.02-.823c4.471-1.35 6.713-2.278 10.832-5.056.86-.58 1.605-.959 2.437-1.602 3.495-2.7 1.436-2.277 7.301 1.488 3.47 2.227 6.938 4.21 10.765 5.162 1.012.252 2.041.454 3.127.748.631.17 2.505.597 2.97.88.419 3.745-.553 19.26-.933 23.603-1.12 12.823-5.504 25.237-11.024 33.84-1.656 2.581-7.397 10.006-9.628 10.644-.838.24-4.586-3.562-5.3-4.368-7.064-7.962-10.743-16.945-13.895-29.431-1.65-6.536-2.055-14.566-2.379-21.732-.135-3.001-.337-9.608-.204-12.391z" fill-opacity=".05"/><path d="M52.769 78.234c0 1.905-.287 2.339-1.654 2.54l-.22 1.502s1.433-.033 2.535-.033c.97 0 2.712.1 2.712.1l.198-1.536-.044-.134s-.551.1-.992.1c-.772 0-1.014-.467-.97-2.271l.264-14.33c.023-1.27.353-1.738 1.456-2.005l.088-1.503s-1.411.3-2.36.3c-.837 0-2.446-.1-2.446-.1l-.155 1.47.044.133s.485-.066.75-.066c.661 0 .816.367.816 1.804l-.022 14.03zm2.204-6.513l3.858 8.117c.86 1.804 1.742 2.873 2.47 2.873.242 0 1.83-.401 1.83-.401l.132-1.136-.088-.134c-1.036 0-1.764-.768-2.822-2.839l-3.704-7.316 3.55-5.645c1.322-2.071 1.763-2.572 2.535-2.806l.154-1.37-.088-.233s-1.168.133-2.028.133c-.816 0-2.425-.233-2.425-.233l-.155 1.436.044.133c.948.1 1.39.435 1.39 1.003 0 .467-.221 1.035-.684 1.737l-3.947 6.213-.022.468zm12.76 10.923c3.197 0 5.446-2.706 5.446-6.514 0-3.04-2.161-4.576-4.08-6.08-1.565-1.236-2.998-2.471-2.998-4.476 0-1.837 1.169-3.207 2.778-3.207 1.985 0 2.624.769 2.624 3.107 0 1.035-.066 1.737-.066 1.737l.132.167.86-.134c.132-3.073.485-5.645.485-5.645l-.066-.2s-1.411-.836-3.373-.836c-2.866 0-5.071 2.706-5.071 6.214 0 2.906 1.83 4.442 3.594 5.846 1.697 1.336 3.35 2.538 3.35 4.71 0 2.271-1.234 3.674-3.064 3.674-2.381 0-2.866-1.002-2.866-5.812l-.992.167c0 3.24-.265 5.812-.265 5.812l.11.334s1.39 1.136 3.462 1.136zM143.969 118.239c3.955 0 11.256 1.353 15.008 1.504 16.022 0 26.466-11.88 26.466-30.075 0-12.18-6.185-19.248-14.298-22.405 6.389-4.963 10.851-12.481 10.851-23.007 0-15.188-7.504-23.308-21.498-23.308 0 0-11.966.752-15.515.752-3.549 0-14.095-.3-14.095-.3l-.913 9.172.609 1.203s2.23-.3 3.447-.3c2.535 0 3.347 1.954 3.347 7.518l-.102 58.645c0 7.819-1.622 10.376-7.402 11.879l-.812 10.226s9.127-1.504 14.907-1.504zm16.225-42.255c6.692 2.256 10.242 7.82 10.242 15.79 0 9.473-3.854 15.037-10.445 15.037-6.896 0-9.532-2.557-9.532-8.872l.405-21.804 9.33-.15zm-9.127-13.232c.102-6.467.406-18.346.812-26.616.101-2.105.507-2.707 1.825-2.707 9.532 0 13.994 4.661 13.994 14.736 0 12.331-6.997 15.94-6.997 15.94-1.927 0-9.634-1.354-9.634-1.354zM208.58 82.75l.71-43.758c.203-5.263 1.419-7.218 5.678-7.97l.71-10.225s-7.909.902-12.067.902c-5.78 0-14.501-.451-14.501-.451l-.912 9.924.202.602s2.13-.3 3.245-.3c2.637 0 3.245 1.503 3.245 8.12v47.968c0 21.653 7.91 32.48 23.526 32.48 16.935 0 26.163-12.33 26.163-34.886V38.391c0-4.812.811-5.864 5.881-7.518l.608-10.075s-6.895.902-12.067.902c-3.853 0-11.864-.451-11.864-.451l-.811 9.924.203.602s2.23-.3 3.346-.3c2.535 0 3.143 1.503 3.245 8.12 0 0 .405 37.291.405 47.216 0 13.082-4.157 19.548-12.371 19.548-8.112 0-12.574-8.57-12.574-23.608zm94.12.15s-13.893-29.923-27.075-61.8c0 0-5.375.601-9.735.601-4.969 0-11.763-.752-11.763-.752l-.71 8.722.811 1.503c6.591 1.053 8.214 2.858 8.214 9.323l-1.318 59.397c-.102 6.015-1.927 8.722-5.983 9.474l-.811 10.075s6.997-1.203 12.472-1.203c4.361 0 13.082.601 13.082.601l1.014-9.624-.609-1.052s-3.245.451-4.36.451c-2.535 0-3.448-1.804-3.448-6.767l.101-46.314h1.014s13.791 29.473 29.509 66.765l10.749-1.955 1.318-79.847c.102-6.015 1.927-8.572 6.389-9.474l.507-10.075s-6.997.752-11.966.752c-4.462 0-13.081-.601-13.081-.601l-.71 9.323.406 1.203c.405 0 2.028-.15 3.447-.15 2.333 0 3.245 1.804 3.347 6.465l.203 44.961H302.7zm30.133 14.286c0 8.421-1.217 10.526-7.098 11.879l-.913 9.624s8.417-.451 14.095-.451c4.361 0 14.603.451 14.603.451l.912-9.624-.406-1.052s-1.926.451-3.954.451c-3.144 0-4.056-1.955-3.854-10.226l.913-58.795c.101-5.564 1.42-7.218 6.389-8.722l.608-10.075s-9.634 1.053-13.994 1.053c-2.941 0-13.69-.3-13.69-.3l-.811 9.022.507 1.203s1.927-.15 3.144-.15c2.941 0 3.65 1.503 3.65 7.819l-.101 57.893zm15.312-26.466l15.312 37.142c3.651 8.722 6.997 12.631 11.256 12.631 1.825 0 11.864-1.804 11.864-1.804l.812-7.97-.609-1.353c-4.563-.451-7.605-4.06-11.56-13.083L361.835 65.91l10.444-17.443c5.78-10.225 9.025-14.586 13.284-17.142l.812-8.571-.71-1.654s-8.011.601-11.865.601c-4.157 0-12.675-.752-12.675-.752l-.811 9.323.304 1.053c3.853.3 5.374 1.654 5.374 4.661 0 2.105-.912 4.812-2.636 7.369l-14.907 24.06-.304 3.307zm61.975 26.616c0-4.06.101-10.075.304-21.052 1.724-.3 4.664-.902 7.706-.902 5.071 0 13.183.45 13.183.45l1.42-12.931-.812-1.353s-8.416 1.203-11.762 1.203c-2.941 0-7.302-.15-9.431-.15l.71-23.308c.101-4.512.608-4.963 5.374-4.963 11.357 0 12.777 1.203 12.777 9.474 0 2.105-.203 6.015-.203 6.015l9.33-.903c.507-13.984 2.332-27.367 2.332-27.367l-.811-1.655C434.051 21.1 423.809 21.7 409.41 21.7c-7.606 0-18.76-.451-18.76-.451l-.811 9.173.709 1.353s1.927-.3 3.043-.3c2.737 0 3.346 1.653 3.346 8.12l-.102 56.99c0 8.722-1.723 11.729-7.301 12.932l-.811 10.226s8.62-1.504 17.645-1.504c12.574 0 31.638 1.052 31.638 1.052l.912-1.654c1.014-14.435 2.84-27.969 2.84-27.969l-.71-1.504-8.62 1.053c-1.419 15.037-3.244 17.142-15.819 17.142-5.78 0-6.489-1.052-6.489-9.022zm65.016-16.842l8.721 26.165c2.941 9.323 6.591 13.985 11.053 13.985l12.067-1.654.71-7.97-.71-1.353c-4.259 0-7.504-4.06-11.256-13.083l-8.822-21.052c8.721-6.767 13.588-16.842 13.588-28.72 0-16.692-8.518-25.865-24.033-25.865 0 0-11.357.752-15.515.752-3.954 0-12.777-.3-12.777-.3l-.811 9.172.507 1.203s2.13-.3 3.549-.3c2.535 0 3.245 1.628 3.245 7.342l-.101 57.793c0 8.572-1.521 11.103-7.2 12.306l-.912 10.075s8.315-.903 14.5-.752c4.564 0 13.589.301 13.589.451l1.014-9.323-.406-.902c-6.49-.301-7.2-1.504-7.2-11.554l.102-16.516 7.098.1zm-6.794-13.608c.101-9.148.304-18.17.811-30.175.102-2.681.406-3.283 1.825-3.283 10.242 0 15.11 5.263 15.11 16.24 0 13.383-6.49 17.443-8.62 18.797l-9.126-1.58zm-327.405 72.177v11.97h1.594c.591 0 1.008.143 1.254.423.242.28.365.646.365 1.104 0 .458-.123.825-.365 1.105-.246.279-.663.422-1.254.422h-5.569c-.591 0-1.008-.143-1.254-.428-.242-.285-.365-.656-.365-1.114 0-.458.123-.825.365-1.099.246-.275.663-.413 1.254-.413h1.594v-11.97h-2.594v2.901c0 .759-.111 1.293-.329 1.608-.218.311-.504.469-.861.469s-.643-.158-.861-.469c-.218-.315-.329-.849-.329-1.608v-5.954h12.353v5.954c0 .759-.111 1.293-.33 1.608-.218.311-.503.469-.86.469s-.643-.158-.861-.469c-.218-.315-.329-.849-.329-1.608v-2.901h-2.618zm21.234 5.99c0 2.718-.674 4.978-2.019 6.784-1.349 1.807-2.903 2.708-4.673 2.708-1.594 0-3.026-.753-4.308-2.255-1.582-1.857-2.376-4.27-2.376-7.237 0-2.962.794-5.379 2.376-7.247 1.282-1.501 2.714-2.254 4.308-2.254 1.77 0 3.324.901 4.673 2.707 1.345 1.807 2.019 4.072 2.019 6.794zm-2.38 0c0-1.857-.44-3.399-1.317-4.621-.88-1.216-1.876-1.827-2.995-1.827-1.114 0-2.106.611-2.987 1.838-.876 1.221-1.317 2.763-1.317 4.61 0 1.853.441 3.39 1.317 4.611.881 1.217 1.873 1.827 2.987 1.827 1.119 0 2.115-.605 2.995-1.822.877-1.216 1.317-2.753 1.317-4.616zm14.023 1.553h-5.093v4.427h.381c.511 0 .888.143 1.134.423.242.28.365.646.365 1.104 0 .458-.123.825-.365 1.105-.246.279-.623.422-1.134.422h-2.761c-.512 0-.889-.143-1.135-.428-.242-.285-.365-.656-.365-1.114 0-.458.163-.865.492-1.232.159-.188.496-.28 1.008-.28v-11.97c-.512 0-.889-.142-1.135-.422-.242-.28-.365-.646-.365-1.104 0-.458.123-.825.365-1.105.246-.28.623-.422 1.135-.422h2.761c.511 0 .888.137 1.134.412.242.275.365.641.365 1.099 0 .458-.123.83-.365 1.115-.246.285-.623.427-1.134.427h-.381v4.489h5.093v-4.489h-.38c-.512 0-.889-.142-1.135-.422-.242-.28-.365-.646-.365-1.104 0-.458.123-.825.365-1.105.246-.28.623-.422 1.135-.422h2.76c.512 0 .889.137 1.135.412.242.275.365.641.365 1.099 0 .458-.123.83-.365 1.115-.246.285-.623.427-1.135.427v11.97c.512 0 .845.092 1 .275.333.377.5.794.5 1.252 0 .458-.123.825-.365 1.105-.246.279-.623.422-1.135.422h-2.76c-.512 0-.889-.143-1.135-.428-.242-.285-.365-.656-.365-1.114 0-.458.123-.825.365-1.099.246-.275.623-.413 1.135-.413h.38v-4.427zm7.478 4.427v-11.97c-.984 0-1.475-.514-1.475-1.537 0-1.012.531-1.516 1.594-1.516h3.118c1.063 0 1.595.504 1.595 1.516 0 1.023-.532 1.537-1.595 1.537h-.857v9.212l6.093-12.265h2.761c1.063 0 1.595.504 1.595 1.516 0 1.023-.532 1.537-1.595 1.537h-.381v11.97c.623 0 1.071.117 1.349.351.274.235.413.621.413 1.166 0 1.023-.532 1.537-1.595 1.537h-3.118c-1.063 0-1.595-.514-1.595-1.537 0-1.013.532-1.517 1.595-1.517h.571v-9.211l-6.093 12.265h-2.38c-1.063 0-1.594-.514-1.594-1.537 0-1.013.531-1.517 1.594-1.517zm19.95-3.145v3.145h2.404c.591 0 1.007.143 1.253.423.242.28.365.646.365 1.104 0 .458-.123.825-.365 1.105-.246.279-.662.422-1.253.422h-5.165c-.591 0-1.008-.143-1.254-.428-.242-.285-.365-.656-.365-1.114 0-.458.123-.825.365-1.099.246-.275.663-.413 1.254-.413h.381v-11.97h-.381c-.591 0-1.008-.142-1.254-.422-.242-.28-.365-.646-.365-1.104 0-.458.123-.825.365-1.105.246-.28.663-.422 1.254-.422h5.49c1.611 0 2.888.565 3.832 1.694.94 1.13 1.412 2.504 1.412 4.123 0 .896-.159 1.745-.476 2.539-.242.596-.643 1.186-1.202 1.766-.563.586-1.134 1.023-1.721 1.313-.584.296-1.357.443-2.317.443h-2.257zm0-3.053h2.209c1.04 0 1.861-.301 2.472-.906a2.954 2.954 0 00.912-2.173c0-.718-.246-1.349-.738-1.883-.492-.54-1.198-.81-2.11-.81h-2.745v5.772zm23.781.218c0 2.718-.674 4.978-2.019 6.784-1.349 1.807-2.904 2.708-4.673 2.708-1.594 0-3.026-.753-4.308-2.255-1.582-1.857-2.376-4.27-2.376-7.237 0-2.962.794-5.379 2.376-7.247 1.282-1.501 2.714-2.254 4.308-2.254 1.769 0 3.324.901 4.673 2.707 1.345 1.807 2.019 4.072 2.019 6.794zm-2.38 0c0-1.857-.44-3.399-1.317-4.621-.88-1.216-1.876-1.827-2.995-1.827-1.114 0-2.106.611-2.987 1.838-.876 1.221-1.317 2.763-1.317 4.61 0 1.853.441 3.39 1.317 4.611.881 1.217 1.873 1.827 2.987 1.827 1.119 0 2.115-.605 2.995-1.822.877-1.216 1.317-2.753 1.317-4.616zm6.55 5.98v-11.97h-.381c-.591 0-1.008-.142-1.254-.422-.241-.28-.364-.646-.364-1.104 0-.458.123-.825.364-1.105.246-.28.663-.422 1.254-.422h5.986c1.428 0 2.574.509 3.443 1.527.869 1.017 1.305 2.229 1.305 3.628 0 .667-.103 1.293-.305 1.878a5.18 5.18 0 01-.932 1.624c.753.58 1.321 1.252 1.697 2.02.377.769.564 1.644.564 2.616a5.64 5.64 0 01-.409 2.163c-.198.504-.448.906-.742 1.206a4.58 4.58 0 01-1.456 1.018c-.571.265-1.289.397-2.15.397h-7.001c-.591 0-1.008-.143-1.254-.428-.241-.285-.364-.656-.364-1.114 0-.458.123-.825.364-1.099.246-.275.663-.413 1.254-.413h.381zm2.38-7.511h2.622c.94 0 1.722-.306 2.34-.911.421-.413.631-.922.631-1.527 0-.54-.198-1.013-.595-1.415-.397-.402-1.023-.606-1.888-.606h-3.11v4.459zm0 7.511h4.117c.968 0 1.651-.183 2.047-.549.302-.28.453-.677.453-1.196 0-.616-.298-1.222-.897-1.817-.595-.596-1.452-.896-2.57-.896h-3.15v4.458zm21.08-1.862h-5.764l-.587 1.862h.571c.595 0 1.016.143 1.262.423.242.28.365.646.365 1.104 0 .458-.123.825-.365 1.105-.246.279-.667.422-1.262.422h-3.133c-.591 0-1.008-.143-1.254-.428-.242-.285-.365-.656-.365-1.114 0-.458.123-.825.365-1.099.246-.275.663-.413 1.254-.413l3.76-11.97h-1.547c-.591 0-1.008-.142-1.253-.422-.242-.28-.365-.646-.365-1.104 0-.458.123-.825.365-1.105.245-.28.662-.422 1.253-.422h5.109l4.745 15.023c.591 0 .968.092 1.13.275.325.377.488.794.488 1.252 0 .458-.123.825-.365 1.105-.246.279-.662.422-1.253.422h-3.138c-.595 0-1.012-.143-1.258-.428-.242-.285-.365-.656-.365-1.114 0-.458.123-.825.365-1.099.246-.275.663-.413 1.258-.413h.571l-.587-1.862zm-.964-3.054l-1.916-6.066-1.916 6.066h3.832zm16.403.489h-5.093v4.427h.381c.511 0 .888.143 1.134.423.242.28.365.646.365 1.104 0 .458-.123.825-.365 1.105-.246.279-.623.422-1.134.422h-2.761c-.512 0-.889-.143-1.135-.428-.242-.285-.365-.656-.365-1.114 0-.458.163-.865.492-1.232.159-.188.496-.28 1.008-.28v-11.97c-.512 0-.889-.142-1.135-.422-.242-.28-.365-.646-.365-1.104 0-.458.123-.825.365-1.105.246-.28.623-.422 1.135-.422h2.761c.511 0 .888.137 1.134.412.242.275.365.641.365 1.099 0 .458-.123.83-.365 1.115-.246.285-.623.427-1.134.427h-.381v4.489h5.093v-4.489h-.381c-.511 0-.888-.142-1.134-.422-.242-.28-.365-.646-.365-1.104 0-.458.123-.825.365-1.105.246-.28.623-.422 1.134-.422h2.761c.512 0 .889.137 1.135.412.242.275.365.641.365 1.099 0 .458-.123.83-.365 1.115-.246.285-.623.427-1.135.427v11.97c.512 0 .845.092 1 .275.333.377.5.794.5 1.252 0 .458-.123.825-.365 1.105-.246.279-.623.422-1.135.422h-2.761c-.511 0-.888-.143-1.134-.428-.242-.285-.365-.656-.365-1.114 0-.458.123-.825.365-1.099.246-.275.623-.413 1.134-.413h.381v-4.427zm7.478 4.427v-11.97c-.984 0-1.475-.514-1.475-1.537 0-1.012.531-1.516 1.594-1.516h3.118c1.063 0 1.595.504 1.595 1.516 0 1.023-.532 1.537-1.595 1.537h-.857v9.212l6.093-12.265h2.761c1.063 0 1.595.504 1.595 1.516 0 1.023-.532 1.537-1.595 1.537h-.381v11.97c.623 0 1.071.117 1.349.351.274.235.413.621.413 1.166 0 1.023-.532 1.537-1.595 1.537h-3.118c-1.063 0-1.595-.514-1.595-1.537 0-1.013.532-1.517 1.595-1.517h.571v-9.211l-6.093 12.265h-2.38c-1.063 0-1.595-.514-1.595-1.537 0-1.013.532-1.517 1.595-1.517zm18.879-4.488v4.488h6.069v-1.649c0-.758.111-1.292.333-1.608.222-.31.512-.468.869-.468s.642.158.857.468c.214.316.321.85.321 1.608v4.703h-11.21c-.591 0-1.008-.143-1.254-.428-.242-.285-.365-.656-.365-1.114 0-.458.123-.825.365-1.099.246-.275.663-.413 1.254-.413h.381v-11.97h-.381c-.591 0-1.008-.142-1.254-.422-.242-.28-.365-.646-.365-1.104 0-.458.123-.825.365-1.105.246-.28.663-.422 1.254-.422l10.71.015v4.626c0 .759-.107 1.293-.321 1.608-.214.311-.5.469-.857.469s-.647-.158-.869-.469c-.222-.315-.333-.849-.333-1.608v-1.588h-5.569v4.428h2.094c0-.758.072-1.237.218-1.435.298-.428.627-.641.984-.641s.643.157.857.468c.214.315.321.85.321 1.608v3.054c0 .758-.071 1.241-.214 1.445-.286.422-.607.631-.964.631s-.686-.214-.984-.641c-.146-.199-.218-.677-.218-1.435h-2.094zm35.852-10.535v3.786c0 1.364-.393 2.046-1.183 2.046-.797 0-1.198-.682-1.198-2.046v-.733h-6.069v4.459h3.047c2.015 0 3.51.493 4.486 1.475.976.983 1.464 2.367 1.464 4.158 0 3.288-1.69 4.932-5.07 4.932h-6.688c-1.063 0-1.594-.514-1.594-1.542 0-1.008.531-1.512 1.594-1.512h.381v-11.97h-.381c-1.063 0-1.594-.509-1.594-1.526 0-1.018.531-1.527 1.594-1.527h11.211zm-8.45 15.023h4.118c1.666 0 2.499-.671 2.499-2.015 0-1.629-1.155-2.443-3.467-2.443h-3.15v4.458zm16.808-3.145v3.145h2.404c.591 0 1.007.143 1.253.423.242.28.365.646.365 1.104 0 .458-.123.825-.365 1.105-.246.279-.662.422-1.253.422h-5.165c-.591 0-1.007-.143-1.253-.428-.242-.285-.365-.656-.365-1.114 0-.458.123-.825.365-1.099.246-.275.662-.413 1.253-.413h.381v-11.97h-.381c-.591 0-1.007-.142-1.253-.422-.242-.28-.365-.646-.365-1.104 0-.458.123-.825.365-1.105.246-.28.662-.422 1.253-.422h5.49c1.611 0 2.888.565 3.832 1.694.94 1.13 1.412 2.504 1.412 4.123 0 .896-.158 1.745-.476 2.539-.242.596-.642 1.186-1.202 1.766-.563.586-1.134 1.023-1.721 1.313-.583.296-1.357.443-2.317.443h-2.257zm0-3.053h2.21c1.039 0 1.86-.301 2.471-.906a2.954 2.954 0 00.912-2.173c0-.718-.246-1.349-.738-1.883-.491-.54-1.198-.81-2.11-.81h-2.745v5.772zm23.782.218c0 2.718-.675 4.978-2.02 6.784-1.348 1.807-2.903 2.708-4.673 2.708-1.594 0-3.026-.753-4.307-2.255-1.583-1.857-2.377-4.27-2.377-7.237 0-2.962.794-5.379 2.377-7.247 1.281-1.501 2.713-2.254 4.307-2.254 1.77 0 3.325.901 4.673 2.707 1.345 1.807 2.02 4.072 2.02 6.794zm-2.381 0c0-1.857-.44-3.399-1.317-4.621-.88-1.216-1.876-1.827-2.995-1.827-1.114 0-2.106.611-2.987 1.838-.876 1.221-1.317 2.763-1.317 4.61 0 1.853.441 3.39 1.317 4.611.881 1.217 1.873 1.827 2.987 1.827 1.119 0 2.115-.605 2.995-1.822.877-1.216 1.317-2.753 1.317-4.616zm14.024 1.553h-5.094v4.427h.381c.512 0 .889.143 1.134.423.242.28.365.646.365 1.104 0 .458-.123.825-.365 1.105-.245.279-.622.422-1.134.422h-2.761c-.512 0-.889-.143-1.134-.428-.242-.285-.365-.656-.365-1.114 0-.458.162-.865.491-1.232.159-.188.496-.28 1.008-.28v-11.97c-.512 0-.889-.142-1.134-.422-.242-.28-.365-.646-.365-1.104 0-.458.123-.825.365-1.105.245-.28.622-.422 1.134-.422h2.761c.512 0 .889.137 1.134.412.242.275.365.641.365 1.099 0 .458-.123.83-.365 1.115-.245.285-.622.427-1.134.427h-.381v4.489h5.094v-4.489h-.381c-.512 0-.889-.142-1.135-.422-.242-.28-.365-.646-.365-1.104 0-.458.123-.825.365-1.105.246-.28.623-.422 1.135-.422h2.761c.511 0 .888.137 1.134.412.242.275.365.641.365 1.099 0 .458-.123.83-.365 1.115-.246.285-.623.427-1.134.427v11.97c.511 0 .845.092.999.275.333.377.5.794.5 1.252 0 .458-.123.825-.365 1.105-.246.279-.623.422-1.134.422h-2.761c-.512 0-.889-.143-1.135-.428-.242-.285-.365-.656-.365-1.114 0-.458.123-.825.365-1.099.246-.275.623-.413 1.135-.413h.381v-4.427zm7.477 4.427v-11.97c-.983 0-1.475-.514-1.475-1.537 0-1.012.531-1.516 1.594-1.516h3.118c1.063 0 1.595.504 1.595 1.516 0 1.023-.532 1.537-1.595 1.537h-.856v9.212l6.093-12.265h2.76c1.064 0 1.595.504 1.595 1.516 0 1.023-.531 1.537-1.595 1.537h-.38v11.97c.622 0 1.071.117 1.348.351.274.235.413.621.413 1.166 0 1.023-.532 1.537-1.595 1.537h-3.118c-1.063 0-1.594-.514-1.594-1.537 0-1.013.531-1.517 1.594-1.517h.572v-9.211l-6.093 12.265h-2.381c-1.063 0-1.594-.514-1.594-1.537 0-1.013.531-1.517 1.594-1.517zm19.95-3.145v3.145h2.404c.591 0 1.007.143 1.253.423.242.28.365.646.365 1.104 0 .458-.123.825-.365 1.105-.246.279-.662.422-1.253.422h-5.165c-.591 0-1.007-.143-1.253-.428-.242-.285-.365-.656-.365-1.114 0-.458.123-.825.365-1.099.246-.275.662-.413 1.253-.413h.381v-11.97h-.381c-.591 0-1.007-.142-1.253-.422-.242-.28-.365-.646-.365-1.104 0-.458.123-.825.365-1.105.246-.28.662-.422 1.253-.422h5.49c1.611 0 2.888.565 3.832 1.694.94 1.13 1.412 2.504 1.412 4.123 0 .896-.158 1.745-.476 2.539-.242.596-.642 1.186-1.202 1.766-.563.586-1.134 1.023-1.721 1.313-.583.296-1.357.443-2.317.443h-2.257zm0-3.053h2.209c1.04 0 1.861-.301 2.472-.906a2.954 2.954 0 00.912-2.173c0-.718-.246-1.349-.738-1.883-.491-.54-1.198-.81-2.11-.81h-2.745v5.772zm23.781.218c0 2.718-.674 4.978-2.019 6.784-1.348 1.807-2.903 2.708-4.673 2.708-1.594 0-3.026-.753-4.308-2.255-1.582-1.857-2.376-4.27-2.376-7.237 0-2.962.794-5.379 2.376-7.247 1.282-1.501 2.714-2.254 4.308-2.254 1.77 0 3.325.901 4.673 2.707 1.345 1.807 2.019 4.072 2.019 6.794zm-2.38 0c0-1.857-.44-3.399-1.317-4.621-.88-1.216-1.876-1.827-2.995-1.827-1.114 0-2.106.611-2.987 1.838-.876 1.221-1.317 2.763-1.317 4.61 0 1.853.441 3.39 1.317 4.611.881 1.217 1.873 1.827 2.987 1.827 1.119 0 2.115-.605 2.995-1.822.877-1.216 1.317-2.753 1.317-4.616zm6.55 5.98v-11.97h-.381c-.591 0-1.007-.142-1.253-.422-.242-.28-.365-.646-.365-1.104 0-.458.123-.825.365-1.105.246-.28.662-.422 1.253-.422h5.986c1.428 0 2.575.509 3.443 1.527.869 1.017 1.305 2.229 1.305 3.628 0 .667-.103 1.293-.305 1.878a5.18 5.18 0 01-.932 1.624c.753.58 1.321 1.252 1.698 2.02.376.769.563 1.644.563 2.616a5.64 5.64 0 01-.409 2.163c-.198.504-.448.906-.742 1.206-.396.417-.88.758-1.455 1.018-.572.265-1.29.397-2.15.397h-7.002c-.591 0-1.007-.143-1.253-.428-.242-.285-.365-.656-.365-1.114 0-.458.123-.825.365-1.099.246-.275.662-.413 1.253-.413h.381zm2.38-7.511h2.622c.94 0 1.722-.306 2.341-.911.42-.413.63-.922.63-1.527 0-.54-.198-1.013-.595-1.415-.396-.402-1.023-.606-1.888-.606h-3.11v4.459zm0 7.511h4.118c.968 0 1.65-.183 2.047-.549.301-.28.452-.677.452-1.196 0-.616-.298-1.222-.897-1.817-.595-.596-1.452-.896-2.57-.896h-3.15v4.458zm21.08-1.862h-5.764l-.587 1.862h.572c.595 0 1.015.143 1.261.423.242.28.365.646.365 1.104 0 .458-.123.825-.365 1.105-.246.279-.666.422-1.261.422h-3.134c-.591 0-1.008-.143-1.254-.428-.242-.285-.365-.656-.365-1.114 0-.458.123-.825.365-1.099.246-.275.663-.413 1.254-.413l3.76-11.97h-1.547c-.591 0-1.007-.142-1.253-.422-.242-.28-.365-.646-.365-1.104 0-.458.123-.825.365-1.105.246-.28.662-.422 1.253-.422h5.11l4.744 15.023c.591 0 .968.092 1.13.275.326.377.488.794.488 1.252 0 .458-.123.825-.365 1.105-.246.279-.662.422-1.253.422h-3.138c-.595 0-1.011-.143-1.257-.428-.242-.285-.365-.656-.365-1.114 0-.458.123-.825.365-1.099.246-.275.662-.413 1.257-.413h.571l-.587-1.862zm-.964-3.054l-1.916-6.066-1.916 6.066h3.832zm16.403.489h-5.093v4.427h.381c.512 0 .888.143 1.134.423.242.28.365.646.365 1.104 0 .458-.123.825-.365 1.105-.246.279-.622.422-1.134.422h-2.761c-.512 0-.889-.143-1.135-.428-.241-.285-.364-.656-.364-1.114 0-.458.162-.865.491-1.232.159-.188.496-.28 1.008-.28v-11.97c-.512 0-.889-.142-1.135-.422-.241-.28-.364-.646-.364-1.104 0-.458.123-.825.364-1.105.246-.28.623-.422 1.135-.422h2.761c.512 0 .888.137 1.134.412.242.275.365.641.365 1.099 0 .458-.123.83-.365 1.115-.246.285-.622.427-1.134.427h-.381v4.489h5.093v-4.489h-.38c-.512 0-.889-.142-1.135-.422-.242-.28-.365-.646-.365-1.104 0-.458.123-.825.365-1.105.246-.28.623-.422 1.135-.422h2.761c.511 0 .888.137 1.134.412.242.275.365.641.365 1.099 0 .458-.123.83-.365 1.115-.246.285-.623.427-1.134.427v11.97c.511 0 .845.092.999.275.333.377.5.794.5 1.252 0 .458-.123.825-.365 1.105-.246.279-.623.422-1.134.422h-2.761c-.512 0-.889-.143-1.135-.428-.242-.285-.365-.656-.365-1.114 0-.458.123-.825.365-1.099.246-.275.623-.413 1.135-.413h.38v-4.427zm7.478 4.427v-11.97c-.983 0-1.475-.514-1.475-1.537 0-1.012.531-1.516 1.594-1.516h3.118c1.063 0 1.595.504 1.595 1.516 0 1.023-.532 1.537-1.595 1.537h-.857v9.212l6.093-12.265h2.761c1.063 0 1.595.504 1.595 1.516 0 1.023-.532 1.537-1.595 1.537h-.38v11.97c.622 0 1.071.117 1.348.351.274.235.413.621.413 1.166 0 1.023-.532 1.537-1.595 1.537h-3.118c-1.063 0-1.594-.514-1.594-1.537 0-1.013.531-1.517 1.594-1.517h.571v-9.211l-6.093 12.265h-2.38c-1.063 0-1.594-.514-1.594-1.537 0-1.013.531-1.517 1.594-1.517zm18.879-4.488v4.488h6.069v-1.649c0-.758.111-1.292.333-1.608.222-.31.512-.468.869-.468s.643.158.857.468c.214.316.321.85.321 1.608v4.703h-11.21c-.591 0-1.008-.143-1.254-.428-.242-.285-.365-.656-.365-1.114 0-.458.123-.825.365-1.099.246-.275.663-.413 1.254-.413h.381v-11.97h-.381c-.591 0-1.008-.142-1.254-.422-.242-.28-.365-.646-.365-1.104 0-.458.123-.825.365-1.105.246-.28.663-.422 1.254-.422l10.71.015v4.626c0 .759-.107 1.293-.321 1.608-.214.311-.5.469-.857.469s-.646-.158-.869-.469c-.222-.315-.333-.849-.333-1.608v-1.588h-5.569v4.428h2.094c0-.758.072-1.237.218-1.435.298-.428.627-.641.984-.641s.643.157.857.468c.214.315.321.85.321 1.608v3.054c0 .758-.071 1.241-.214 1.445-.285.422-.607.631-.964.631s-.686-.214-.984-.641c-.146-.199-.218-.677-.218-1.435h-2.094z"/></svg><svg viewBox="0 0 24 24" id="phone" xmlns="http://www.w3.org/2000/svg"><path d="M21.97 18.33c0 .36-.08.73-.25 1.09-.17.36-.39.7-.68 1.02-.49.54-1.03.93-1.64 1.18-.6.25-1.25.38-1.95.38-1.02 0-2.11-.24-3.26-.73s-2.3-1.15-3.44-1.98a28.75 28.75 0 01-3.28-2.8 28.414 28.414 0 01-2.79-3.27c-.82-1.14-1.48-2.28-1.96-3.41C2.24 8.67 2 7.58 2 6.54c0-.68.12-1.33.36-1.93.24-.61.62-1.17 1.15-1.67C4.15 2.31 4.85 2 5.59 2c.28 0 .56.06.81.18.26.12.49.3.67.56l2.32 3.27c.18.25.31.48.4.7.09.21.14.42.14.61 0 .24-.07.48-.21.71-.13.23-.32.47-.56.71l-.76.79c-.11.11-.16.24-.16.4 0 .08.01.15.03.23.03.08.06.14.08.2.18.33.49.76.93 1.28.45.52.93 1.05 1.45 1.58.54.53 1.06 1.02 1.59 1.47.52.44.95.74 1.29.92.05.02.11.05.18.08.08.03.16.04.25.04.17 0 .3-.06.41-.17l.76-.75c.25-.25.49-.44.72-.56.23-.14.46-.21.71-.21.19 0 .39.04.61.13.22.09.45.22.7.39l3.31 2.35c.26.18.44.39.55.64.1.25.16.5.16.78zM18.5 9c0-.6-.47-1.52-1.17-2.27-.64-.69-1.49-1.23-2.33-1.23M22 9c0-3.87-3.13-7-7-7"/></svg><svg viewBox="0 0 28 23" id="telegram" xmlns="http://www.w3.org/2000/svg"><path fill-rule="evenodd" clip-rule="evenodd" d="M2.316 9.736l14.58-6.28C23.837.568 25.28.066 26.22.05c.207-.004.67.048.969.29.253.206.322.483.355.678.034.194.075.637.042.984-.376 3.953-2.004 13.546-2.832 17.974-.35 1.873-1.04 2.501-1.709 2.563-1.451.133-2.554-.96-3.96-1.882l-5.58-3.747c-2.468-1.627-.867-2.52.54-3.982.367-.382 6.764-6.2 6.888-6.728.015-.066.03-.312-.117-.442-.146-.13-.362-.085-.517-.05-.22.05-3.736 2.373-10.545 6.97-.998.685-1.902 1.019-2.711 1.001-.893-.02-2.61-.505-3.887-.92-1.565-.508-2.81-.777-2.701-1.642.056-.45.676-.91 1.86-1.381z"/></svg><svg viewBox="0 0 60 60" id="vk" xmlns="http://www.w3.org/2000/svg"><path d="M30 0C13.432 0 0 13.431 0 30c0 16.569 13.432 30 30 30 16.568 0 30-13.431 30-30C60 13.431 46.568 0 30 0zm15.218 33.245c1.398 1.365 2.877 2.65 4.132 4.158.556.666 1.08 1.355 1.48 2.13.57 1.106.055 2.319-.935 2.384l-6.146-.001c-1.587.131-2.85-.509-3.915-1.594-.85-.865-1.639-1.789-2.458-2.683-.334-.367-.687-.713-1.106-.985-.838-.545-1.566-.378-2.046.497-.49.891-.601 1.878-.648 2.87-.067 1.449-.504 1.827-1.958 1.895-3.107.146-6.055-.325-8.795-1.892-2.418-1.382-4.288-3.332-5.919-5.54-3.174-4.304-5.606-9.027-7.79-13.887-.492-1.094-.132-1.68 1.075-1.703 2.006-.038 4.012-.033 6.018-.002.816.013 1.357.48 1.67 1.25 1.084 2.668 2.413 5.205 4.078 7.559.444.626.897 1.251 1.542 1.694.712.488 1.255.327 1.59-.468.215-.505.308-1.045.355-1.587.16-1.854.178-3.708-.098-5.555-.172-1.155-.822-1.902-1.974-2.12-.587-.111-.5-.329-.215-.664.495-.58.96-.938 1.887-.938l6.944-.001c1.094.215 1.34.706 1.488 1.808l.006 7.717c-.013.427.215 1.691.98 1.97.614.203 1.02-.29 1.386-.678 1.666-1.767 2.852-3.853 3.915-6.012.469-.951.873-1.937 1.266-2.924.292-.73.746-1.089 1.57-1.076l6.687.008c.197 0 .397.002.592.035 1.127.193 1.436.678 1.088 1.777-.55 1.727-1.615 3.166-2.658 4.609-1.117 1.544-2.308 3.034-3.414 4.585-1.017 1.418-.936 2.132.326 3.364z"/></svg><svg viewBox="0 0 23 21" id="whatsapp" xmlns="http://www.w3.org/2000/svg"><path d="M16.875 12.576c-.25-.112-1.563-.787-1.813-.843-.25-.113-.437-.113-.624.112-.188.225-.75.788-.876.9-.187.169-.312.169-.562.056-.25-.112-1.125-.393-2.125-1.293-.75-.675-1.313-1.463-1.438-1.744-.124-.225 0-.394.126-.506.124-.113.25-.282.437-.394.188-.113.188-.225.313-.394.124-.169.062-.281 0-.45-.063-.169-.563-1.35-.75-1.856-.188-.506-.438-.394-.563-.45-.188 0-.313-.056-.5-.056-.25 0-.563.112-.75.28-.25.226-1 .788-1 1.97 0 1.18.875 2.418 1 2.53.125.17 1.75 2.757 4.438 3.826 2.687 1.069 2.687.731 3.187.731s1.625-.562 1.875-1.069c.25-.562.25-1.068.188-1.125-.125 0-.313-.056-.563-.225zm-5 5.794c-1.75 0-3.375-.45-4.813-1.294l-3.375.957 1.126-2.925c-1.063-1.35-1.688-2.982-1.688-4.67 0-4.387 3.938-7.93 8.813-7.93 4.874 0 8.75 3.543 8.75 7.93 0 4.388-3.938 7.932-8.813 7.932zm0-17.437c-5.813 0-10.563 4.275-10.563 9.506 0 1.744.5 3.431 1.5 4.894L.875 20.45l5.875-1.687c1.563.787 3.313 1.181 5.125 1.181 5.813 0 10.563-4.275 10.563-9.506S17.75.933 11.874.933z"/></svg></svg>