<?xml version="1.0" encoding="utf-8"?><svg viewBox="0 0 2000 630.15" xmlns="http://www.w3.org/2000/svg" xmlns:xlink="http://www.w3.org/1999/xlink"><style>:root>svg{display:none}:root>svg:target{display:block}</style><svg viewBox="0 0 502.664 502.664" id="icon" xmlns="http://www.w3.org/2000/svg"><path d="M153.821 358.226L0 274.337v-46.463l153.821-83.414v54.574L46.636 250.523l107.185 53.431v54.272zm26.273 29.358L282.103 115.08h32.227L212.084 387.584h-31.99zm168.749-29.358v-54.272l107.164-52.999-107.164-52.59v-53.927l153.821 83.522v46.183l-153.821 84.083z"/></svg><svg viewBox="0 0 9750 3072" id="logo" xmlns="http://www.w3.org/2000/svg"><path d="M385.51 2242.69c101.802 0 289.746 30.84 386.327 34.27 412.433 0 681.293-270.7 681.293-685.3 0-277.55-159.23-438.59-368.05-510.55 164.45-113.071 279.3-284.396 279.3-524.25 0-346.074-193.16-531.105-553.388-531.105 0 0-308.018 17.133-399.379 17.133-91.361 0-362.834-6.853-362.834-6.853L25.286 245.05l15.662 27.412s57.426-6.853 88.75-6.853c65.259 0 86.141 44.544 86.141 171.323l-2.61 1336.327c0 178.18-41.765 236.43-190.553 270.69L1.793 2276.96s234.929-34.27 383.717-34.27zm417.651-962.84c172.282 51.4 263.639 178.18 263.639 359.78 0 215.87-99.188 342.65-268.859 342.65-177.502 0-245.371-58.25-245.371-202.16l10.442-496.84 240.149-3.43zM568.232 978.318c2.611-147.339 10.442-418.031 20.883-606.488 2.611-47.97 13.052-61.676 46.986-61.676 245.37 0 360.225 106.22 360.225 335.795 0 280.972-180.113 363.211-180.113 363.211-49.597 0-247.981-30.842-247.981-30.842zM2048.7 1434.04l18.27-997.107c5.23-119.926 36.55-164.47 146.18-181.603l18.27-233.002s-203.6 20.56-310.62 20.56c-148.79 0-373.28-10.28-373.28-10.28l-23.49 226.149 5.22 13.706s54.82-6.853 83.53-6.853c67.87 0 83.53 34.265 83.53 185.029V1543.69c0 493.41 203.6 740.12 605.59 740.12 435.93 0 673.47-280.97 673.47-794.95V423.227c0-109.646 20.88-133.632 151.4-171.323l15.66-229.576s-177.51 20.56-310.63 20.56c-99.19 0-305.41-10.28-305.41-10.28l-20.88 226.149 5.22 13.706s57.43-6.853 86.14-6.853c65.26 0 80.92 34.265 83.53 185.029 0 0 10.44 849.771 10.44 1075.921 0 298.1-107.02 445.44-318.46 445.44-208.82 0-323.68-195.31-323.68-537.96zm2422.8 3.43S4113.88 755.597 3774.54 29.181c0 0-138.34 13.707-250.59 13.707-127.9 0-302.8-17.133-302.8-17.133l-18.27 198.737 20.88 34.265c169.68 23.985 211.44 65.103 211.44 212.441l-33.93 1353.462c-2.61 137.06-49.6 198.74-154.01 215.87l-20.88 229.57s180.11-27.41 321.06-27.41c112.25 0 336.74 13.71 336.74 13.71l26.1-219.3-15.66-23.98s-83.53 10.28-112.25 10.28c-65.25 0-88.75-41.12-88.75-154.2l2.61-1055.353h26.11s355 671.593 759.6 1521.363l276.69-44.55 33.94-1819.462c2.61-137.06 49.59-195.309 164.45-215.868l13.05-229.575s-180.11 17.133-308.02 17.133c-114.85 0-336.73-13.706-336.73-13.706l-18.27 212.442 10.44 27.412c10.44 0 52.21-3.426 88.75-3.426 60.04 0 83.53 41.118 86.14 147.338l5.22 1024.522h-26.1zm775.68 325.51c0 191.89-31.32 239.86-182.72 270.7l-23.49 219.29s216.65-10.28 362.83-10.28c112.24 0 375.89 10.28 375.89 10.28l23.49-219.29-10.44-23.99s-49.6 10.28-101.8 10.28c-80.92 0-104.42-44.54-99.2-233l23.5-1339.757c2.61-126.78 36.54-164.471 164.45-198.736l15.66-229.575s-247.98 23.986-360.23 23.986c-75.69 0-352.39-6.853-352.39-6.853l-20.88 205.589 13.05 27.412s49.6-3.426 80.92-3.426c75.7 0 93.97 34.264 93.97 178.176l-2.61 1319.194zm394.16-603.06l394.16 846.34c93.97 198.74 180.11 287.83 289.74 287.83 46.99 0 305.41-41.12 305.41-41.12l20.88-181.6-15.66-30.84c-117.46-10.28-195.77-92.52-297.57-298.11l-344.57-692.15 268.87-397.468c148.78-233.001 232.32-332.369 341.95-390.619l20.88-195.31-18.27-37.692s-206.22 13.707-305.41 13.707c-107.02 0-326.29-17.133-326.29-17.133l-20.88 212.443 7.83 23.985c99.19 6.853 138.35 37.691 138.35 106.22 0 47.971-23.5 109.648-67.87 167.899l-383.72 548.238-7.83 75.38zm1595.32 606.49c0-92.52 2.61-229.57 7.84-479.71 44.37-6.85 120.07-20.56 198.38-20.56 130.52 0 339.34 10.28 339.34 10.28l36.55-294.675-20.89-30.839s-216.65 27.412-302.79 27.412c-75.7 0-187.95-3.426-242.76-3.426l18.27-531.106c2.61-102.795 15.66-113.073 138.34-113.073 292.36 0 328.91 27.411 328.91 215.868 0 47.971-5.22 137.06-5.22 137.06l240.14-20.559c13.06-318.664 60.04-623.621 60.04-623.621L8011.93 1.77c-159.23 27.412-422.87 41.117-793.54 41.117-195.77 0-482.91-10.279-482.91-10.279l-20.88 209.016 18.27 30.839s49.6-6.853 78.31-6.853c70.48 0 86.14 37.691 86.14 185.029l-2.61 1298.641c0 198.73-44.37 267.26-187.94 294.67l-20.88 233.01s221.87-34.27 454.19-34.27c323.68 0 814.42 23.99 814.42 23.99l23.5-37.69c26.1-328.95 73.08-637.33 73.08-637.33l-18.27-34.27-221.88 23.99c-36.54 342.65-83.53 390.62-407.21 390.62-148.78 0-167.06-23.99-167.06-205.59zm1673.64-383.77l224.49 596.21c75.69 212.44 169.67 318.67 284.52 318.67l310.63-37.7 18.27-181.6-18.27-30.84c-109.64 0-193.17-92.51-289.75-298.1l-227.1-479.71c224.49-154.19 349.79-383.767 349.79-654.459 0-380.34-219.27-589.356-618.65-589.356 0 0-292.35 17.133-399.38 17.133-101.8 0-328.9-6.853-328.9-6.853l-20.88 209.016 13.05 27.412s54.82-6.853 91.36-6.853c65.26 0 83.53 37.12 83.53 167.326l-2.61 1316.914c0 195.31-39.15 252.99-185.33 280.4l-23.49 229.57s214.04-20.56 373.27-17.13c117.47 0 349.78 6.85 349.78 10.28l26.11-212.44-10.44-20.56c-167.06-6.85-185.33-34.26-185.33-263.27l2.61-376.34 182.72 2.28zm-174.89-310.09c2.61-208.448 7.83-414.037 20.88-687.584 2.61-61.106 10.44-74.812 46.98-74.812 263.65 0 388.94 119.926 388.94 370.06 0 304.957-167.06 397.476-221.88 428.306l-234.92-35.97zM307.435 2717.23v272.76h41.049c15.215 0 25.937 3.24 32.267 9.62 6.229 6.38 9.395 14.73 9.395 25.17 0 10.43-3.166 18.78-9.395 25.16-6.33 6.38-17.052 9.63-32.267 9.63H205.118c-15.215 0-25.936-3.25-32.267-9.74-6.23-6.5-9.395-14.96-9.395-25.4 0-10.44 3.165-18.79 9.395-25.05 6.331-6.26 17.052-9.39 32.267-9.39h41.049v-272.76h-66.781v66.1c0 17.28-2.86 29.46-8.476 36.65-5.616 7.07-12.968 10.67-22.158 10.67-9.191 0-16.542-3.6-22.158-10.67-5.616-7.19-8.476-19.37-8.476-36.65v-135.68h317.978v135.68c0 17.28-2.858 29.46-8.474 36.65-5.617 7.07-12.969 10.67-22.159 10.67s-16.542-3.6-22.158-10.67c-5.617-7.19-8.475-19.37-8.475-36.65v-66.1h-67.395zm546.619 136.49c0 61.93-17.359 113.42-51.976 154.59-34.718 41.17-74.746 61.69-120.288 61.69-41.049 0-77.911-17.16-110.894-51.37-40.743-42.33-61.166-97.3-61.166-164.91 0-67.49 20.423-122.57 61.166-165.13 32.983-34.22 69.845-51.38 110.894-51.38 45.542 0 85.57 20.53 120.288 61.7 34.617 41.16 51.976 92.77 51.976 154.81zm-61.268 0c0-42.32-11.334-77.46-33.901-105.3-22.669-27.71-48.299-41.63-77.095-41.63-28.694 0-54.221 13.92-76.89 41.87-22.568 27.83-33.903 62.97-33.903 105.06 0 42.22 11.335 77.24 33.903 105.07 22.669 27.72 48.196 41.63 76.89 41.63 28.796 0 54.426-13.8 77.095-41.51 22.567-27.72 33.901-62.74 33.901-105.19zm360.974 35.37h-131.11v100.9h9.81c13.17 0 22.87 3.24 29.2 9.62 6.23 6.38 9.39 14.73 9.39 25.17 0 10.43-3.16 18.78-9.39 25.16-6.33 6.38-16.03 9.63-29.2 9.63h-71.075c-13.173 0-22.873-3.25-29.204-9.74-6.23-6.5-9.395-14.96-9.395-25.4 0-10.44 4.187-19.72 12.662-28.07 4.085-4.29 12.764-6.37 25.937-6.37v-272.76c-13.173 0-22.873-3.25-29.204-9.63-6.23-6.37-9.395-14.72-9.395-25.16s3.165-18.79 9.395-25.17c6.331-6.37 16.031-9.62 29.204-9.62h71.075c13.17 0 22.87 3.13 29.2 9.39 6.23 6.26 9.39 14.61 9.39 25.05 0 10.44-3.16 18.9-9.39 25.4-6.33 6.49-16.03 9.74-29.2 9.74h-9.81v102.28h131.11v-102.28h-9.8c-13.17 0-22.87-3.25-29.2-9.63-6.23-6.37-9.4-14.72-9.4-25.16s3.17-18.79 9.4-25.17c6.33-6.37 16.03-9.62 29.2-9.62h71.07c13.17 0 22.88 3.13 29.21 9.39 6.23 6.26 9.39 14.61 9.39 25.05 0 10.44-3.16 18.9-9.39 25.4-6.33 6.49-16.04 9.74-29.21 9.74v272.76c13.17 0 21.75 2.08 25.73 6.26 8.58 8.58 12.87 18.09 12.87 28.53 0 10.43-3.16 18.78-9.39 25.16-6.33 6.38-16.04 9.63-29.21 9.63h-71.07c-13.17 0-22.87-3.25-29.2-9.74-6.23-6.5-9.4-14.96-9.4-25.4 0-10.44 3.17-18.79 9.4-25.05 6.33-6.26 16.03-9.39 29.2-9.39h9.8v-100.9zm192.5 100.9v-272.76c-25.33 0-37.99-11.71-37.99-35.02 0-23.08 13.68-34.56 41.05-34.56h80.26c27.37 0 41.05 11.48 41.05 34.56 0 23.31-13.68 35.02-41.05 35.02h-22.05v209.9l156.84-279.48h71.07c27.37 0 41.05 11.48 41.05 34.56 0 23.31-13.68 35.02-41.05 35.02h-9.8v272.76c16.03 0 27.57 2.66 34.72 8 7.04 5.33 10.62 14.15 10.62 26.56 0 23.31-13.69 35.02-41.05 35.02h-80.26c-27.37 0-41.05-11.71-41.05-35.02 0-23.08 13.68-34.56 41.05-34.56h14.7v-209.91l-156.84 279.49h-61.27c-27.37 0-41.05-11.71-41.05-35.02 0-23.08 13.68-34.56 41.05-34.56zm513.53-71.67v71.67h61.88c15.22 0 25.94 3.24 32.27 9.62 6.23 6.38 9.39 14.73 9.39 25.17 0 10.43-3.16 18.78-9.39 25.16-6.33 6.38-17.05 9.63-32.27 9.63h-132.95c-15.21 0-25.94-3.25-32.27-9.74-6.23-6.5-9.39-14.96-9.39-25.4 0-10.44 3.16-18.79 9.39-25.05 6.33-6.26 17.06-9.39 32.27-9.39h9.8v-272.76h-9.8c-15.21 0-25.94-3.25-32.27-9.63-6.23-6.37-9.39-14.72-9.39-25.16s3.16-18.79 9.39-25.17c6.33-6.37 17.06-9.62 32.27-9.62h141.33c41.45 0 74.33 12.87 98.64 38.62 24.2 25.74 36.35 57.05 36.35 93.93 0 20.41-4.09 39.78-12.26 57.87-6.22 13.57-16.54 27.02-30.94 40.24-14.5 13.34-29.2 23.31-44.31 29.92-15.01 6.73-34.93 10.09-59.64 10.09h-58.1zm0-69.58h56.88c26.75 0 47.89-6.84 63.61-20.65 15.63-13.68 23.49-30.26 23.49-49.51 0-16.35-6.33-30.73-18.99-42.91-12.66-12.29-30.84-18.44-54.33-18.44h-70.66v131.51zm612.18 4.98c0 61.93-17.36 113.42-51.98 154.59-34.72 41.17-74.74 61.69-120.29 61.69-41.05 0-77.91-17.16-110.89-51.37-40.74-42.33-61.17-97.3-61.17-164.91 0-67.49 20.43-122.57 61.17-165.13 32.98-34.22 69.84-51.38 110.89-51.38 45.55 0 85.57 20.53 120.29 61.7 34.62 41.16 51.98 92.77 51.98 154.81zm-61.27 0c0-42.32-11.34-77.46-33.9-105.3-22.67-27.71-48.3-41.63-77.1-41.63-28.69 0-54.22 13.92-76.89 41.87-22.56 27.83-33.9 62.97-33.9 105.06 0 42.22 11.34 77.24 33.9 105.07 22.67 27.72 48.2 41.63 76.89 41.63 28.8 0 54.43-13.8 77.1-41.51 22.56-27.72 33.9-62.74 33.9-105.19zm168.6 136.27v-272.76h-9.81c-15.21 0-25.93-3.25-32.26-9.63-6.23-6.37-9.4-14.72-9.4-25.16s3.17-18.79 9.4-25.17c6.33-6.37 17.05-9.62 32.26-9.62h154.09c36.76 0 66.27 11.6 88.64 34.79 22.36 23.19 33.59 50.79 33.59 82.68 0 15.2-2.65 29.46-7.86 42.8-5.31 13.33-13.28 25.74-24 36.99 19.4 13.22 34.01 28.53 43.71 46.04 9.7 17.51 14.5 37.46 14.5 59.61 0 17.62-3.48 34.09-10.52 49.28-5.11 11.48-11.54 20.65-19.1 27.49-10.21 9.51-22.67 17.28-37.47 23.19-14.71 6.03-33.19 9.05-55.35 9.05h-180.23c-15.21 0-25.93-3.25-32.26-9.74-6.23-6.5-9.4-14.96-9.4-25.4 0-10.44 3.17-18.79 9.4-25.05 6.33-6.26 17.05-9.39 32.26-9.39h9.81zm61.27-171.17h67.49c24.2 0 44.32-6.96 60.25-20.76 10.82-9.39 16.23-20.99 16.23-34.79 0-12.29-5.1-23.08-15.31-32.24-10.21-9.16-26.35-13.8-48.61-13.8h-80.05v101.59zm0 171.17h105.99c24.91 0 42.48-4.18 52.69-12.53 7.76-6.38 11.64-15.42 11.64-27.25 0-14.03-7.66-27.83-23.08-41.4-15.32-13.57-37.37-20.41-66.17-20.41h-81.07v101.59zm542.63-42.45h-148.37l-15.11 42.45h14.7c15.32 0 26.14 3.24 32.47 9.62 6.23 6.38 9.4 14.73 9.4 25.17 0 10.43-3.17 18.78-9.4 25.16-6.33 6.38-17.15 9.63-32.47 9.63h-80.67c-15.21 0-25.93-3.25-32.26-9.74-6.23-6.5-9.4-14.96-9.4-25.4 0-10.44 3.17-18.79 9.4-25.05 6.33-6.26 17.05-9.39 32.26-9.39l96.81-272.76h-39.83c-15.21 0-25.93-3.25-32.26-9.63-6.23-6.37-9.4-14.72-9.4-25.16s3.17-18.79 9.4-25.17c6.33-6.37 17.05-9.62 32.26-9.62h131.52l122.13 342.34c15.22 0 24.92 2.08 29.1 6.26 8.38 8.58 12.56 18.09 12.56 28.53 0 10.43-3.16 18.78-9.39 25.16-6.33 6.38-17.05 9.63-32.27 9.63h-80.77c-15.32 0-26.04-3.25-32.37-9.74-6.23-6.5-9.39-14.96-9.39-25.4 0-10.44 3.16-18.79 9.39-25.05 6.33-6.26 17.05-9.39 32.37-9.39h14.7l-15.11-42.45zm-24.81-69.58l-49.32-138.23-49.32 138.23h98.64zm422.24 11.13h-131.11v100.9h9.8c13.18 0 22.88 3.24 29.21 9.62 6.23 6.38 9.39 14.73 9.39 25.17 0 10.43-3.16 18.78-9.39 25.16-6.33 6.38-16.03 9.63-29.21 9.63h-71.07c-13.17 0-22.87-3.25-29.2-9.74-6.23-6.5-9.39-14.96-9.39-25.4 0-10.44 4.18-19.72 12.66-28.07 4.08-4.29 12.76-6.37 25.93-6.37v-272.76c-13.17 0-22.87-3.25-29.2-9.63-6.23-6.37-9.39-14.72-9.39-25.16s3.16-18.79 9.39-25.17c6.33-6.37 16.03-9.62 29.2-9.62h71.07c13.18 0 22.88 3.13 29.21 9.39 6.23 6.26 9.39 14.61 9.39 25.05 0 10.44-3.16 18.9-9.39 25.4-6.33 6.49-16.03 9.74-29.21 9.74h-9.8v102.28h131.11v-102.28h-9.8c-13.17 0-22.87-3.25-29.2-9.63-6.23-6.37-9.4-14.72-9.4-25.16s3.17-18.79 9.4-25.17c6.33-6.37 16.03-9.62 29.2-9.62h71.07c13.17 0 22.87 3.13 29.21 9.39 6.22 6.26 9.39 14.61 9.39 25.05 0 10.44-3.17 18.9-9.39 25.4-6.34 6.49-16.04 9.74-29.21 9.74v272.76c13.17 0 21.75 2.08 25.73 6.26 8.58 8.58 12.87 18.09 12.87 28.53 0 10.43-3.17 18.78-9.39 25.16-6.34 6.38-16.04 9.63-29.21 9.63h-71.07c-13.17 0-22.87-3.25-29.2-9.74-6.23-6.5-9.4-14.96-9.4-25.4 0-10.44 3.17-18.79 9.4-25.05 6.33-6.26 16.03-9.39 29.2-9.39h9.8v-100.9zm192.5 100.9v-272.76c-25.33 0-37.99-11.71-37.99-35.02 0-23.08 13.68-34.56 41.05-34.56h80.26c27.37 0 41.05 11.48 41.05 34.56 0 23.31-13.68 35.02-41.05 35.02h-22.06v209.9l156.85-279.48h71.07c27.37 0 41.05 11.48 41.05 34.56 0 23.31-13.68 35.02-41.05 35.02h-9.8v272.76c16.03 0 27.57 2.66 34.72 8 7.04 5.33 10.61 14.15 10.61 26.56 0 23.31-13.68 35.02-41.04 35.02h-80.26c-27.37 0-41.05-11.71-41.05-35.02 0-23.08 13.68-34.56 41.05-34.56h14.7v-209.91l-156.85 279.49h-61.26c-27.37 0-41.05-11.71-41.05-35.02 0-23.08 13.68-34.56 41.05-34.56zm485.96-102.29v102.29h156.23v-37.58c0-17.28 2.86-29.45 8.58-36.64 5.72-7.08 13.17-10.67 22.36-10.67s16.55 3.59 22.06 10.67c5.51 7.19 8.27 19.36 8.27 36.64v107.16h-288.57c-15.21 0-25.94-3.25-32.27-9.74-6.23-6.5-9.39-14.96-9.39-25.4 0-10.44 3.16-18.79 9.39-25.05 6.33-6.26 17.06-9.39 32.27-9.39h9.8v-272.76h-9.8c-15.21 0-25.94-3.25-32.27-9.63-6.23-6.37-9.39-14.72-9.39-25.16s3.16-18.79 9.39-25.17c6.33-6.37 17.06-9.62 32.27-9.62l275.7.35v105.41c0 17.28-2.75 29.46-8.27 36.65-5.51 7.07-12.86 10.67-22.05 10.67-9.19 0-16.65-3.6-22.37-10.67-5.71-7.19-8.57-19.37-8.57-36.65v-36.18h-143.37v100.89h53.92c0-17.28 1.83-28.18 5.61-32.7 7.66-9.74 16.14-14.61 25.33-14.61 9.19 0 16.54 3.59 22.05 10.67 5.52 7.19 8.27 19.36 8.27 36.64v69.58c0 17.28-1.83 28.3-5.51 32.94-7.35 9.62-15.62 14.38-24.81 14.38s-17.67-4.87-25.33-14.61c-3.78-4.53-5.61-15.43-5.61-32.71h-53.92zm922.89-240.05v86.28c0 31.08-10.11 46.62-30.43 46.62-20.53 0-30.84-15.54-30.84-46.62v-16.7h-156.23v101.59h78.42c51.87 0 90.37 11.25 115.49 33.63 25.12 22.38 37.68 53.92 37.68 94.74 0 74.92-43.5 112.38-130.5 112.38h-172.16c-27.37 0-41.05-11.71-41.05-35.14 0-22.96 13.68-34.44 41.05-34.44h9.8v-272.76h-9.8c-27.37 0-41.05-11.6-41.05-34.79 0-23.19 13.68-34.79 41.05-34.79h288.57zm-217.5 342.34h105.99c42.89 0 64.33-15.31 64.33-45.93 0-37.11-29.71-55.66-89.25-55.66h-81.07v101.59zm432.66-71.67v71.67h61.88c15.21 0 25.93 3.24 32.27 9.62 6.22 6.38 9.39 14.73 9.39 25.17 0 10.43-3.17 18.78-9.39 25.16-6.34 6.38-17.06 9.63-32.27 9.63h-132.95c-15.22 0-25.94-3.25-32.27-9.74-6.23-6.5-9.39-14.96-9.39-25.4 0-10.44 3.16-18.79 9.39-25.05 6.33-6.26 17.05-9.39 32.27-9.39h9.8v-272.76h-9.8c-15.22 0-25.94-3.25-32.27-9.63-6.23-6.37-9.39-14.72-9.39-25.16s3.16-18.79 9.39-25.17c6.33-6.37 17.05-9.62 32.27-9.62h141.32c41.46 0 74.34 12.87 98.64 38.62 24.2 25.74 36.35 57.05 36.35 93.93 0 20.41-4.08 39.78-12.25 57.87-6.23 13.57-16.54 27.02-30.94 40.24-14.5 13.34-29.2 23.31-44.32 29.92-15.01 6.73-34.92 10.09-59.63 10.09h-58.1zm0-69.58h56.87c26.76 0 47.9-6.84 63.62-20.65 15.62-13.68 23.49-30.26 23.49-49.51 0-16.35-6.33-30.73-19-42.91-12.66-12.29-30.83-18.44-54.32-18.44h-70.66v131.51zm612.17 4.98c0 61.93-17.36 113.42-51.97 154.59-34.72 41.17-74.75 61.69-120.29 61.69-41.05 0-77.91-17.16-110.9-51.37-40.74-42.33-61.16-97.3-61.16-164.91 0-67.49 20.42-122.57 61.16-165.13 32.99-34.22 69.85-51.38 110.9-51.38 45.54 0 85.57 20.53 120.29 61.7 34.61 41.16 51.97 92.77 51.97 154.81zm-61.26 0c0-42.32-11.34-77.46-33.91-105.3-22.66-27.71-48.3-41.63-77.09-41.63-28.69 0-54.22 13.92-76.89 41.87-22.57 27.83-33.9 62.97-33.9 105.06 0 42.22 11.33 77.24 33.9 105.07 22.67 27.72 48.2 41.63 76.89 41.63 28.79 0 54.43-13.8 77.09-41.51 22.57-27.72 33.91-62.74 33.91-105.19zm360.97 35.37h-131.11v100.9h9.8c13.18 0 22.88 3.24 29.21 9.62 6.23 6.38 9.39 14.73 9.39 25.17 0 10.43-3.16 18.78-9.39 25.16-6.33 6.38-16.03 9.63-29.21 9.63h-71.07c-13.17 0-22.87-3.25-29.2-9.74-6.23-6.5-9.39-14.96-9.39-25.4 0-10.44 4.18-19.72 12.66-28.07 4.08-4.29 12.76-6.37 25.93-6.37v-272.76c-13.17 0-22.87-3.25-29.2-9.63-6.23-6.37-9.39-14.72-9.39-25.16s3.16-18.79 9.39-25.17c6.33-6.37 16.03-9.62 29.2-9.62h71.07c13.18 0 22.88 3.13 29.21 9.39 6.23 6.26 9.39 14.61 9.39 25.05 0 10.44-3.16 18.9-9.39 25.4-6.33 6.49-16.03 9.74-29.21 9.74h-9.8v102.28h131.11v-102.28h-9.8c-13.17 0-22.87-3.25-29.2-9.63-6.23-6.37-9.4-14.72-9.4-25.16s3.17-18.79 9.4-25.17c6.33-6.37 16.03-9.62 29.2-9.62h71.07c13.17 0 22.87 3.13 29.21 9.39 6.22 6.26 9.39 14.61 9.39 25.05 0 10.44-3.17 18.9-9.39 25.4-6.34 6.49-16.04 9.74-29.21 9.74v272.76c13.17 0 21.75 2.08 25.73 6.26 8.58 8.58 12.87 18.09 12.87 28.53 0 10.43-3.17 18.78-9.39 25.16-6.34 6.38-16.04 9.63-29.21 9.63h-71.07c-13.17 0-22.87-3.25-29.2-9.74-6.23-6.5-9.4-14.96-9.4-25.4 0-10.44 3.17-18.79 9.4-25.05 6.33-6.26 16.03-9.39 29.2-9.39h9.8v-100.9zm192.5 100.9v-272.76c-25.33 0-37.99-11.71-37.99-35.02 0-23.08 13.68-34.56 41.05-34.56h80.26c27.37 0 41.05 11.48 41.05 34.56 0 23.31-13.68 35.02-41.05 35.02h-22.06v209.9l156.85-279.48h71.07c27.36 0 41.05 11.48 41.05 34.56 0 23.31-13.69 35.02-41.05 35.02h-9.8v272.76c16.03 0 27.57 2.66 34.72 8 7.04 5.33 10.61 14.15 10.61 26.56 0 23.31-13.68 35.02-41.05 35.02h-80.26c-27.36 0-41.04-11.71-41.04-35.02 0-23.08 13.68-34.56 41.04-34.56h14.71v-209.91l-156.85 279.49h-61.26c-27.37 0-41.05-11.71-41.05-35.02 0-23.08 13.68-34.56 41.05-34.56zm513.53-71.67v71.67h61.88c15.22 0 25.94 3.24 32.27 9.62 6.23 6.38 9.39 14.73 9.39 25.17 0 10.43-3.16 18.78-9.39 25.16-6.33 6.38-17.05 9.63-32.27 9.63h-132.95c-15.21 0-25.94-3.25-32.27-9.74-6.23-6.5-9.39-14.96-9.39-25.4 0-10.44 3.16-18.79 9.39-25.05 6.33-6.26 17.06-9.39 32.27-9.39h9.8v-272.76h-9.8c-15.21 0-25.94-3.25-32.27-9.63-6.23-6.37-9.39-14.72-9.39-25.16s3.16-18.79 9.39-25.17c6.33-6.37 17.06-9.62 32.27-9.62h141.32c41.46 0 74.34 12.87 98.64 38.62 24.21 25.74 36.36 57.05 36.36 93.93 0 20.41-4.09 39.78-12.26 57.87-6.23 13.57-16.54 27.02-30.94 40.24-14.5 13.34-29.2 23.31-44.31 29.92-15.01 6.73-34.93 10.09-59.64 10.09h-58.1zm0-69.58h56.88c26.75 0 47.89-6.84 63.61-20.65 15.63-13.68 23.49-30.26 23.49-49.51 0-16.35-6.33-30.73-18.99-42.91-12.66-12.29-30.84-18.44-54.33-18.44h-70.66v131.51zm612.18 4.98c0 61.93-17.36 113.42-51.98 154.59-34.72 41.17-74.75 61.69-120.29 61.69-41.05 0-77.91-17.16-110.89-51.37-40.75-42.33-61.17-97.3-61.17-164.91 0-67.49 20.42-122.57 61.17-165.13 32.98-34.22 69.84-51.38 110.89-51.38 45.54 0 85.57 20.53 120.29 61.7 34.62 41.16 51.98 92.77 51.98 154.81zm-61.27 0c0-42.32-11.34-77.46-33.9-105.3-22.67-27.71-48.3-41.63-77.1-41.63-28.69 0-54.22 13.92-76.89 41.87-22.57 27.83-33.9 62.97-33.9 105.06 0 42.22 11.33 77.24 33.9 105.07 22.67 27.72 48.2 41.63 76.89 41.63 28.8 0 54.43-13.8 77.1-41.51 22.56-27.72 33.9-62.74 33.9-105.19zm168.6 136.27v-272.76h-9.81c-15.21 0-25.93-3.25-32.26-9.63-6.23-6.37-9.4-14.72-9.4-25.16s3.17-18.79 9.4-25.17c6.33-6.37 17.05-9.62 32.26-9.62h154.09c36.76 0 66.27 11.6 88.63 34.79 22.37 23.19 33.6 50.79 33.6 82.68 0 15.2-2.66 29.46-7.86 42.8-5.31 13.33-13.28 25.74-24 36.99 19.4 13.22 34.01 28.53 43.71 46.04 9.7 17.51 14.49 37.46 14.49 59.61 0 17.62-3.47 34.09-10.51 49.28-5.11 11.48-11.54 20.65-19.1 27.49-10.21 9.51-22.67 17.28-37.47 23.19-14.71 6.03-33.19 9.05-55.35 9.05h-180.23c-15.21 0-25.93-3.25-32.26-9.74-6.23-6.5-9.4-14.96-9.4-25.4 0-10.44 3.17-18.79 9.4-25.05 6.33-6.26 17.05-9.39 32.26-9.39h9.81zm61.26-171.17h67.5c24.2 0 44.32-6.96 60.25-20.76 10.82-9.39 16.23-20.99 16.23-34.79 0-12.29-5.1-23.08-15.31-32.24-10.21-9.16-26.35-13.8-48.61-13.8h-80.06v101.59zm0 171.17h106c24.91 0 42.48-4.18 52.69-12.53 7.76-6.38 11.64-15.42 11.64-27.25 0-14.03-7.66-27.83-23.08-41.4-15.32-13.57-37.37-20.41-66.17-20.41h-81.08v101.59zm542.64-42.45h-148.37l-15.11 42.45h14.7c15.32 0 26.14 3.24 32.47 9.62 6.23 6.38 9.4 14.73 9.4 25.17 0 10.43-3.17 18.78-9.4 25.16-6.33 6.38-17.15 9.63-32.47 9.63h-80.67c-15.21 0-25.93-3.25-32.26-9.74-6.23-6.5-9.4-14.96-9.4-25.4 0-10.44 3.17-18.79 9.4-25.05 6.33-6.26 17.05-9.39 32.26-9.39l96.81-272.76h-39.83c-15.21 0-25.93-3.25-32.27-9.63-6.22-6.37-9.39-14.72-9.39-25.16s3.17-18.79 9.39-25.17c6.34-6.37 17.06-9.62 32.27-9.62h131.52l122.13 342.34c15.21 0 24.92 2.08 29.1 6.26 8.38 8.58 12.56 18.09 12.56 28.53 0 10.43-3.16 18.78-9.39 25.16-6.33 6.38-17.06 9.63-32.27 9.63h-80.77c-15.32 0-26.04-3.25-32.37-9.74-6.23-6.5-9.39-14.96-9.39-25.4 0-10.44 3.16-18.79 9.39-25.05 6.33-6.26 17.05-9.39 32.37-9.39h14.7l-15.11-42.45zm-24.81-69.58l-49.32-138.23-49.32 138.23h98.64zm422.24 11.13h-131.11v100.9h9.8c13.18 0 22.88 3.24 29.21 9.62 6.23 6.38 9.39 14.73 9.39 25.17 0 10.43-3.16 18.78-9.39 25.16-6.33 6.38-16.03 9.63-29.21 9.63h-71.07c-13.17 0-22.87-3.25-29.2-9.74-6.23-6.5-9.4-14.96-9.4-25.4 0-10.44 4.19-19.72 12.67-28.07 4.08-4.29 12.76-6.37 25.93-6.37v-272.76c-13.17 0-22.87-3.25-29.2-9.63-6.23-6.37-9.4-14.72-9.4-25.16s3.17-18.79 9.4-25.17c6.33-6.37 16.03-9.62 29.2-9.62h71.07c13.18 0 22.88 3.13 29.21 9.39 6.23 6.26 9.39 14.61 9.39 25.05 0 10.44-3.16 18.9-9.39 25.4-6.33 6.49-16.03 9.74-29.21 9.74h-9.8v102.28h131.11v-102.28h-9.8c-13.17 0-22.87-3.25-29.2-9.63-6.23-6.37-9.4-14.72-9.4-25.16s3.17-18.79 9.4-25.17c6.33-6.37 16.03-9.62 29.2-9.62h71.07c13.17 0 22.87 3.13 29.2 9.39 6.23 6.26 9.4 14.61 9.4 25.05 0 10.44-3.17 18.9-9.4 25.4-6.33 6.49-16.03 9.74-29.2 9.74v272.76c13.17 0 21.75 2.08 25.73 6.26 8.58 8.58 12.87 18.09 12.87 28.53 0 10.43-3.17 18.78-9.4 25.16-6.33 6.38-16.03 9.63-29.2 9.63h-71.07c-13.17 0-22.87-3.25-29.2-9.74-6.23-6.5-9.4-14.96-9.4-25.4 0-10.44 3.17-18.79 9.4-25.05 6.33-6.26 16.03-9.39 29.2-9.39h9.8v-100.9zm192.5 100.9v-272.76c-25.33 0-37.99-11.71-37.99-35.02 0-23.08 13.68-34.56 41.05-34.56h80.26c27.37 0 41.05 11.48 41.05 34.56 0 23.31-13.68 35.02-41.05 35.02h-22.06v209.9l156.85-279.48h71.07c27.36 0 41.05 11.48 41.05 34.56 0 23.31-13.69 35.02-41.05 35.02h-9.8v272.76c16.03 0 27.57 2.66 34.72 8 7.04 5.33 10.61 14.15 10.61 26.56 0 23.31-13.68 35.02-41.04 35.02h-80.27c-27.36 0-41.04-11.71-41.04-35.02 0-23.08 13.68-34.56 41.04-34.56h14.71v-209.91l-156.85 279.49h-61.26c-27.37 0-41.05-11.71-41.05-35.02 0-23.08 13.68-34.56 41.05-34.56zm485.96-102.29v102.29h156.23v-37.58c0-17.28 2.86-29.45 8.58-36.64 5.72-7.08 13.17-10.67 22.36-10.67s16.54 3.59 22.06 10.67c5.51 7.19 8.27 19.36 8.27 36.64v107.16h-288.57c-15.22 0-25.94-3.25-32.27-9.74-6.23-6.5-9.39-14.96-9.39-25.4 0-10.44 3.16-18.79 9.39-25.05 6.33-6.26 17.05-9.39 32.27-9.39h9.8v-272.76h-9.8c-15.22 0-25.94-3.25-32.27-9.63-6.23-6.37-9.39-14.72-9.39-25.16s3.16-18.79 9.39-25.17c6.33-6.37 17.05-9.62 32.27-9.62l275.7.35v105.41c0 17.28-2.75 29.46-8.27 36.65-5.51 7.07-12.86 10.67-22.05 10.67-9.19 0-16.65-3.6-22.37-10.67-5.72-7.19-8.57-19.37-8.57-36.65v-36.18h-143.37v100.89h53.91c0-17.28 1.84-28.18 5.62-32.7 7.66-9.74 16.14-14.61 25.33-14.61 9.19 0 16.54 3.59 22.05 10.67 5.52 7.19 8.27 19.36 8.27 36.64v69.58c0 17.28-1.83 28.3-5.51 32.94-7.35 9.62-15.62 14.38-24.81 14.38s-17.67-4.87-25.33-14.61c-3.78-4.53-5.62-15.43-5.62-32.71h-53.91z"/></svg></svg>